<?xml version="1.0" encoding="utf-8"?>
<!-- Generator: Adobe Illustrator 21.1.0, SVG Export Plug-In . SVG Version: 6.00 Build 0)  -->
<svg version="1.1" id="Layer_1" xmlns="http://www.w3.org/2000/svg" xmlns:xlink="http://www.w3.org/1999/xlink" x="0px" y="0px"
	 viewBox="0 0 32.7 15.3" style="enable-background:new 0 0 32.7 15.3;" xml:space="preserve">
<style type="text/css">
	.st0{fill:url(#SVGID_1_);}
	.st1{fill:url(#SVGID_2_);}
	.st2{fill:#89E126;}
	.st3{fill:#2D92BA;}
	.st4{fill:#2C3E4F;}
</style>
<title>222223Artboard 1</title>
<g>
	<g>
		<g>
			<g>
				<linearGradient id="SVGID_1_" gradientUnits="userSpaceOnUse" x1="12.3816" y1="7.7342" x2="27.439" y2="7.7342">
					<stop  offset="0" style="stop-color:#FFF33B"/>
					<stop  offset="4.010540e-02" style="stop-color:#FEE72E"/>
					<stop  offset="0.1171" style="stop-color:#FED51B"/>
					<stop  offset="0.1964" style="stop-color:#FDCA10"/>
					<stop  offset="0.2809" style="stop-color:#FDC70C"/>
					<stop  offset="0.6685" style="stop-color:#F3903F"/>
					<stop  offset="0.8876" style="stop-color:#ED683C"/>
					<stop  offset="1" style="stop-color:#E93E3A"/>
				</linearGradient>
				<path class="st0" d="M22.9,2.6c0.5-0.1,0.9-0.2,1.3-0.2c0.2,0,0.4,0,0.7,0.1c0.6,0.1,0.9,0.5,0.9,1.1c0,0.4-0.1,0.7-0.2,1.1
					c0,0.1,0,0.2,0.1,0.2c0.3,0.2,0.5,0.4,0.8,0.6c0.4-0.2,0.7-0.2,0.9,0.1c0.2,0.3,0.1,0.6-0.2,0.9c0.1,0.1,0.1,0.3,0.2,0.4
					c0.2,0.7,0.1,1.4-0.3,2c-0.5,0.8-1.1,1.4-1.9,1.8c-0.4,0.2-0.9,0.4-1.4,0.6c-0.1,0-0.1,0.1-0.1,0.2c-0.1,0.7-0.3,1.3-0.6,1.9
					c-0.5,0.8-1.3,1.1-2.2,0.8c-0.1,0-0.2,0-0.2,0.1c-0.3,0.4-0.7,0.8-1.1,1c-0.6,0.3-1.2,0.2-1.6-0.3c-0.3-0.4-0.5-0.8-0.7-1.3
					c-0.1-0.3-0.2-0.6-0.3-0.9c0,0-0.1,0-0.1,0c-0.5,0.1-1,0.3-1.5,0.2c-0.4,0-0.7-0.1-0.9-0.4c-0.2-0.2-0.3-0.5-0.3-0.8
					c0-0.3,0.1-0.7,0.2-1c0-0.1,0-0.2-0.1-0.2c-0.4-0.3-0.8-0.7-1.1-1.1c-0.7-0.9-0.7-1.9-0.3-2.9c0-0.1,0-0.2,0-0.3
					c-0.2-0.3-0.1-0.7,0.1-0.9c0.3-0.3,0.6-0.3,1-0.2c0.1,0,0.1,0,0.2,0c0.7-0.5,1.4-0.9,2.2-1.1c0,0,0.1-0.1,0.1-0.1
					c0.1-0.5,0.2-1.1,0.4-1.6c0.1-0.2,0.3-0.5,0.4-0.7C17.6,1,18.3,0.9,19,1.2c0.2,0.1,0.2,0.1,0.3-0.1c0,0,0.1-0.1,0.1-0.1
					c0.1-0.1,0.2-0.2,0.1-0.4c0-0.2,0.1-0.3,0.2-0.4c0.2-0.1,0.3-0.1,0.5,0c0,0,0.1,0,0.2,0C21,0,21.5,0.2,21.9,0.6
					c0.4,0.4,0.6,0.8,0.7,1.3C22.8,2.2,22.8,2.4,22.9,2.6z M20.8,10c0.1,0.1,0.1,0.1,0.2,0c0.5-0.4,1-0.9,1.5-1.3
					c0,0,0.1-0.1,0.1-0.1c0.1-0.5,0.2-1,0.2-1.5c0-0.2,0-0.3-0.1-0.5c-0.4-1-0.7-2-1.3-2.9c-0.1-0.1-0.1-0.1-0.2-0.1
					c-1.5,0.8-2.8,1.8-4.1,3c0,0-0.1,0.1-0.1,0.1c-0.1,0.5-0.2,1-0.2,1.4c0,0.1,0,0.1,0,0.2c0.3,1.1,0.8,2.2,1.4,3.2
					c0.1,0.2,0.2,0.2,0.4,0.1c0.4-0.3,0.9-0.6,1.3-0.8c0.1,0,0.1-0.1,0-0.1c0-0.2,0-0.4,0.2-0.6C20.4,9.9,20.7,9.9,20.8,10z
					 M23.7,11.1c1-0.4,1.9-0.8,2.6-1.6C26.7,9.1,27,8.6,27.2,8c0.1-0.6,0-1.1-0.2-1.6c-0.5,0.1-0.8-0.3-0.7-0.8c0,0,0-0.1,0-0.1
					c-0.2-0.2-0.5-0.4-0.8-0.6C25.5,5,25.5,5,25.5,5c-0.2,0.4-0.4,0.8-0.7,1.2c-0.4,0.6-0.9,1.1-1.3,1.7c-0.1,0.1-0.1,0.1-0.1,0.2
					c0.1,0.6,0.2,1.2,0.2,1.8C23.7,10.3,23.7,10.7,23.7,11.1z M14,5.3c0.3,0.5,0.3,0.9,0,1.2c-0.3,0.3-0.6,0.3-1.1,0.1c0,0,0,0,0,0
					c-0.3,0.7-0.4,1.3-0.2,2.1c0.2,0.6,0.6,1,1,1.4c0.2,0.1,0.4,0.3,0.5,0.4c0-0.1,0-0.1,0.1-0.1c0.1-0.2,0.2-0.5,0.3-0.7
					c0.5-0.8,1-1.5,1.6-2.2c0.1-0.1,0.1-0.1,0.1-0.2c-0.2-0.7-0.2-1.5-0.2-2.2c0-0.3,0-0.5,0-0.8C15.7,4.2,14.4,4.9,14,5.3z
					 M16.9,12.6c0.1,0.4,0.2,0.7,0.3,1.1c0.1,0.4,0.3,0.8,0.7,1.1c0.4,0.4,0.8,0.4,1.3,0.2c0.5-0.2,0.9-0.6,1.3-1.1c0,0,0,0,0-0.1
					c-0.9-0.5-1.5-1.2-2.1-1.9C17.9,12.2,17.4,12.4,16.9,12.6z M20.5,0.4c0.1,0.3,0.1,0.5-0.1,0.6c-0.2,0.2-0.5,0.1-0.7-0.1
					c-0.1,0.1-0.2,0.3-0.3,0.4c0.5,0.2,0.8,0.5,1.2,0.9c0.3,0.4,0.6,0.7,1,1.1c0.4-0.2,0.9-0.4,1.3-0.6c0-0.1-0.1-0.3-0.1-0.5
					c-0.1-0.3-0.2-0.5-0.3-0.8c-0.1-0.3-0.3-0.6-0.6-0.9C21.4,0.2,20.9,0.2,20.5,0.4z M23,3.9c0.1,0.8,0.1,1.6,0,2.3
					c0,0.3,0,0.5,0.1,0.8c0.1,0.1,0.1,0.3,0.1,0.4c0,0.1,0.1,0.3,0.1,0.5c0.8-0.9,1.6-1.9,2-3C24.6,4.4,23.9,4.1,23,3.9z M16.6,10.2
					c0-0.5,0.1-0.9,0.1-1.3c0-0.1,0.1-0.3,0-0.4c-0.1-0.3-0.2-0.7-0.3-1c0,0-0.1,0.1-0.1,0.1c-0.3,0.4-0.6,0.7-0.9,1.1
					c-0.4,0.5-0.7,1-1,1.6c-0.1,0.3-0.2,0.2,0.1,0.4c0.5,0.3,1.1,0.5,1.6,0.7c0.1,0,0.2,0.1,0.4,0.1c0-0.2,0-0.4,0-0.6
					c-0.2-0.1-0.3-0.1-0.3-0.3C16.3,10.4,16.4,10.3,16.6,10.2z M19.1,1.4c-0.1,0-0.1,0-0.2-0.1c-0.8-0.3-1.4,0-1.9,0.6
					c-0.2,0.3-0.4,0.7-0.5,1.2c-0.1,0.3-0.1,0.5-0.2,0.8c0,0,0.1,0,0.1,0c0.5-0.1,1-0.2,1.4-0.4c0,0,0.1-0.1,0.1-0.1
					c0.2-0.4,0.4-0.9,0.6-1.3C18.8,1.9,18.9,1.7,19.1,1.4z M23.4,11.4C23.4,11.4,23.4,11.4,23.4,11.4c-0.6,0.1-1,0.2-1.5,0.4
					c-0.1,0-0.1,0.1-0.2,0.1c-0.3,0.7-0.6,1.3-1,1.9c0,0-0.1,0.1-0.1,0.1c0,0,0,0,0,0c0.1,0,0.1,0.1,0.2,0.1
					c0.6,0.2,1.2,0.1,1.6-0.4c0.3-0.4,0.5-0.8,0.7-1.3C23.3,11.9,23.4,11.7,23.4,11.4z M21,3.6C21,3.5,21,3.5,21,3.6
					c-1-0.1-1.9-0.1-2.9,0.1c0,0-0.1,0.1-0.1,0.1c-0.2,0.6-0.4,1.2-0.6,1.8c-0.1,0.3-0.1,0.6-0.2,0.9C18.4,5.3,19.6,4.3,21,3.6z
					 M25.4,4.7c0.1-0.4,0.2-0.7,0.2-1.1c0-0.5-0.2-0.8-0.7-1c-0.1,0-0.3-0.1-0.4-0.1c-0.4,0-0.9,0.1-1.3,0.2c-0.1,0-0.2,0.1-0.3,0.1
					C23,3.1,23,3.4,23,3.6c0,0.1,0,0.1,0.1,0.1c0.7,0.2,1.3,0.4,2,0.7C25.2,4.5,25.3,4.6,25.4,4.7z M14.4,10.6
					c-0.2,0.4-0.3,0.8-0.2,1.3c0.1,0.3,0.3,0.6,0.6,0.7c0.7,0.2,1.3,0.1,2-0.1c0-0.3-0.1-0.6-0.1-0.9c0,0-0.1-0.1-0.1-0.1
					c-0.6-0.2-1.2-0.4-1.7-0.7C14.7,10.8,14.5,10.7,14.4,10.6z M18.1,3.5c1.1-0.1,2.1-0.2,3.2-0.1C21.2,3.3,21.1,3.1,21,3
					c-0.5-0.6-1-1.1-1.7-1.5c-0.1-0.1-0.2-0.1-0.2,0.1c-0.3,0.5-0.6,1.1-0.9,1.6C18.2,3.3,18.2,3.4,18.1,3.5z M18.5,11.9
					c0.6,0.8,1.2,1.5,2.1,1.9c0.4-0.7,0.8-1.3,1.1-2c0,0,0,0,0,0c-1,0.1-1.9,0.2-2.9,0.1C18.7,11.9,18.6,11.9,18.5,11.9z M22.6,8.9
					c-0.5,0.4-1,0.9-1.5,1.3c0.2,0.4,0.1,0.6-0.1,0.8c-0.1,0.1-0.2,0.1-0.3,0.1c-0.2,0-0.4-0.1-0.5-0.2c-0.4,0.3-0.8,0.5-1.2,0.8
					c0,0,0.1,0,0.1,0c0.9,0,1.8,0,2.6-0.1c0.1,0,0.2-0.1,0.2-0.2c0.2-0.6,0.4-1.2,0.6-1.8C22.4,9.5,22.5,9.2,22.6,8.9z M21.9,11.6
					C21.9,11.6,21.9,11.6,21.9,11.6c0.5-0.1,1-0.2,1.5-0.3c0,0,0.1-0.1,0.1-0.1c0.1-0.7,0-1.4-0.1-2.2c0-0.2-0.1-0.5-0.1-0.8
					c-0.2,0.2-0.4,0.4-0.5,0.5c0,0-0.1,0.1-0.1,0.2c-0.2,0.7-0.4,1.3-0.5,2C22.1,11.1,22,11.3,21.9,11.6z M16.5,7.1
					c0.2-0.2,0.3-0.3,0.5-0.5c0,0,0.1-0.1,0.1-0.2c0.2-0.7,0.3-1.4,0.6-2.1c0.1-0.2,0.2-0.4,0.2-0.6c-0.1,0-0.1,0-0.1,0
					c-0.4,0.1-0.9,0.2-1.3,0.3c-0.1,0-0.1,0.1-0.1,0.2c0,0.7,0,1.4,0.1,2.2C16.5,6.6,16.5,6.8,16.5,7.1z M16.8,8.8
					C16.8,8.8,16.8,8.8,16.8,8.8c-0.1,0.5-0.1,0.9-0.1,1.4c0,0,0,0.1,0.1,0.1c0.2,0.1,0.2,0.3,0,0.5c0,0-0.1,0.1-0.1,0.1
					c0,0.2,0,0.3,0,0.5c0,0.1,0,0.1,0.1,0.1c0.2,0,0.3,0.1,0.5,0.1c0.3,0,0.5,0.1,0.8,0.1C17.6,10.7,17.2,9.8,16.8,8.8z M21.7,3.6
					C21.7,3.6,21.7,3.6,21.7,3.6c0.5,0.9,0.9,1.8,1.2,2.7C22.9,6,23,5.8,23,5.5c0-0.5,0-1.1,0-1.6c0,0,0-0.1-0.1-0.1
					C22.5,3.7,22.1,3.7,21.7,3.6z M16.9,12.5c0.5-0.2,0.9-0.4,1.4-0.6c0,0,0,0,0,0c-0.5-0.1-1-0.2-1.5-0.3
					C16.8,11.9,16.8,12.1,16.9,12.5z M22.8,2.9c-0.4,0.2-0.8,0.4-1.3,0.6c0.5,0.1,0.9,0.2,1.4,0.2C22.9,3.4,22.9,3.1,22.8,2.9z
					 M22.7,8.5c0.1-0.1,0.1-0.1,0.2-0.2c0.3-0.2,0.3-0.5,0.2-0.8C23.1,7.4,23,7.2,23,7c0,0,0,0,0,0C22.9,7.5,22.8,8,22.7,8.5z
					 M17,6.8c-0.1,0.1-0.1,0.2-0.2,0.2c-0.2,0.1-0.2,0.3-0.1,0.5c0.1,0.1,0.1,0.3,0.1,0.5c0,0,0,0,0,0C16.9,7.6,16.9,7.3,17,6.8z"/>
				<linearGradient id="SVGID_2_" gradientUnits="userSpaceOnUse" x1="12.367" y1="7.7341" x2="27.456" y2="7.7341">
					<stop  offset="0" style="stop-color:#FFF33B"/>
					<stop  offset="4.010540e-02" style="stop-color:#FEE72E"/>
					<stop  offset="0.1171" style="stop-color:#FED51B"/>
					<stop  offset="0.1964" style="stop-color:#FDCA10"/>
					<stop  offset="0.2809" style="stop-color:#FDC70C"/>
					<stop  offset="0.6685" style="stop-color:#F3903F"/>
					<stop  offset="0.8876" style="stop-color:#ED683C"/>
					<stop  offset="1" style="stop-color:#E93E3A"/>
				</linearGradient>
				<path class="st1" d="M18.7,15.3c-0.3,0-0.7-0.2-1-0.5c-0.3-0.4-0.5-0.9-0.7-1.3c-0.1-0.2-0.1-0.4-0.2-0.6c0-0.1-0.1-0.2-0.1-0.3
					l0,0c0,0-0.1,0-0.1,0c-0.5,0.1-1,0.3-1.5,0.2c-0.3,0-0.7-0.1-1-0.5C14.1,12.2,14,12,14,11.6c0-0.3,0-0.6,0.2-1
					c0-0.1,0-0.1-0.1-0.2c-0.5-0.4-0.9-0.7-1.2-1.1c-0.7-0.9-0.8-1.9-0.3-2.9c0-0.1,0-0.2,0-0.2c-0.2-0.3-0.1-0.7,0.1-1
					c0.3-0.3,0.6-0.3,1-0.2c0.1,0,0.1,0,0.2,0c0.8-0.6,1.5-0.9,2.2-1.1c0,0,0.1-0.1,0.1-0.1c0.1-0.6,0.2-1.1,0.4-1.6
					c0.1-0.3,0.3-0.5,0.4-0.7c0.5-0.6,1.2-0.7,2-0.4l0,0c0.2,0.1,0.2,0.1,0.3-0.1c0,0,0,0,0,0c0,0,0-0.1,0.1-0.1
					c0.1-0.1,0.2-0.2,0.1-0.3c0-0.2,0.1-0.3,0.2-0.4c0.2-0.1,0.3-0.1,0.5,0c0,0,0.1,0,0.1,0C21,0,21.5,0.1,22,0.6
					c0.4,0.4,0.6,0.9,0.7,1.3c0.1,0.2,0.1,0.3,0.1,0.5c0,0.1,0,0.1,0.1,0.2c0.1,0,0.3,0,0.4-0.1c0.3-0.1,0.6-0.1,0.9-0.2
					c0.2,0,0.4,0,0.7,0.1c0.6,0.1,0.9,0.5,0.9,1.1c0,0.4-0.1,0.8-0.2,1.1c0,0.1,0,0.1,0.1,0.2c0.2,0.1,0.4,0.3,0.5,0.4
					c0.1,0.1,0.1,0.1,0.2,0.2c0.4-0.2,0.7-0.2,0.9,0.1c0.2,0.3,0.1,0.6-0.2,0.9c0,0,0,0.1,0,0.1c0,0.1,0.1,0.2,0.1,0.3
					c0.2,0.7,0.1,1.3-0.3,2c-0.4,0.7-1.1,1.3-2,1.8c-0.3,0.2-0.7,0.3-1,0.5c-0.1,0-0.2,0.1-0.3,0.1c-0.1,0-0.1,0.1-0.1,0.2
					c-0.1,0.7-0.3,1.3-0.6,1.9c-0.5,0.8-1.3,1.1-2.3,0.8c-0.1,0-0.2,0-0.2,0.1c-0.3,0.4-0.7,0.8-1.1,1
					C19.1,15.3,18.9,15.3,18.7,15.3z M16.8,12.6L16.8,12.6c0,0.1,0.1,0.2,0.1,0.3c0.1,0.2,0.1,0.4,0.2,0.6c0.1,0.4,0.3,0.9,0.7,1.3
					c0.5,0.5,1,0.6,1.6,0.3c0.4-0.2,0.8-0.6,1.1-1c0.1-0.1,0.1-0.1,0.3-0.1c0.9,0.3,1.7,0.1,2.2-0.8c0.3-0.5,0.5-1.1,0.6-1.9
					c0-0.1,0.1-0.1,0.1-0.2c0.1,0,0.2-0.1,0.3-0.1c0.3-0.1,0.7-0.3,1-0.5c0.9-0.5,1.5-1.1,1.9-1.8c0.4-0.7,0.5-1.4,0.3-2
					c0-0.1-0.1-0.2-0.1-0.3c0,0,0-0.1,0-0.1l0,0l0,0c0.3-0.3,0.4-0.6,0.2-0.8c-0.2-0.3-0.5-0.3-0.9-0.1l0,0l0,0
					c-0.1-0.1-0.1-0.1-0.2-0.2C26,5.1,25.9,5,25.7,4.9c-0.1-0.1-0.1-0.1-0.1-0.2c0.1-0.3,0.2-0.7,0.2-1.1c0-0.6-0.3-0.9-0.9-1.1
					c-0.2-0.1-0.5-0.1-0.7-0.1c-0.3,0-0.6,0.1-0.9,0.2c-0.1,0-0.3,0.1-0.4,0.1l0,0l0,0c0-0.1,0-0.1-0.1-0.2c0-0.2-0.1-0.3-0.1-0.5
					c-0.1-0.4-0.3-0.9-0.7-1.3c-0.4-0.4-0.9-0.5-1.5-0.3c-0.1,0-0.1,0-0.2,0c-0.2-0.1-0.3-0.1-0.5,0c-0.2,0.1-0.3,0.2-0.2,0.4
					c0,0.2,0,0.3-0.1,0.4c0,0-0.1,0.1-0.1,0.1c0,0,0,0,0,0c-0.1,0.2-0.1,0.2-0.3,0.1l0,0c-0.8-0.3-1.4-0.1-1.9,0.4
					c-0.2,0.2-0.3,0.4-0.4,0.7c-0.2,0.4-0.4,0.9-0.4,1.5c0,0,0,0.1-0.1,0.1c-0.7,0.2-1.4,0.6-2.2,1.1c-0.1,0-0.1,0-0.2,0
					C13.4,5,13.1,5,12.8,5.3c-0.2,0.3-0.3,0.6-0.1,0.9c0.1,0.1,0.1,0.2,0,0.3c-0.5,1-0.4,2,0.3,2.8c0.3,0.4,0.6,0.7,1.1,1.1
					c0.1,0.1,0.1,0.1,0.1,0.2c-0.1,0.3-0.2,0.7-0.2,1c0,0.3,0.1,0.6,0.3,0.8c0.2,0.3,0.6,0.4,0.9,0.4c0.5,0.1,0.9,0,1.5-0.2
					C16.7,12.7,16.7,12.6,16.8,12.6L16.8,12.6z M18.7,15.2c-0.3,0-0.5-0.1-0.8-0.4c-0.3-0.3-0.5-0.6-0.7-1.1
					C17.1,13.5,17,13.2,17,13c0-0.1-0.1-0.2-0.1-0.3l0,0l1.5-0.6l0,0c0.6,0.9,1.3,1.5,2.1,1.9l0,0l0,0c0,0,0,0,0,0c0,0,0,0,0,0
					c-0.4,0.5-0.8,0.9-1.3,1.1C19,15.2,18.8,15.2,18.7,15.2z M16.9,12.6c0,0.1,0.1,0.2,0.1,0.3c0.1,0.3,0.2,0.5,0.2,0.8
					c0.2,0.5,0.4,0.8,0.7,1.1c0.4,0.4,0.8,0.4,1.3,0.2c0.5-0.2,0.9-0.6,1.3-1.1c0,0,0,0,0,0c0,0,0,0,0,0c-0.8-0.4-1.4-1-2.1-1.9
					L16.9,12.6z M21.5,14c-0.2,0-0.3,0-0.5-0.1c-0.1,0-0.1,0-0.2-0.1c0,0,0,0-0.1,0c0,0,0,0,0,0c0,0,0,0,0,0l0,0l0-0.1
					c0,0,0-0.1,0.1-0.1c0.4-0.6,0.7-1.2,1-1.9c0-0.1,0.1-0.1,0.2-0.1c0.4-0.1,0.7-0.2,1.1-0.2c0.1,0,0.2-0.1,0.4-0.1c0,0,0,0,0,0
					l0.1,0l0,0c0,0.1,0,0.2-0.1,0.3c0,0.2-0.1,0.4-0.1,0.6c-0.2,0.6-0.4,1-0.7,1.3C22.3,13.9,21.9,14,21.5,14z M20.7,13.8
					C20.7,13.9,20.7,13.9,20.7,13.8C20.8,13.9,20.8,13.9,20.7,13.8C20.8,13.9,20.8,13.9,20.7,13.8c0.1,0.1,0.2,0.1,0.2,0.1
					c0.7,0.2,1.2,0,1.6-0.4c0.3-0.3,0.5-0.7,0.7-1.3c0.1-0.2,0.1-0.4,0.1-0.6c0-0.1,0-0.2,0.1-0.3l0,0c0,0,0,0,0,0
					c-0.1,0-0.2,0.1-0.4,0.1c-0.3,0.1-0.7,0.2-1.1,0.2c-0.1,0-0.1,0.1-0.2,0.1c-0.3,0.7-0.6,1.3-1,1.9
					C20.8,13.8,20.8,13.8,20.7,13.8L20.7,13.8z M20.6,13.8L20.6,13.8c-0.8-0.4-1.4-1-2.1-1.9l0,0l0,0c0,0,0.1,0,0.1,0
					c0,0,0.1,0,0.1,0c1,0.1,2,0,2.9-0.1c0,0,0,0,0,0c0,0,0,0,0,0l0,0l0,0C21.4,12.5,21.1,13.2,20.6,13.8L20.6,13.8z M18.6,11.9
					c0.6,0.9,1.3,1.5,2,1.9c0.4-0.6,0.8-1.3,1.1-2c0,0,0,0,0,0c0,0,0,0,0,0c-0.9,0.1-1.9,0.2-2.9,0.1C18.7,11.9,18.7,11.9,18.6,11.9
					C18.6,11.9,18.6,11.9,18.6,11.9z M15.5,12.7c-0.2,0-0.5,0-0.7-0.1c-0.3-0.1-0.5-0.4-0.6-0.7c-0.1-0.5,0-0.9,0.2-1.3l0,0l0,0
					c0.1,0,0.1,0.1,0.2,0.1c0.1,0.1,0.2,0.1,0.3,0.2c0.5,0.3,1.1,0.5,1.7,0.7c0,0,0.1,0.1,0.1,0.1c0,0.2,0.1,0.4,0.1,0.7
					c0,0.1,0,0.1,0,0.2l0,0l0,0C16.4,12.6,15.9,12.7,15.5,12.7z M14.4,10.6c-0.1,0.4-0.2,0.8-0.2,1.3c0.1,0.3,0.3,0.6,0.6,0.7
					c0.7,0.2,1.4,0,1.9-0.1c0-0.1,0-0.1,0-0.2c0-0.2-0.1-0.4-0.1-0.6c0,0,0-0.1-0.1-0.1c-0.7-0.2-1.2-0.4-1.7-0.7
					c-0.1-0.1-0.2-0.1-0.3-0.2C14.5,10.7,14.4,10.7,14.4,10.6z M16.9,12.5l-0.1-0.9l1.5,0.3l0,0.1L16.9,12.5z M16.8,11.6l0.1,0.8
					l1.4-0.6l0,0L16.8,11.6z M19.8,11.8c-0.3,0-0.5,0-0.8,0c0,0,0,0,0,0c0,0,0,0,0,0l0,0l1.3-0.8l0,0c0.1,0.1,0.3,0.2,0.5,0.2
					c0.1,0,0.2-0.1,0.3-0.1c0.2-0.2,0.3-0.4,0.1-0.8l0,0l1.5-1.3l0,0c0,0.1,0,0.2-0.1,0.3c0,0.2-0.1,0.3-0.1,0.5
					c-0.1,0.4-0.2,0.7-0.3,1.1c-0.1,0.2-0.1,0.5-0.2,0.7c0,0.1-0.1,0.2-0.2,0.2C21,11.7,20.4,11.8,19.8,11.8z M18.9,11.7
					C19,11.7,19,11.7,18.9,11.7c1,0.1,1.8,0,2.7-0.1c0.1,0,0.1-0.1,0.2-0.2c0.1-0.2,0.1-0.5,0.2-0.7c0.1-0.4,0.2-0.7,0.3-1.1
					c0.1-0.2,0.1-0.3,0.1-0.5c0-0.1,0-0.1,0-0.2l-1.4,1.2c0.2,0.4,0.1,0.6-0.1,0.8c-0.1,0.1-0.2,0.1-0.3,0.1c-0.2,0-0.4-0.1-0.5-0.2
					L18.9,11.7z M18.5,11.7c-0.1,0-0.1,0-0.2-0.2c-0.6-0.9-1-1.9-1.4-3.2c0-0.1,0-0.1,0-0.2c0.1-0.5,0.2-1,0.2-1.4
					c0,0,0-0.1,0.1-0.1c1.3-1.3,2.7-2.3,4.1-3c0.1-0.1,0.2,0,0.2,0.1c0.6,0.8,0.9,1.8,1.3,2.9c0.1,0.2,0.1,0.3,0.1,0.5
					c0,0.3-0.1,0.5-0.1,0.8c0,0.2-0.1,0.5-0.1,0.7c0,0.1,0,0.1-0.1,0.2c-0.5,0.5-1,0.9-1.5,1.3c-0.1,0.1-0.1,0.1-0.2,0l0,0
					c-0.2-0.1-0.4,0-0.6,0.1c-0.2,0.1-0.3,0.3-0.2,0.6c0,0.1,0,0.1-0.1,0.2c-0.2,0.1-0.4,0.3-0.6,0.4c-0.2,0.1-0.5,0.3-0.7,0.4
					C18.6,11.7,18.5,11.7,18.5,11.7z M21.4,3.6C21.3,3.6,21.3,3.6,21.4,3.6c-1.5,0.8-2.8,1.8-4.1,3.1c0,0-0.1,0.1-0.1,0.1
					c-0.1,0.5-0.2,0.9-0.2,1.4c0,0,0,0.1,0,0.2c0.4,1.2,0.8,2.3,1.4,3.2c0.1,0.2,0.2,0.2,0.3,0.1c0.2-0.1,0.5-0.3,0.7-0.4
					c0.2-0.1,0.4-0.3,0.6-0.4c0.1,0,0.1-0.1,0-0.1c0-0.2,0-0.4,0.2-0.6c0.2-0.1,0.4-0.2,0.6-0.1l0,0c0.1,0.1,0.1,0.1,0.2,0
					c0.5-0.4,1-0.9,1.5-1.3c0,0,0.1-0.1,0.1-0.1c0-0.2,0.1-0.5,0.1-0.7c0-0.3,0.1-0.5,0.1-0.8c0-0.1,0-0.3,0-0.4
					c-0.4-1.1-0.8-2-1.3-2.9C21.4,3.6,21.4,3.6,21.4,3.6z M18.2,11.7L18.2,11.7c-0.1,0-0.2,0-0.3,0c-0.2,0-0.4-0.1-0.6-0.1
					c-0.1,0-0.2,0-0.3-0.1c-0.1,0-0.2,0-0.2-0.1c-0.1,0-0.1,0-0.1-0.1c0-0.1,0-0.1,0-0.2c0-0.1,0-0.2,0-0.3c0,0,0-0.1,0.1-0.1
					c0.1-0.1,0.1-0.1,0.1-0.2c0-0.1,0-0.2-0.1-0.2c0,0-0.1-0.1-0.1-0.1c0-0.4,0.1-0.8,0.1-1.3l0-0.1c0,0,0,0,0,0c0,0,0,0,0,0l0,0
					l0,0C17.2,9.9,17.6,10.8,18.2,11.7L18.2,11.7z M16.8,8.8C16.8,8.8,16.8,8.8,16.8,8.8l0,0.1c0,0.4-0.1,0.8-0.1,1.3
					c0,0,0,0.1,0,0.1c0.1,0.1,0.1,0.2,0.1,0.2c0,0.1,0,0.2-0.1,0.3c0,0,0,0.1,0,0.1c0,0.1,0,0.2,0,0.3c0,0.1,0,0.1,0,0.2
					c0,0.1,0,0.1,0.1,0.1c0.1,0,0.2,0,0.2,0.1c0.1,0,0.2,0,0.3,0.1c0.2,0,0.4,0.1,0.6,0.1c0.1,0,0.2,0,0.2,0
					C17.6,10.8,17.2,9.9,16.8,8.8z M21.9,11.6C21.9,11.6,21.9,11.6,21.9,11.6C21.9,11.6,21.9,11.6,21.9,11.6L21.9,11.6L21.9,11.6
					c0-0.1,0-0.2,0-0.3c0.1-0.2,0.1-0.3,0.2-0.5c0.1-0.4,0.2-0.8,0.3-1.2c0.1-0.3,0.1-0.5,0.2-0.8c0-0.1,0.1-0.1,0.1-0.2
					c0.1-0.1,0.2-0.2,0.4-0.4c0-0.1,0.1-0.1,0.2-0.2l0,0l0,0c0,0.1,0,0.2,0,0.2c0,0.2,0.1,0.3,0.1,0.5c0.1,0.6,0.1,1.4,0.1,2.2
					c0,0,0,0.1-0.1,0.1c-0.4,0.1-0.9,0.2-1.3,0.3L21.9,11.6C21.9,11.6,21.9,11.6,21.9,11.6z M21.9,11.6
					C21.9,11.6,21.9,11.6,21.9,11.6C21.9,11.6,21.9,11.6,21.9,11.6l0.2,0c0.4-0.1,0.8-0.2,1.3-0.3c0,0,0.1-0.1,0.1-0.1
					c0.1-0.8,0-1.5-0.1-2.2c0-0.2,0-0.3-0.1-0.5c0-0.1,0-0.1,0-0.2c0,0-0.1,0.1-0.1,0.1c-0.1,0.1-0.2,0.3-0.4,0.4
					c0,0-0.1,0.1-0.1,0.2c-0.1,0.3-0.1,0.5-0.2,0.8c-0.1,0.4-0.2,0.8-0.3,1.2c0,0.2-0.1,0.3-0.2,0.5C22,11.4,21.9,11.5,21.9,11.6z
					 M16.7,11.4L16.7,11.4c-0.1,0-0.1,0-0.1,0c-0.1,0-0.2,0-0.2-0.1c-0.6-0.2-1.2-0.4-1.6-0.7c0,0,0,0-0.1,0
					c-0.2-0.1-0.2-0.1-0.1-0.3c0,0,0-0.1,0-0.1c0.3-0.6,0.6-1.1,1-1.6c0.2-0.3,0.4-0.5,0.6-0.8c0.1-0.1,0.2-0.2,0.2-0.3
					c0,0,0,0,0.1-0.1c0,0,0,0,0,0l0,0l0,0c0,0.1,0.1,0.2,0.1,0.3c0.1,0.3,0.1,0.5,0.2,0.7c0,0.1,0,0.2,0,0.3c0,0,0,0.1,0,0.1
					c0,0.3,0,0.6-0.1,1l0,0.4l0,0c-0.2,0.1-0.3,0.1-0.3,0.3c0,0.1,0.1,0.2,0.3,0.3l0,0L16.7,11.4z M16.4,7.5
					C16.4,7.5,16.4,7.5,16.4,7.5C16.4,7.5,16.4,7.5,16.4,7.5c-0.2,0.2-0.2,0.3-0.3,0.4c-0.2,0.3-0.4,0.5-0.6,0.8
					c-0.4,0.5-0.7,1-1,1.6c0,0,0,0.1,0,0.1c-0.1,0.1-0.1,0.1,0.1,0.2c0,0,0,0,0.1,0c0.5,0.3,1,0.5,1.6,0.7c0.1,0,0.2,0,0.2,0.1
					c0,0,0.1,0,0.1,0l0-0.5c-0.2-0.1-0.3-0.2-0.3-0.3c0-0.1,0.1-0.2,0.3-0.3l0-0.4c0-0.3,0-0.6,0.1-1c0,0,0-0.1,0-0.1
					c0-0.1,0-0.2,0-0.3c-0.1-0.2-0.1-0.5-0.2-0.7C16.5,7.7,16.5,7.6,16.4,7.5z M23.6,11.2L23.6,11.2c0-0.2,0-0.3,0-0.4
					c0-0.3,0-0.6,0-0.8c0-0.5-0.1-1-0.2-1.5l0-0.2c0-0.1,0-0.2,0.1-0.2c0.1-0.1,0.2-0.3,0.3-0.4c0.3-0.4,0.7-0.8,1-1.3
					C25,6,25.1,5.7,25.3,5.4c0.1-0.1,0.1-0.3,0.2-0.4c0,0,0-0.1,0-0.1c0,0,0,0,0-0.1l0,0L25.7,5c0.2,0.2,0.4,0.3,0.6,0.5
					c0,0,0,0.1,0,0.1c-0.1,0.2,0,0.4,0.1,0.6c0.1,0.2,0.3,0.2,0.6,0.2l0,0l0,0c0.3,0.6,0.3,1.1,0.2,1.6c-0.1,0.6-0.4,1.1-0.9,1.5
					C25.6,10.2,24.8,10.7,23.6,11.2L23.6,11.2z M25.5,4.9C25.5,4.9,25.5,4.9,25.5,4.9C25.5,5,25.5,5,25.5,5
					c-0.1,0.1-0.1,0.3-0.2,0.4C25.1,5.7,25,6,24.8,6.3c-0.3,0.4-0.6,0.9-1,1.3c-0.1,0.1-0.2,0.3-0.3,0.4c-0.1,0.1-0.1,0.1-0.1,0.2
					l0,0.2c0.1,0.5,0.1,1,0.2,1.5c0,0.3,0,0.5,0,0.8c0,0.1,0,0.2,0,0.4c1.2-0.4,2-0.9,2.6-1.5c0.5-0.5,0.8-1,0.9-1.5
					c0.1-0.5,0.1-1-0.2-1.6c-0.3,0-0.5-0.1-0.6-0.2c-0.1-0.2-0.2-0.4-0.1-0.6c0,0,0-0.1,0-0.1c-0.2-0.2-0.4-0.3-0.6-0.5L25.5,4.9z
					 M14.3,10.4L14.3,10.4c-0.1-0.1-0.1-0.1-0.2-0.2c-0.1-0.1-0.3-0.2-0.4-0.3c-0.5-0.5-0.9-0.9-1-1.4c-0.3-0.7-0.2-1.4,0.2-2.1
					c0,0,0,0,0,0c0,0,0,0,0,0l0,0l0,0c0.5,0.2,0.8,0.2,1.1-0.1c0.3-0.3,0.3-0.6,0-1.1l0,0l0,0c0.4-0.3,1.7-1.1,2.2-1.1l0,0l0,0
					c0,0.1,0,0.2,0,0.2c0,0.2,0,0.4,0,0.5c0,0.8,0.1,1.5,0.2,2.2c0,0.1,0,0.2-0.1,0.2c-0.7,0.8-1.2,1.5-1.6,2.2
					c-0.1,0.2-0.2,0.3-0.2,0.5c0,0.1-0.1,0.1-0.1,0.2C14.3,10.3,14.3,10.3,14.3,10.4L14.3,10.4z M12.9,6.5L12.9,6.5
					C12.9,6.5,12.9,6.5,12.9,6.5c-0.4,0.7-0.4,1.4-0.2,2.1c0.2,0.5,0.5,0.9,1,1.4c0.1,0.1,0.2,0.2,0.4,0.3c0.1,0,0.1,0.1,0.2,0.1
					l0,0c0,0,0-0.1,0-0.1c0-0.1,0.1-0.1,0.1-0.2c0.1-0.2,0.2-0.3,0.2-0.5c0.4-0.7,1-1.5,1.6-2.2c0-0.1,0.1-0.1,0.1-0.2
					c-0.2-0.7-0.2-1.4-0.2-2.2c0-0.2,0-0.4,0-0.5c0-0.1,0-0.2,0-0.2c-0.5,0.1-1.8,0.8-2.2,1.1c0.3,0.5,0.3,0.9,0,1.2
					C13.7,6.7,13.3,6.7,12.9,6.5z M22.7,8.5L22.9,7l0,0l0,0c0,0.1,0,0.1,0,0.2c0,0.1,0.1,0.2,0.1,0.3c0.1,0.3,0.1,0.6-0.2,0.8
					c0,0-0.1,0.1-0.1,0.1C22.8,8.4,22.8,8.5,22.7,8.5L22.7,8.5z M23,7.1l-0.2,1.4c0,0,0,0,0,0c0,0,0.1-0.1,0.1-0.1
					c0.3-0.2,0.3-0.4,0.2-0.8c0-0.1-0.1-0.2-0.1-0.3C23,7.2,23,7.1,23,7.1z M16.8,8L16.8,8c0-0.1,0-0.1,0-0.2c0-0.1-0.1-0.2-0.1-0.3
					c-0.1-0.2,0-0.4,0.1-0.5c0,0,0.1-0.1,0.1-0.1c0,0,0-0.1,0.1-0.1l0,0L16.8,8L16.8,8z M17,6.9C16.9,6.9,16.9,6.9,17,6.9
					C16.9,7,16.8,7,16.8,7.1c-0.2,0.1-0.2,0.3-0.1,0.5c0,0.1,0.1,0.2,0.1,0.3c0,0,0,0.1,0,0.1L17,6.9z M23.4,7.8l0-0.2
					c0-0.1-0.1-0.2-0.1-0.3c0,0,0-0.1,0-0.1c0-0.1,0-0.2-0.1-0.3C23,6.7,23,6.5,23,6.2c0.1-0.8,0.1-1.6,0-2.3l0,0l0,0
					c0.9,0.2,1.6,0.5,2.3,0.9l0,0l0,0C24.9,6,24.1,6.9,23.4,7.8L23.4,7.8z M23.1,3.9c0.1,0.8,0.1,1.5,0,2.3c0,0.3,0,0.5,0.1,0.7
					c0,0.1,0.1,0.2,0.1,0.3c0,0,0,0.1,0,0.1c0,0.1,0.1,0.2,0.1,0.3l0,0.1c0.8-0.9,1.5-1.8,2-3C24.7,4.4,23.9,4.1,23.1,3.9z
					 M16.5,7.1L16.5,7.1c0-0.1,0-0.2,0-0.3c0-0.2-0.1-0.3-0.1-0.5c-0.1-0.7-0.1-1.4-0.1-2.2c0-0.1,0-0.1,0.1-0.2
					c0.3-0.1,0.6-0.1,0.9-0.2c0.1,0,0.3-0.1,0.4-0.1c0,0,0,0,0.1,0c0,0,0,0,0.1,0l0,0l0,0c0,0.1-0.1,0.1-0.1,0.2
					c-0.1,0.1-0.1,0.3-0.2,0.4c-0.3,0.7-0.4,1.4-0.6,2.1c0,0.1,0,0.1-0.1,0.2c-0.1,0.1-0.2,0.2-0.3,0.3C16.6,7,16.6,7,16.5,7.1
					L16.5,7.1z M17.9,3.7C17.9,3.7,17.9,3.7,17.9,3.7c-0.1,0-0.1,0-0.1,0c-0.1,0-0.3,0.1-0.4,0.1C17.1,3.9,16.8,4,16.5,4
					c-0.1,0-0.1,0.1-0.1,0.1c0,0.7,0,1.5,0.1,2.2c0,0.2,0,0.3,0.1,0.5c0,0.1,0,0.1,0,0.2c0,0,0.1-0.1,0.1-0.1
					c0.1-0.1,0.2-0.2,0.3-0.3c0,0,0.1-0.1,0.1-0.2c0.2-0.7,0.3-1.4,0.6-2.1c0.1-0.1,0.1-0.3,0.2-0.4C17.8,3.8,17.9,3.8,17.9,3.7z
					 M17.2,6.4L17.2,6.4c0-0.1,0.1-0.2,0.1-0.3c0-0.2,0.1-0.4,0.1-0.6c0.2-0.6,0.4-1.1,0.6-1.7l0-0.1c0,0,0.1-0.1,0.1-0.1
					c1-0.1,1.9-0.2,2.8-0.1c0,0,0,0,0,0c0,0,0,0,0,0l0,0l0,0C19.5,4.4,18.2,5.5,17.2,6.4L17.2,6.4z M20,3.5c-0.6,0-1.2,0-1.9,0.1
					c0,0-0.1,0.1-0.1,0.1l0,0.1c-0.2,0.5-0.4,1.1-0.6,1.7c-0.1,0.2-0.1,0.4-0.1,0.6c0,0.1,0,0.1,0,0.2c0.9-0.9,2.2-1.9,3.7-2.7
					c0,0,0,0,0,0c0,0,0,0,0,0C20.6,3.5,20.3,3.5,20,3.5z M22.9,6.4L22.9,6.4c-0.3-0.9-0.7-1.9-1.3-2.7l0,0l0-0.1l0.2,0
					c0.3,0.1,0.7,0.1,1,0.2c0,0,0.1,0.1,0.1,0.1L23,4c0,0.5,0,1,0,1.5C23,5.8,23,6,22.9,6.4L22.9,6.4z M21.7,3.6
					c0.5,0.8,0.9,1.8,1.2,2.6c0-0.2,0-0.5,0-0.7c0-0.5,0-1,0-1.5l0-0.1c0,0,0-0.1,0-0.1c-0.3-0.1-0.7-0.1-1-0.2L21.7,3.6L21.7,3.6z
					 M25.4,4.7L25.4,4.7c-0.1,0-0.1-0.1-0.1-0.1c-0.1,0-0.1-0.1-0.2-0.1c-0.6-0.3-1.2-0.6-2-0.7c-0.1,0-0.1,0-0.1-0.1
					c0-0.2,0-0.4-0.1-0.6c0-0.1,0-0.1,0-0.2l0,0l0,0c0,0,0.1,0,0.1,0c0.1,0,0.1,0,0.2-0.1c0.4-0.1,0.9-0.2,1.3-0.2
					c0.2,0,0.3,0,0.4,0.1c0.5,0.2,0.7,0.4,0.7,1C25.6,3.9,25.6,4.3,25.4,4.7L25.4,4.7z M22.9,2.9c0,0.1,0,0.1,0,0.2
					C23,3.3,23,3.4,23,3.6c0,0.1,0,0.1,0.1,0.1c0.7,0.2,1.4,0.4,2,0.7c0.1,0,0.1,0.1,0.2,0.1c0,0,0.1,0,0.1,0.1
					c0.1-0.4,0.2-0.7,0.2-1c0-0.5-0.2-0.8-0.7-0.9c-0.1,0-0.3-0.1-0.4-0.1c-0.4,0-0.8,0.1-1.3,0.2C23.2,2.8,23.1,2.8,22.9,2.9
					C23,2.8,23,2.8,22.9,2.9z M16.3,3.9L16.3,3.9c0-0.1,0-0.2,0.1-0.3c0-0.2,0.1-0.4,0.1-0.6c0.1-0.5,0.3-0.8,0.5-1.2
					c0.5-0.6,1.1-0.9,1.9-0.6c0,0,0.1,0,0.1,0c0,0,0,0,0.1,0l0,0l0,0c0,0.1-0.1,0.2-0.1,0.2c-0.1,0.2-0.2,0.3-0.3,0.5
					c-0.1,0.3-0.3,0.5-0.4,0.8c-0.1,0.2-0.2,0.3-0.3,0.5c0,0-0.1,0.1-0.1,0.1c-0.4,0.1-0.8,0.2-1.2,0.3l-0.3,0.1
					C16.4,3.9,16.4,3.9,16.3,3.9C16.4,3.9,16.4,3.9,16.3,3.9L16.3,3.9z M18.3,1.2c-0.5,0-0.9,0.2-1.3,0.7c-0.2,0.3-0.4,0.7-0.5,1.1
					c0,0.2-0.1,0.4-0.1,0.5c0,0.1,0,0.2,0,0.2c0,0,0,0,0,0c0,0,0,0,0,0l0.3-0.1c0.4-0.1,0.8-0.2,1.2-0.3c0,0,0.1-0.1,0.1-0.1
					c0.1-0.2,0.2-0.3,0.3-0.5c0.1-0.3,0.3-0.5,0.4-0.8c0.1-0.2,0.2-0.3,0.3-0.5c0-0.1,0.1-0.1,0.1-0.2c0,0,0,0,0,0c0,0-0.1,0-0.1,0
					C18.7,1.3,18.5,1.2,18.3,1.2z M22.9,3.7l-1.4-0.2l1.3-0.6L22.9,3.7z M21.6,3.4l1.3,0.2l-0.1-0.8L21.6,3.4z M18.1,3.5L18.1,3.5
					c0-0.1,0.1-0.1,0.1-0.2c0-0.1,0.1-0.2,0.1-0.2c0.2-0.3,0.3-0.5,0.5-0.8c0.1-0.3,0.3-0.5,0.4-0.8c0-0.1,0.1-0.1,0.1-0.1
					c0,0,0.1,0,0.2,0C20,1.9,20.6,2.4,21,3c0.1,0.1,0.2,0.2,0.3,0.4l0,0l0,0C20.3,3.3,19.2,3.4,18.1,3.5L18.1,3.5z M19.2,1.5
					C19.2,1.5,19.2,1.5,19.2,1.5c-0.1,0-0.1,0-0.1,0.1c-0.1,0.3-0.3,0.5-0.4,0.8c-0.2,0.3-0.3,0.5-0.5,0.8c0,0.1-0.1,0.1-0.1,0.2
					c0,0,0,0.1,0,0.1c1.1-0.1,2.1-0.2,3.1-0.1C21.2,3.2,21.1,3.1,21,3c-0.5-0.6-1-1.1-1.7-1.5C19.3,1.5,19.3,1.5,19.2,1.5z
					 M21.5,3.3L21.5,3.3c-0.1-0.1-0.2-0.2-0.3-0.3c-0.2-0.3-0.4-0.5-0.7-0.8c-0.4-0.4-0.8-0.7-1.2-0.9l0,0l0.4-0.4l0,0
					c0.2,0.2,0.4,0.2,0.7,0.1c0.2-0.1,0.2-0.3,0.1-0.6l0,0l0,0c0.4-0.2,0.9-0.1,1.3,0.2c0.3,0.2,0.5,0.5,0.6,0.9
					c0.1,0.3,0.2,0.5,0.3,0.8c0,0.1,0.1,0.2,0.1,0.3c0,0,0,0.1,0,0.1l0,0L21.5,3.3z M19.4,1.3c0.4,0.2,0.8,0.5,1.2,0.9
					c0.2,0.2,0.5,0.5,0.7,0.8c0.1,0.1,0.2,0.2,0.3,0.3l1.3-0.6c0,0,0-0.1,0-0.1c0-0.1,0-0.2-0.1-0.3c-0.1-0.2-0.2-0.5-0.3-0.8
					c-0.1-0.3-0.3-0.6-0.6-0.9c-0.4-0.3-0.9-0.4-1.3-0.2c0.1,0.3,0.1,0.5-0.1,0.6c-0.2,0.2-0.5,0.2-0.7-0.1L19.4,1.3z"/>
			</g>
		</g>
	</g>
	<g>
		<g>
			<circle class="st2" cx="13.4" cy="5.9" r="0.9"/>
			<path class="st2" d="M13.4,6.8c-0.5,0-0.9-0.4-0.9-0.9c0-0.5,0.4-0.9,0.9-0.9c0.5,0,0.9,0.4,0.9,0.9C14.2,6.4,13.9,6.8,13.4,6.8z
				 M13.4,5c-0.5,0-0.9,0.4-0.9,0.9c0,0.5,0.4,0.9,0.9,0.9c0.5,0,0.9-0.4,0.9-0.9C14.2,5.4,13.8,5,13.4,5z"/>
		</g>
		<g>
			<circle class="st2" cx="20.1" cy="0.6" r="0.6"/>
			<path class="st2" d="M20.1,1.2c-0.3,0-0.6-0.3-0.6-0.6S19.8,0,20.1,0s0.6,0.3,0.6,0.6S20.5,1.2,20.1,1.2z M20.1,0
				c-0.3,0-0.6,0.3-0.6,0.6s0.3,0.6,0.6,0.6s0.6-0.3,0.6-0.6S20.5,0,20.1,0z"/>
		</g>
		<g>
			<circle class="st2" cx="16.7" cy="10.5" r="0.3"/>
			<path class="st2" d="M16.7,10.9c-0.2,0-0.3-0.2-0.3-0.3c0-0.2,0.2-0.3,0.3-0.3s0.3,0.2,0.3,0.3C17,10.7,16.9,10.9,16.7,10.9z
				 M16.7,10.2c-0.2,0-0.3,0.1-0.3,0.3c0,0.2,0.1,0.3,0.3,0.3c0.2,0,0.3-0.1,0.3-0.3C17,10.4,16.8,10.2,16.7,10.2z"/>
		</g>
		<g>
			<circle class="st2" cx="20.6" cy="10.6" r="0.8"/>
			<path class="st2" d="M20.6,11.3c-0.4,0-0.8-0.3-0.8-0.8c0-0.4,0.3-0.8,0.8-0.8s0.8,0.3,0.8,0.8C21.4,11,21,11.3,20.6,11.3z
				 M20.6,9.8c-0.4,0-0.7,0.3-0.7,0.7c0,0.4,0.3,0.7,0.7,0.7s0.7-0.3,0.7-0.7C21.4,10.2,21,9.8,20.6,9.8z"/>
		</g>
		<g>
			<circle class="st2" cx="27" cy="5.9" r="0.8"/>
			<path class="st2" d="M27,6.7c-0.4,0-0.8-0.3-0.8-0.8c0-0.4,0.3-0.8,0.8-0.8c0.4,0,0.8,0.3,0.8,0.8C27.7,6.3,27.4,6.7,27,6.7z
				 M27,5.2c-0.4,0-0.7,0.3-0.7,0.7s0.3,0.7,0.7,0.7c0.4,0,0.7-0.3,0.7-0.7S27.4,5.2,27,5.2z"/>
		</g>
	</g>
	<g>
		<path class="st3" d="M10.6,8.6H9.1L8.9,9.4H7.7L9.4,5h1.1L12,9.4h-1.1L10.6,8.6z M9.4,7.8h0.9L9.9,6.2L9.4,7.8z"/>
	</g>
	<g>
		<path class="st3" d="M12.7,8l0.5-1.8h1.1L13,9.9l-0.1,0.1c-0.2,0.4-0.5,0.6-1,0.6c-0.1,0-0.3,0-0.4-0.1V9.9h0.1
			c0.1,0,0.3,0,0.3-0.1c0.1,0,0.1-0.1,0.2-0.2l0.1-0.2l-1.1-3.3h1.1L12.7,8z"/>
	</g>
	<g>
		<path class="st3" d="M15.4,9.4h-1V6.1h1v2.3c0.1,0.2,0.3,0.3,0.5,0.3c0.3,0,0.4-0.1,0.4-0.4V6.1h1v2.1c0,0.4-0.1,0.7-0.3,0.9
			c-0.2,0.2-0.5,0.3-0.8,0.3c-0.4,0-0.7-0.1-0.9-0.4L15.4,9.4z"/>
	</g>
	<g>
		<path class="st3" d="M17.5,7.7c0-0.5,0.1-0.9,0.3-1.2c0.2-0.3,0.5-0.4,0.9-0.4c0.3,0,0.5,0.1,0.7,0.3V4.8h1v4.6h-0.9L19.6,9
			c-0.2,0.3-0.5,0.4-0.8,0.4c-0.4,0-0.7-0.1-0.9-0.4C17.6,8.7,17.5,8.3,17.5,7.7z M18.5,7.8c0,0.6,0.2,0.9,0.5,0.9
			c0.2,0,0.4-0.1,0.5-0.3V7.1c-0.1-0.2-0.3-0.3-0.5-0.3c-0.3,0-0.5,0.3-0.5,0.8L18.5,7.8z"/>
	</g>
	<g>
		<path class="st4" d="M24.8,6.1v3.3h-1V7.1c-0.1-0.2-0.2-0.2-0.4-0.2c-0.2,0-0.3,0-0.4,0.1c-0.1,0.1-0.1,0.2-0.1,0.4v2.1h-1V7.3
			c0-0.4,0.1-0.7,0.3-0.9c0.2-0.2,0.4-0.3,0.8-0.3c0.4,0,0.7,0.1,0.9,0.4l0-0.4H24.8z"/>
	</g>
	<g>
		<path class="st4" d="M24.9,7.7c0-0.3,0.1-0.6,0.2-0.9c0.1-0.3,0.3-0.5,0.5-0.6c0.2-0.1,0.4-0.2,0.7-0.2c0.3,0,0.6,0.1,0.8,0.3
			l0-0.3H28v3.1c0,0.3-0.1,0.5-0.2,0.8c-0.1,0.2-0.3,0.4-0.6,0.5c-0.3,0.1-0.5,0.2-0.9,0.2c-0.2,0-0.5,0-0.7-0.1
			c-0.2-0.1-0.4-0.2-0.5-0.4l0.4-0.6c0.2,0.2,0.4,0.3,0.8,0.3c0.5,0,0.7-0.2,0.7-0.7V9.1c-0.2,0.2-0.4,0.3-0.7,0.3
			c-0.4,0-0.7-0.2-1-0.5C25,8.7,24.9,8.3,24.9,7.7L24.9,7.7z M25.9,7.8c0,0.3,0.1,0.5,0.2,0.6c0.1,0.2,0.2,0.2,0.4,0.2
			c0.2,0,0.4-0.1,0.5-0.2V7.1c-0.1-0.1-0.3-0.2-0.5-0.2c-0.2,0-0.3,0.1-0.4,0.2C26,7.3,25.9,7.5,25.9,7.8z"/>
	</g>
	<g>
		<path class="st4" d="M30.1,9.4c0-0.1-0.1-0.2-0.1-0.3c-0.2,0.2-0.4,0.4-0.8,0.4c-0.3,0-0.6-0.1-0.8-0.3c-0.2-0.2-0.3-0.4-0.3-0.7
			c0-0.4,0.1-0.6,0.4-0.8c0.3-0.2,0.6-0.3,1.1-0.3H30V7.2c0-0.3-0.1-0.5-0.4-0.5c-0.2,0-0.4,0.1-0.4,0.4h-1c0-0.3,0.1-0.6,0.4-0.8
			c0.3-0.2,0.6-0.3,1-0.3c0.4,0,0.7,0.1,1,0.3C30.9,6.6,31,6.8,31,6.8v1.4c0,0.7,0.1,0.9,0.1,1.1v0.1H30.1z M29.5,8.7
			c0.1,0,0.2,0,0.3-0.1c0.1-0.1,0.1-0.1,0.2-0.2V7.9h-0.3c-0.4,0-0.5,0.2-0.5,0.5c0,0.1,0,0.2,0.1,0.2C29.3,8.7,29.4,8.7,29.5,8.7z"
			/>
	</g>
	<g>
		<g>
			<path class="st4" d="M5.2,1.9H2.8H0.5C0.4,1.9,0.2,2,0.1,2.1C0.1,2.2,0,2.3,0,2.4v2.3v2.5c0,0.5,0.2,1.9,2.1,1.9
				c0.2,0,0.3,0,0.4,0h2c1.5,0,2.3,1,2.6,1.6c0.1,0.1,0.2,0.1,0.2,0V8.6V8.1V6.3V3.6c0,0,0,0,0,0C7.1,1.8,5.2,1.9,5.2,1.9z M5.8,7.7
				C5.8,7.7,5.8,7.7,5.8,7.7C5.2,7.8,2.4,8,1.8,6.9c-0.6-1-0.4-3.1-0.4-3.5c0-0.1,0-0.1,0.1-0.1C2,3.3,4.8,3.2,5.4,4
				C5.9,4.7,5.8,7.2,5.8,7.7z"/>
		</g>
		<g>
			<path class="st4" d="M2.7,5.3c0,0.3,0.2,0.4,0.3,0.4c0.2,0,0.3-0.3,0.3-0.8c0-0.2,0-0.4-0.1-0.6c0,0,0,0,0,0
				C3.1,4.3,3.1,4.2,3,4.2c0,0,0,0,0,0c0,0,0,0,0,0c-0.1,0-0.1,0.1-0.2,0.2c0,0,0,0,0,0C2.7,4.5,2.7,4.7,2.7,4.9
				C2.7,5.1,2.7,5.2,2.7,5.3C2.7,5.3,2.7,5.3,2.7,5.3z"/>
		</g>
		<g>
			<path class="st4" d="M4.4,6.1C4.4,6.1,4.4,6.1,4.4,6.1c-0.2-0.1-0.5,0-0.8,0c-0.4,0-0.7-0.1-0.9,0c-0.1,0.1,0,0.5,0.4,0.7
				c0,0,0,0,0,0c0.1,0.1,0.3,0.1,0.5,0.1C4.2,6.9,4.6,6.3,4.4,6.1C4.4,6.1,4.4,6.1,4.4,6.1z"/>
		</g>
		<g>
			<ellipse class="st4" cx="4.1" cy="4.9" rx="0.3" ry="0.8"/>
		</g>
	</g>
	<g>
		<g>
			<path class="st4" d="M21.7,7.7V6.5c0-0.3-0.2-0.5-0.5-0.5l0,0c-0.3,0-0.5,0.2-0.5,0.5v1.6L21.7,7.7z"/>
		</g>
		<g>
			<path class="st4" d="M20.7,9.3c0,0.3,0.2,0.5,0.5,0.5l0,0c0.3,0,0.5-0.2,0.5-0.5V7.9l-0.9,0.4V9.3z"/>
		</g>
	</g>
	<g>
		<g>
			<path class="st4" d="M29.2,9.9c0,0,0,0.1,0,0.1c0,0-0.1,0-0.1,0c0,0-0.1,0-0.1-0.1c-0.1,0-0.1-0.1-0.2-0.1c-0.1,0-0.2,0-0.2,0.1
				c-0.1,0.1-0.1,0.1-0.1,0.2c0,0.1,0,0.2,0.1,0.2c0.1,0.1,0.1,0.1,0.2,0.1c0.1,0,0.1,0,0.2-0.1c0,0,0.1,0,0.1,0c0,0,0.1,0,0.1,0
				c0,0,0,0.1,0,0.1c0,0,0,0.1-0.1,0.1C29,10.9,28.9,11,28.7,11c-0.1,0-0.2,0-0.3-0.1c-0.1-0.1-0.2-0.1-0.2-0.3s-0.1-0.2-0.1-0.4
				c0-0.1,0-0.2,0.1-0.4c0.1-0.1,0.1-0.2,0.2-0.3c0.1-0.1,0.2-0.1,0.3-0.1c0.2,0,0.3,0.1,0.4,0.2v0C29.1,9.8,29.2,9.9,29.2,9.9z"/>
		</g>
		<g>
			<path class="st4" d="M29.4,9.8c0.1-0.1,0.3-0.2,0.4-0.2c0.2,0,0.3,0.1,0.4,0.2c0.1,0.1,0.2,0.3,0.2,0.5c0,0.2-0.1,0.4-0.2,0.5
				C30.2,10.9,30,11,29.8,11c-0.2,0-0.3-0.1-0.4-0.2c-0.1-0.1-0.2-0.3-0.2-0.5C29.2,10.1,29.3,9.9,29.4,9.8z M29.6,10.5
				c0.1,0.1,0.1,0.1,0.2,0.1s0.2,0,0.2-0.1c0.1-0.1,0.1-0.1,0.1-0.2c0-0.1,0-0.2-0.1-0.2C30,10,29.9,10,29.8,10s-0.2,0-0.2,0.1
				c-0.1,0.1-0.1,0.1-0.1,0.2C29.6,10.4,29.6,10.5,29.6,10.5z"/>
		</g>
		<g>
			<path class="st4" d="M31.7,10c0,0.1,0,0.2-0.1,0.2c-0.1,0.1-0.1,0.1-0.2,0.2l0.1,0.3c0,0,0,0,0,0c0,0,0,0,0,0c0,0,0,0,0,0
				c0,0,0,0.1-0.1,0.1c0,0-0.1,0.1-0.1,0.1c-0.1,0-0.1,0-0.1-0.1h0c0,0,0,0,0,0L31,10.5h-0.2v0.4c0,0,0,0.1,0,0.1c0,0-0.1,0-0.1,0
				c0,0-0.1,0-0.1,0c0,0,0-0.1,0-0.1c0,0,0,0,0,0c0,0,0,0,0,0V9.8h0c0,0,0-0.1,0.1-0.1c0,0,0.1,0,0.1,0v0h0.5v0c0,0,0,0,0,0
				c0,0,0,0,0,0c0.1,0,0.2,0,0.3,0.1C31.6,9.8,31.7,9.9,31.7,10z M31.2,10.2C31.3,10.2,31.3,10.1,31.2,10.2c0.1-0.1,0.1-0.1,0.1-0.1
				c0,0,0-0.1,0-0.1c0,0,0,0-0.1,0h0v0h-0.4v0.2H31.2L31.2,10.2L31.2,10.2z"/>
		</g>
		<g>
			<path class="st4" d="M32.5,9.9L32.5,9.9L32.5,9.9l-0.5,0v0.2h0.4c0,0,0.1,0,0.1,0c0,0,0,0.1,0,0.1c0,0,0,0.1,0,0.1
				c0,0-0.1,0-0.1,0h-0.4v0.2h0.4v0c0,0,0.1,0,0.1,0.1c0,0,0,0.1,0,0.1c0,0,0,0.1,0,0.1c0,0-0.1,0-0.1,0h-0.6v0c0,0-0.1,0-0.1-0.1
				c0,0,0-0.1,0-0.1h0V9.7c0,0,0-0.1,0-0.1c0,0,0.1,0,0.1,0h0.6c0,0,0.1,0,0.1,0c0,0,0,0.1,0,0.1c0,0,0,0.1,0,0.1
				C32.6,9.9,32.6,9.9,32.5,9.9z"/>
		</g>
	</g>
</g>
</svg>
