<svg xmlns="http://www.w3.org/2000/svg" xmlns:xlink="http://www.w3.org/1999/xlink" viewBox="10049 -16 322.924 151.5">
  <defs>
    <style>
      .cls-1 {
        fill: url(#linear-gradient);
      }

      .cls-2 {
        fill: url(#linear-gradient-2);
      }

      .cls-3 {
        fill: #89e126;
      }

      .cls-4 {
        fill: #2d92ba;
      }

      .cls-5 {
        fill: #2c3e4f;
      }
    </style>
    <linearGradient id="linear-gradient" y1="0.499" x2="1" y2="0.499" gradientUnits="objectBoundingBox">
      <stop offset="0" stop-color="#fff33b"/>
      <stop offset="0.04" stop-color="#fee72e"/>
      <stop offset="0.117" stop-color="#fed51b"/>
      <stop offset="0.196" stop-color="#fdca10"/>
      <stop offset="0.281" stop-color="#fdc70c"/>
      <stop offset="0.669" stop-color="#f3903f"/>
      <stop offset="0.888" stop-color="#ed683c"/>
      <stop offset="1" stop-color="#e93e3a"/>
    </linearGradient>
    <linearGradient id="linear-gradient-2" x1="0" y1="0.5" x2="1.001" y2="0.5" xlink:href="#linear-gradient"/>
  </defs>
  <g id="Group_1420" data-name="Group 1420" transform="translate(10048.901 -16)">
    <g id="Group_1393" data-name="Group 1393" transform="translate(122.191 1.32)">
      <g id="Group_1392" data-name="Group 1392">
        <g id="Group_1391" data-name="Group 1391">
          <path id="Path_8381" data-name="Path 8381" class="cls-1" d="M384.328,28.046c4.491-.785,8.807-1.744,13.166-2.267a18.407,18.407,0,0,1,6.54.523c5.755,1.4,8.545,4.883,8.981,10.812A27.717,27.717,0,0,1,411.358,47.8c-.349,1-.131,1.482.741,2.136,2.485,1.831,4.927,3.837,7.455,5.8,4.011-2.093,6.888-1.787,8.807,1.09,1.875,2.79,1.177,5.8-2.005,8.458.523,1.352,1.046,2.747,1.526,4.185,2.354,7.106,1.046,13.777-2.572,20.1-4.534,7.891-11.335,13.515-19.226,17.788-4.272,2.311-8.85,4.055-13.341,5.973a1.818,1.818,0,0,0-1.351,1.657,44.174,44.174,0,0,1-6.1,18.485c-5.188,8.283-12.948,10.943-22.1,7.542a1.638,1.638,0,0,0-2.311.741,34.606,34.606,0,0,1-11.2,9.809c-6.147,3.27-11.379,2.4-16.087-2.747-3.313-3.575-5.188-7.935-6.714-12.469-1-3.008-1.788-6.06-2.7-9.243-.349.087-.785.218-1.264.349-4.708,1.351-9.417,2.572-14.387,1.918-3.575-.48-6.976-1.352-9.33-4.4a13.179,13.179,0,0,1-2.572-8.065,26.411,26.411,0,0,1,1.7-9.548,1.6,1.6,0,0,0-.7-2.223,50.512,50.512,0,0,1-11.335-10.638c-6.627-8.85-7.368-18.311-2.572-28.207a2.329,2.329,0,0,0-.087-2.485,7.917,7.917,0,0,1,1.177-9.373,8.067,8.067,0,0,1,9.417-1.744,1.375,1.375,0,0,0,1.657-.044,79.124,79.124,0,0,1,21.8-11.292,1.833,1.833,0,0,0,.785-1.308,44.507,44.507,0,0,1,4.272-15.346,29.714,29.714,0,0,1,4.4-6.627c5.362-5.8,11.946-6.758,19.226-4.142,1.918.7,1.918.7,3.27-.828a8.12,8.12,0,0,1,1-1.134,3.545,3.545,0,0,0,1.352-3.531,3.966,3.966,0,0,1,2.4-4.185,4.652,4.652,0,0,1,4.752.174,2.136,2.136,0,0,0,1.526.262c5.58-2.136,10.376-.872,14.518,3.313,3.706,3.706,5.711,8.371,7.281,13.254C383.151,23.468,383.761,25.91,384.328,28.046ZM364.012,100.9c1.4.654,1.439.7,2.223,0q7.39-6.54,14.736-13.123a2.735,2.735,0,0,0,.785-1.482c.828-5.057,1.526-10.115,2.354-15.172a8.758,8.758,0,0,0-.48-4.491c-3.531-9.809-7.411-19.488-13.166-28.295a1.42,1.42,0,0,0-2.223-.567c-14.91,7.935-28.077,18.224-40.109,29.995a2.433,2.433,0,0,0-.7,1.264c-.828,4.752-1.613,9.5-2.354,14.3a3.177,3.177,0,0,0,.131,1.569A123.908,123.908,0,0,0,339.2,116.33c1,1.569,1.875,1.831,3.531.828,4.4-2.747,8.719-5.537,13.079-8.283.654-.392.61-.828.48-1.439a5.419,5.419,0,0,1,2.18-5.624A5.211,5.211,0,0,1,364.012,100.9Zm27.946,11.117c9.679-3.488,18.7-7.978,26.071-15.39a33.043,33.043,0,0,0,8.981-15.215c1.439-5.537.131-10.681-2.093-15.695-5.144.567-8.24-3.183-6.758-7.935.087-.349.087-.916-.131-1.09-2.4-2.136-4.883-4.229-7.455-6.409-.349.785-.523,1.177-.741,1.569-2.18,4.011-4.011,8.24-6.583,11.9-4.011,5.711-8.545,11.074-12.861,16.567a2.728,2.728,0,0,0-.654,2.223c.785,5.842,1.569,11.64,2.049,17.482C392.175,103.992,391.914,107.96,391.957,112.014ZM296.436,53.943c2.965,5.188,2.965,8.458-.044,11.553-2.79,2.877-6.365,3.1-10.987.61-.087.087-.174.131-.218.262-3.4,6.54-4.185,13.3-1.613,20.273,2.049,5.493,5.842,9.722,10.245,13.515,1.744,1.482,3.531,2.877,5.406,4.36.262-.61.436-.959.61-1.352,1.134-2.267,2.136-4.621,3.4-6.8a155.06,155.06,0,0,1,16.262-22.1,2.088,2.088,0,0,0,.567-2.005,99.292,99.292,0,0,1-2.18-21.842c0-2.572.131-5.1.174-7.717C313.439,43.567,300.1,50.5,296.436,53.943Zm28.687,72.938c1.09,3.575,2.093,7.324,3.4,10.943A28.5,28.5,0,0,0,335.15,148.9c3.706,3.619,7.848,4.447,12.6,2.311,5.232-2.311,9.243-6.147,12.643-10.681.131-.131.131-.349.218-.567-8.807-4.491-15.259-11.379-20.621-19.226C335.107,122.739,330.311,124.744,325.123,126.881ZM360.567,5.811c.959,2.616.654,4.621-1.133,5.973-2.4,1.831-4.665,1.308-6.8-.7-1.134,1.308-2.223,2.529-3.4,3.88A40.107,40.107,0,0,1,360.916,23.6c3.313,3.488,6.322,7.237,9.461,10.856,4.142-1.875,8.5-3.88,12.948-5.929-.349-1.439-.61-2.965-1.09-4.491-.828-2.572-1.7-5.144-2.7-7.673a23.465,23.465,0,0,0-5.973-8.676A11.612,11.612,0,0,0,360.567,5.811Zm25.417,34.4a128.223,128.223,0,0,1-.087,23.15,15.485,15.485,0,0,0,.916,7.455,38.758,38.758,0,0,1,1.134,3.837c.392,1.439.785,2.921,1.221,4.578,7.978-9.155,15.346-18.4,19.793-29.69A75.417,75.417,0,0,0,385.984,40.21Zm-63.7,63c.305-4.491.654-8.894.959-13.3.087-1.352.567-2.79.262-4.1-.741-3.4-1.831-6.714-2.834-10.2a8.209,8.209,0,0,0-.872.916c-2.834,3.575-5.711,7.063-8.414,10.725-3.662,4.97-7.193,10.027-9.635,15.739-1.177,2.747-1.613,2.223,1.264,3.793a91.15,91.15,0,0,0,16.131,6.67c1.134.349,2.267.654,3.531,1.046-.087-1.918-.174-3.706-.262-5.45-1.962-.523-2.877-1.439-2.877-2.921C319.586,104.733,320.458,103.774,322.289,103.207Zm24.72-87.325c-.7-.262-1.264-.48-1.831-.7-7.412-2.529-13.951-.436-18.485,5.886a34.226,34.226,0,0,0-5.057,11.379c-.7,2.572-1.09,5.232-1.657,8.022.48-.087.654-.087.828-.131,4.8-1.177,9.548-2.311,14.3-3.531a2.133,2.133,0,0,0,1.177-1.046c2.136-4.185,4.142-8.458,6.322-12.643C343.913,20.722,345.483,18.411,347.009,15.882Zm42.943,98.442c-.523.131-.741.174-.916.218-4.708,1.09-9.373,2.267-14.082,3.313a2.035,2.035,0,0,0-1.657,1.4,114.74,114.74,0,0,1-9.591,18.529c-.262.392-.48.828-.741,1.221a1.594,1.594,0,0,0,.436.305c.654.218,1.308.523,2.005.7,6.147,1.569,11.64.654,16.087-4.273,3.4-3.749,5.319-8.24,6.67-12.992C388.862,119.992,389.3,117.246,389.952,114.325Zm-24.24-77.036c-.262-.174-.349-.262-.392-.262a127.084,127.084,0,0,0-27.9,1,1.8,1.8,0,0,0-1.221.959c-2.005,5.8-4.055,11.553-5.886,17.4-.872,2.747-1.352,5.624-2.049,8.414C339.771,54.291,351.8,44.613,365.712,37.289ZM409.483,48.1a28.556,28.556,0,0,0,1.875-10.463c-.262-5.144-2.223-7.935-6.888-9.461a16.518,16.518,0,0,0-4.142-.741c-4.316-.262-8.458.741-12.556,1.831-1.046.262-2.049.61-3.052.872.349,2.7.7,5.232,1,7.717.087.654.349.872,1,1a79.768,79.768,0,0,1,19.488,7.368C407.216,46.836,408.263,47.4,409.483,48.1ZM300.229,106.87c-1.482,4.229-2.485,8.371-1.569,12.73a8.71,8.71,0,0,0,5.929,6.976c6.67,2.311,13.036.523,19.357-1.4-.349-2.921-.654-5.711-1.046-8.458a1.4,1.4,0,0,0-.872-.916,110.538,110.538,0,0,1-17.177-6.54C303.368,108.57,301.886,107.742,300.229,106.87Zm36.8-70.322a138.371,138.371,0,0,1,31.434-.872,34.945,34.945,0,0,0-2.485-3.749,55,55,0,0,0-16.436-14.954c-1.09-.61-1.7-.523-2.311.523-2.877,5.232-5.8,10.42-8.676,15.651C338.028,34.193,337.635,35.24,337.025,36.547Zm4.316,83.053c5.58,8.022,11.815,14.736,20.491,19.008a114.545,114.545,0,0,0,10.638-20.185c-.305-.044-.392-.087-.48-.087a127.057,127.057,0,0,1-28.774.959A6.887,6.887,0,0,0,341.341,119.6ZM381.1,90.215c-5.014,4.4-9.679,8.545-14.387,12.643,1.526,3.488,1.221,6.1-1.221,7.891a7.506,7.506,0,0,1-3.313,1.264c-2.005.305-3.575-.785-4.926-2.093-4.1,2.659-8.153,5.275-12.294,7.978.392.044.61.087.785.087a130.453,130.453,0,0,0,26.071-1.09,2,2,0,0,0,1.875-1.613c1.831-5.8,3.749-11.6,5.537-17.4C379.968,95.491,380.448,93.006,381.1,90.215Zm-6.627,26.071a.58.58,0,0,0,.305.131c4.839-1.134,9.635-2.267,14.474-3.488a1.569,1.569,0,0,0,.785-1.134,102.444,102.444,0,0,0-.654-21.319c-.262-2.441-.741-4.839-1.134-7.455-1.875,1.875-3.531,3.531-5.144,5.275a3.532,3.532,0,0,0-.872,1.7c-1.787,6.452-3.488,12.948-5.319,19.4C376.175,111.709,375.3,113.976,374.475,116.287Zm-52.8-44.513c1.613-1.657,3.1-3.1,4.447-4.578a3.821,3.821,0,0,0,.916-1.7,140.616,140.616,0,0,1,5.929-21.014c.785-2.005,1.482-4.011,2.267-6.147-.567.087-.915.131-1.264.218-4.272,1.046-8.545,2.18-12.861,3.183a1.363,1.363,0,0,0-1.221,1.482,112.4,112.4,0,0,0,.654,21.319C320.85,66.891,321.286,69.2,321.679,71.774ZM324.6,88.908c-.131.131-.218.218-.218.262-.305,4.534-.61,9.068-.872,13.6a1.734,1.734,0,0,0,.523,1c1.657,1.352,1.657,3.226.044,4.708a1.513,1.513,0,0,0-.523,1c0,1.482.131,3.008.174,4.491a.907.907,0,0,0,.916,1.046c1.657.305,3.27.741,4.883,1.046,2.616.436,5.232.828,8.153,1.264A125.819,125.819,0,0,1,324.6,88.908ZM372.426,37.55c-.044.131-.087.305-.131.436,5.319,8.2,9.025,17.177,12.469,26.289a73.9,73.9,0,0,0,.523-7.586c0-5.232-.131-10.463-.305-15.695,0-.392-.305-1.09-.567-1.177C380.4,38.989,376.393,38.291,372.426,37.55Zm-47.434,87.543c4.8-2.005,9.33-3.88,13.907-5.8a.808.808,0,0,1-.087-.305c-4.883-.828-9.766-1.657-14.823-2.485C324.294,119.208,324.6,121.954,324.992,125.093Zm58.682-94.824c-4.185,1.918-8.2,3.749-12.469,5.711,4.752.785,9.112,1.482,13.559,2.223C384.415,35.675,384.066,33.147,383.674,30.269Zm-.654,55.586a12.39,12.39,0,0,1,1.7-1.7c2.747-2.049,3.313-4.534,1.962-7.673a36.1,36.1,0,0,1-1.352-4.839c-.087,0-.131.044-.218.044C384.459,76.308,383.761,80.886,383.02,85.856ZM326.082,69.725a23.678,23.678,0,0,1-2.049,2.093,3.767,3.767,0,0,0-1.308,4.8,38.509,38.509,0,0,1,1.221,4.534c.044,0,.131-.044.174-.044C324.818,77.4,325.428,73.692,326.082,69.725Z" transform="translate(-280.412 -3.382)"/>
          <path id="Path_8382" data-name="Path 8382" class="cls-2" d="M342.557,153.207c-3.4,0-6.5-1.57-9.373-4.708-3.444-3.749-5.362-8.458-6.758-12.512-.7-2.049-1.264-4.142-1.875-6.322-.262-.916-.523-1.875-.785-2.79l-.174.044c-.262.087-.61.174-.916.262-5.014,1.439-9.591,2.572-14.474,1.918-3.444-.48-6.976-1.308-9.461-4.447a13.578,13.578,0,0,1-2.616-8.153,25.96,25.96,0,0,1,1.7-9.591,1.466,1.466,0,0,0-.61-2.049,51.265,51.265,0,0,1-11.379-10.681c-6.583-8.807-7.455-18.354-2.616-28.382a2.107,2.107,0,0,0-.087-2.354,8.062,8.062,0,0,1,1.177-9.548,8.208,8.208,0,0,1,9.591-1.787,1.245,1.245,0,0,0,1.526-.044c7.891-5.537,14.823-9.155,21.842-11.335.305-.087.61-.741.654-1.177a43.563,43.563,0,0,1,4.316-15.39,30.971,30.971,0,0,1,4.4-6.67c5.1-5.537,11.64-6.976,19.4-4.185l.044.044c1.788.61,1.788.61,3.008-.828.087-.087.174-.218.262-.305a6.7,6.7,0,0,1,.741-.828,3.3,3.3,0,0,0,1.264-3.4,4.069,4.069,0,0,1,2.485-4.36,4.682,4.682,0,0,1,4.927.218,1.785,1.785,0,0,0,1.4.218c5.493-2.093,10.42-.959,14.692,3.313,3.967,4.011,5.929,8.981,7.324,13.3.523,1.657.959,3.313,1.4,4.926.174.654.349,1.264.523,1.875,1.264-.218,2.529-.48,3.749-.7,3.183-.61,6.191-1.177,9.286-1.569a19.442,19.442,0,0,1,6.583.523c5.755,1.4,8.676,4.883,9.112,10.943a27.436,27.436,0,0,1-1.7,10.725,1.436,1.436,0,0,0,.654,1.962c1.787,1.308,3.488,2.7,5.319,4.142.7.523,1.352,1.09,2.049,1.613,4.055-2.093,6.976-1.7,8.937,1.177,1.918,2.834,1.221,5.886-1.962,8.589.131.392.305.785.436,1.177.349.916.741,1.918,1.046,2.877,2.223,6.714,1.4,13.3-2.572,20.185-4.142,7.237-10.463,13.036-19.27,17.831-3.226,1.744-6.67,3.183-9.984,4.578-1.134.48-2.267.959-3.357,1.439-.785.349-1.133.61-1.221,1.526a42.772,42.772,0,0,1-6.147,18.529c-5.232,8.283-13.123,10.986-22.322,7.63-1.09-.392-1.482-.174-2.136.654a33.738,33.738,0,0,1-11.248,9.853A13.161,13.161,0,0,1,342.557,153.207Zm-18.572-26.769.044.131c.305,1,.567,1.962.828,2.965.61,2.18,1.177,4.229,1.875,6.278,1.4,4.055,3.27,8.676,6.67,12.425,4.665,5.057,9.853,5.929,15.913,2.7a34.1,34.1,0,0,0,11.161-9.766,1.823,1.823,0,0,1,2.485-.785c9.155,3.357,16.741.785,21.929-7.5a42.949,42.949,0,0,0,6.1-18.4,1.962,1.962,0,0,1,1.439-1.787c1.133-.48,2.267-.959,3.357-1.439,3.313-1.4,6.758-2.834,9.94-4.534,8.763-4.752,15.041-10.551,19.139-17.7,3.924-6.8,4.752-13.341,2.529-19.967-.305-.959-.7-1.918-1.046-2.877-.174-.436-.349-.872-.48-1.308l-.044-.087.087-.087c3.1-2.572,3.837-5.493,2.005-8.24-1.875-2.79-4.621-3.139-8.589-1.046l-.087.044-.087-.044c-.7-.567-1.439-1.134-2.136-1.7-1.788-1.439-3.531-2.79-5.319-4.142a1.722,1.722,0,0,1-.785-2.311,27.842,27.842,0,0,0,1.657-10.638c-.436-5.929-3.27-9.33-8.894-10.681a17.842,17.842,0,0,0-6.5-.48c-3.1.392-6.06.959-9.243,1.569-1.308.262-2.616.48-3.924.741l-.131.044-.044-.131c-.174-.654-.349-1.352-.523-2.049-.436-1.613-.872-3.27-1.4-4.926-1.352-4.316-3.313-9.243-7.237-13.166-4.185-4.185-9.025-5.275-14.343-3.27a2.226,2.226,0,0,1-1.657-.262,4.417,4.417,0,0,0-4.621-.174,3.8,3.8,0,0,0-2.311,4.011,3.672,3.672,0,0,1-1.4,3.662c-.262.218-.48.523-.741.785-.087.087-.174.218-.262.305-1.352,1.569-1.439,1.613-3.357.916l-.044-.044c-7.63-2.7-14.038-1.352-19.052,4.1a28.669,28.669,0,0,0-4.36,6.583,44.965,44.965,0,0,0-4.273,15.3,1.923,1.923,0,0,1-.916,1.439c-6.976,2.18-13.864,5.755-21.755,11.292a1.578,1.578,0,0,1-1.831.087,7.939,7.939,0,0,0-9.243,1.7,7.73,7.73,0,0,0-1.177,9.2,2.45,2.45,0,0,1,.087,2.659c-4.8,9.94-3.924,19.357,2.572,28.077a50.817,50.817,0,0,0,11.335,10.594,1.734,1.734,0,0,1,.741,2.4,25.675,25.675,0,0,0-1.7,9.5,13,13,0,0,0,2.529,7.978c2.4,3.052,5.842,3.88,9.243,4.36,4.839.654,9.33-.48,14.343-1.918.305-.087.654-.174.916-.262Zm18.572,25.722a10.914,10.914,0,0,1-7.76-3.531,27.973,27.973,0,0,1-6.67-11.117c-.915-2.529-1.657-5.144-2.4-7.673-.305-1.09-.654-2.223-.959-3.27l-.044-.131,15.128-6.278.087.087c6.234,9.112,12.774,15.215,20.578,19.183l.131.044-.044.131c-.044.087-.044.131-.087.218a1.078,1.078,0,0,1-.174.392c-3.837,5.144-7.978,8.632-12.73,10.725A12.066,12.066,0,0,1,342.557,152.161Zm-17.483-25.548c.305,1.046.61,2.093.959,3.139.741,2.529,1.482,5.1,2.4,7.629,1.744,4.839,3.837,8.327,6.583,10.986,3.706,3.619,7.8,4.36,12.425,2.311,4.665-2.093,8.807-5.58,12.6-10.638a2.122,2.122,0,0,0,.131-.305c0-.044,0-.044.044-.087-7.76-4.011-14.256-10.071-20.491-19.139Zm45.21,13.777a20.592,20.592,0,0,1-5.232-.7c-.523-.131-1-.305-1.526-.48-.174-.044-.349-.131-.523-.174a.914.914,0,0,1-.262-.174.951.951,0,0,0-.218-.131l-.131-.087.305-.523c.174-.305.349-.567.523-.828a118.3,118.3,0,0,0,9.591-18.485,2.18,2.18,0,0,1,1.788-1.482c3.488-.785,7.019-1.613,10.463-2.441,1.221-.305,2.441-.567,3.662-.872a3.772,3.772,0,0,1,.436-.087l.741-.174-.044.218c-.218.916-.392,1.831-.567,2.7-.392,1.962-.741,3.793-1.264,5.624-1.613,5.668-3.749,9.809-6.714,13.079A14.276,14.276,0,0,1,370.285,140.39Zm-7.412-1.875c.044.044.044.044.087.044a.6.6,0,0,1,.174.131c.174.044.349.131.523.174a14.757,14.757,0,0,0,1.482.48c6.627,1.7,11.815.305,15.913-4.229,2.921-3.226,5.014-7.324,6.627-12.948.523-1.787.872-3.662,1.264-5.58.174-.828.305-1.613.523-2.485l-.262.044a2.211,2.211,0,0,1-.392.087c-1.221.305-2.441.567-3.662.872-3.4.828-6.975,1.657-10.463,2.441a1.9,1.9,0,0,0-1.569,1.264,115.2,115.2,0,0,1-9.591,18.529c-.174.262-.349.567-.523.828Zm-1.221-.087-.131-.044c-7.673-3.793-14.038-9.635-20.578-19.052l-.131-.218.218-.044c.262-.044.523-.131.741-.174a4.053,4.053,0,0,1,1.177-.174,126.894,126.894,0,0,0,28.731-.959.648.648,0,0,1,.262.044,1.54,1.54,0,0,0,.262.044l.174.044-.087.174A112.09,112.09,0,0,1,361.653,138.3Zm-20.316-19.1c6.409,9.2,12.643,14.954,20.186,18.66a112.548,112.548,0,0,0,10.463-19.88H371.9a.191.191,0,0,1-.131-.044,125.18,125.18,0,0,1-28.818.959,2.679,2.679,0,0,0-1.09.174A1.161,1.161,0,0,1,341.336,119.332Zm-30.3,8.2a20.658,20.658,0,0,1-6.758-1.09,8.824,8.824,0,0,1-6.016-7.106c-.959-4.665.262-9.112,1.57-12.818l.044-.174.174.087a17.014,17.014,0,0,1,1.526.828c1.09.567,2.093,1.09,3.1,1.613a110.82,110.82,0,0,0,17.134,6.54,1.7,1.7,0,0,1,1,1.046c.305,2.093.523,4.185.785,6.409.087.654.174,1.352.218,2.049v.131l-.131.044C319.8,126.221,315.527,127.529,311.036,127.529ZM300.05,106.776c-1.264,3.619-2.441,7.935-1.526,12.469a8.536,8.536,0,0,0,5.842,6.845c6.8,2.354,13.341.392,19.139-1.352-.087-.654-.131-1.264-.218-1.918-.262-2.223-.48-4.316-.785-6.409a1.31,1.31,0,0,0-.741-.785,111.412,111.412,0,0,1-17.177-6.54c-1.046-.523-2.049-1.046-3.139-1.613C300.965,107.256,300.529,106.994,300.05,106.776Zm24.545,18.18-1.09-9.025,15.128,2.529.174.523Zm-.741-8.632,1,8.2,13.559-5.668-.044-.087Zm29.559,1.7c-2.572,0-5.188-.087-7.935-.218-.131,0-.262-.044-.436-.044-.087,0-.218-.044-.349-.044l-.436-.044,12.774-8.283.087.087c1.046,1.046,2.659,2.4,4.752,2.049a7.458,7.458,0,0,0,3.226-1.221c2.311-1.7,2.7-4.229,1.134-7.673l-.044-.087L381.01,89.468l-.131.48c-.218.916-.392,1.744-.61,2.616-.392,1.787-.741,3.444-1.264,5.1-1.09,3.531-2.223,7.15-3.357,10.594-.741,2.267-1.439,4.534-2.18,6.8a2.228,2.228,0,0,1-2.005,1.7A124.778,124.778,0,0,1,353.413,118.024Zm-8.283-.567a1.083,1.083,0,0,0,.349.044,129.457,129.457,0,0,0,26.027-1.09,1.78,1.78,0,0,0,1.744-1.482c.7-2.267,1.439-4.534,2.18-6.8,1.134-3.488,2.267-7.063,3.357-10.594.48-1.613.872-3.27,1.264-5.057.174-.7.305-1.4.48-2.136l-13.907,12.251c1.526,3.575,1.133,6.191-1.308,7.978a7.724,7.724,0,0,1-3.4,1.308,6.074,6.074,0,0,1-4.97-2.049Zm-4.36.044c-.741,0-1.351-.48-2.005-1.482-5.755-8.894-10.333-19.226-13.995-31.477a3.578,3.578,0,0,1-.131-1.657c.828-5.144,1.613-9.809,2.354-14.3a2.791,2.791,0,0,1,.741-1.352c13.166-12.861,26.333-22.671,40.153-29.995a1.594,1.594,0,0,1,2.441.654c5.45,8.371,9.2,17.352,13.166,28.295a9.384,9.384,0,0,1,.523,4.578c-.436,2.7-.872,5.45-1.264,8.065-.349,2.311-.741,4.752-1.09,7.106a2.518,2.518,0,0,1-.828,1.569c-5.014,4.534-10.027,8.981-14.736,13.123-.872.741-.959.7-2.311.044l-.087-.044a5.653,5.653,0,0,0-7.542,6.322c.087.567.218,1.134-.567,1.613-2.049,1.264-4.142,2.616-6.1,3.88-2.267,1.439-4.621,2.965-6.976,4.4A3.107,3.107,0,0,1,340.769,117.5Zm28.164-80.262a1.743,1.743,0,0,0-.916.305c-13.82,7.324-26.9,17.134-40.066,29.951a2.145,2.145,0,0,0-.654,1.177c-.785,4.447-1.57,9.155-2.354,14.3a3.618,3.618,0,0,0,.087,1.526c3.706,12.251,8.24,22.5,13.995,31.39,1,1.526,1.788,1.744,3.313.785,2.354-1.439,4.709-2.965,6.976-4.4,2.005-1.264,4.1-2.616,6.147-3.88.567-.349.523-.7.436-1.308a5.939,5.939,0,0,1,7.978-6.627l.087.044c1.308.61,1.308.61,2.005,0,4.708-4.185,9.722-8.632,14.736-13.123a2.505,2.505,0,0,0,.7-1.4c.392-2.354.741-4.8,1.09-7.106.392-2.659.828-5.406,1.264-8.065a8.883,8.883,0,0,0-.48-4.447c-3.924-10.943-7.673-19.924-13.123-28.251C369.718,37.5,369.369,37.239,368.933,37.239Zm-31.172,79.914-.349-.044-2.616-.392c-1.918-.305-3.749-.567-5.537-.872-.872-.131-1.7-.349-2.529-.523-.785-.174-1.57-.349-2.354-.48a1.1,1.1,0,0,1-1.046-1.221c0-.61-.044-1.264-.087-1.875-.044-.872-.087-1.744-.087-2.616a1.677,1.677,0,0,1,.567-1.134,3.072,3.072,0,0,0,1.177-2.267,2.985,2.985,0,0,0-1.177-2.18,1.732,1.732,0,0,1-.61-1.134c.218-4.142.523-8.327.785-12.425l.087-1.177a.371.371,0,0,1,.131-.218l.131-.131.174-.218.087.262a123.856,123.856,0,0,0,13.123,28.338ZM324.246,88.858h0l-.087,1.177c-.262,4.055-.523,8.283-.785,12.382a1.361,1.361,0,0,0,.48.872,3.207,3.207,0,0,1,1.308,2.4,3.4,3.4,0,0,1-1.264,2.529,1.4,1.4,0,0,0-.436.872c0,.872.044,1.744.087,2.572.044.654.087,1.264.087,1.918a.792.792,0,0,0,.785.916,20.518,20.518,0,0,1,2.354.523c.828.174,1.657.392,2.529.523,1.788.305,3.619.567,5.537.872.741.131,1.482.218,2.267.349A125.481,125.481,0,0,1,324.246,88.858Zm50.224,27.335c-.087,0-.131-.044-.218-.087-.044,0-.087-.044-.131-.044l-.131-.044.044-.131c.262-.7.523-1.439.785-2.136.567-1.57,1.134-3.139,1.613-4.752,1.09-3.793,2.136-7.673,3.139-11.422.741-2.659,1.439-5.319,2.18-7.978a4.341,4.341,0,0,1,.916-1.787c1.177-1.264,2.354-2.441,3.619-3.749l1.526-1.526.218-.218.044.305c.131.828.262,1.657.392,2.441.262,1.7.567,3.357.741,5.014a102.877,102.877,0,0,1,.654,21.363,1.791,1.791,0,0,1-.872,1.308c-4.185,1.046-8.414,2.049-12.556,3.052l-1.918.436C374.514,116.193,374.514,116.193,374.47,116.193Zm-.044-.349h0a.135.135,0,0,0,.087.044l1.875-.436c4.1-.959,8.371-2.005,12.556-3.052.262-.044.61-.61.654-1a102.564,102.564,0,0,0-.654-21.319c-.174-1.657-.436-3.27-.741-4.97-.131-.7-.218-1.4-.349-2.136l-1.308,1.308c-1.264,1.264-2.485,2.485-3.619,3.749a4.268,4.268,0,0,0-.872,1.657c-.741,2.659-1.439,5.319-2.18,7.978-1,3.749-2.093,7.63-3.139,11.422-.48,1.613-1.046,3.226-1.613,4.8C374.906,114.493,374.645,115.147,374.426,115.844Zm-51.75-1.482-.218-.044c-.392-.131-.785-.218-1.177-.349-.828-.218-1.613-.436-2.354-.7a93.619,93.619,0,0,1-16.175-6.714c-.218-.131-.436-.218-.61-.305-1.875-1-1.918-1.09-1.221-2.616.131-.305.305-.654.48-1.046a79.5,79.5,0,0,1,9.635-15.782c1.918-2.616,4.011-5.188,5.973-7.673.828-1,1.613-2.005,2.4-3.052.174-.218.392-.392.567-.61l.305-.305.174-.174.087.262c.262,1,.567,2.005.872,2.965.741,2.485,1.439,4.839,1.962,7.237a7.515,7.515,0,0,1-.087,2.79c-.087.436-.131.872-.174,1.308-.218,3.183-.48,6.365-.7,9.548l-.262,3.837-.087.044c-1.787.567-2.572,1.482-2.572,2.79,0,1.4.872,2.267,2.747,2.747l.131.044Zm-2.311-38.8-.131.131-.567.567c-.785,1-1.613,2.049-2.441,3.052-2.005,2.485-4.055,5.057-5.973,7.673-3.531,4.752-7.15,9.94-9.591,15.695-.174.436-.349.785-.48,1.09-.61,1.264-.61,1.264,1.09,2.18.174.087.392.218.61.305a91.726,91.726,0,0,0,16.131,6.67c.785.262,1.526.48,2.354.7.305.087.654.174.959.262l-.262-5.1c-1.918-.523-2.877-1.526-2.877-3.052,0-1.482.828-2.441,2.7-3.052l.262-3.619c.218-3.226.48-6.365.7-9.548.044-.436.087-.916.174-1.352a7.084,7.084,0,0,0,.087-2.7c-.523-2.4-1.221-4.752-1.962-7.237C320.889,77.348,320.628,76.476,320.366,75.561Zm71.151,36.316v-.218c0-1.264,0-2.529.044-3.793.044-2.834.087-5.493-.131-8.153-.392-5.1-1.09-10.245-1.744-15.215l-.305-2.267a2.758,2.758,0,0,1,.654-2.354c1.09-1.4,2.223-2.79,3.357-4.185,3.226-4.011,6.54-8.109,9.5-12.382a72.212,72.212,0,0,0,4.665-8.2c.61-1.221,1.264-2.485,1.918-3.706a8.5,8.5,0,0,0,.392-.872c.087-.218.174-.436.305-.7l.087-.174,1.787,1.526c2.005,1.744,3.924,3.357,5.842,5.014.262.218.262.872.174,1.264a6,6,0,0,0,.828,5.755,6.355,6.355,0,0,0,5.755,1.962h.131l.044.087c2.7,6.06,3.313,10.943,2.093,15.826a33.244,33.244,0,0,1-9.025,15.259c-6.452,6.5-14.518,11.292-26.115,15.433Zm18.878-61.69a2.664,2.664,0,0,0-.218.523,8.1,8.1,0,0,1-.436.872c-.654,1.221-1.308,2.485-1.918,3.706a66.665,66.665,0,0,1-4.665,8.24c-3.008,4.273-6.322,8.414-9.548,12.425-1.134,1.4-2.223,2.79-3.357,4.185a2.508,2.508,0,0,0-.61,2.093l.305,2.267c.654,4.97,1.351,10.115,1.744,15.215.218,2.7.174,5.362.131,8.2,0,1.177-.044,2.354-.044,3.531,11.422-4.142,19.4-8.85,25.809-15.3a32.508,32.508,0,0,0,8.937-15.128c1.221-4.752.61-9.548-2.005-15.521A6.712,6.712,0,0,1,418.59,63.4a6.47,6.47,0,0,1-.872-6.06c.087-.305.044-.828-.087-.916-1.918-1.7-3.793-3.313-5.842-5.014ZM299,104.422l-.174-.131c-.61-.48-1.177-.959-1.744-1.4-1.264-1-2.485-1.962-3.662-2.965-5.319-4.578-8.5-8.719-10.289-13.559-2.485-6.714-1.918-13.6,1.613-20.4a.526.526,0,0,1,.218-.218c.044,0,.044-.044.087-.044l.087-.087.087.044c4.534,2.4,8.065,2.223,10.768-.61,2.965-3.052,2.965-6.234.044-11.379L296,53.588l.087-.087c3.662-3.444,17.09-10.376,21.755-11.248l.174-.044v.174c0,.828-.044,1.613-.087,2.441-.044,1.744-.087,3.531-.131,5.275a100.457,100.457,0,0,0,2.18,21.8,2.183,2.183,0,0,1-.61,2.136,154.09,154.09,0,0,0-16.262,22.1c-.872,1.482-1.657,3.1-2.4,4.665-.349.7-.654,1.439-1,2.136a6.91,6.91,0,0,0-.349.785Zm-13.82-38.5h0l-.131.131C281.565,72.771,281,79.572,283.439,86.2c1.744,4.752,4.883,8.894,10.158,13.428,1.177,1,2.4,1.962,3.662,2.965.523.436,1.046.828,1.613,1.264l.174-.349a6.546,6.546,0,0,1,.392-.785c.349-.7.7-1.439,1-2.136.741-1.57,1.482-3.183,2.4-4.708A153.937,153.937,0,0,1,319.145,73.73a1.933,1.933,0,0,0,.523-1.875,101.555,101.555,0,0,1-2.18-21.886c0-1.744.044-3.531.131-5.275,0-.741.044-1.482.044-2.223-4.752,1-17.57,7.673-21.319,11.074,2.921,5.144,2.877,8.545-.131,11.64C293.423,68.149,289.8,68.367,285.183,65.926Zm97.352,20.011,2.223-14.692.436-.131.044.131c.131.523.262,1.046.392,1.526a21.584,21.584,0,0,0,.959,3.27c1.4,3.226.741,5.8-2.049,7.847a5.434,5.434,0,0,0-1,1,8.99,8.99,0,0,1-.654.7Zm2.441-14.3-2.005,13.384a2.017,2.017,0,0,1,.305-.305,11.829,11.829,0,0,1,1.046-1.046c2.659-1.962,3.27-4.36,1.918-7.455a17.953,17.953,0,0,1-.959-3.313A10.717,10.717,0,0,0,384.977,71.637Zm-61.341,9.33-.044-.174c-.131-.48-.218-.959-.349-1.439a25.062,25.062,0,0,0-.872-3.1,3.91,3.91,0,0,1,1.352-4.97,11.521,11.521,0,0,0,1.264-1.264c.218-.262.48-.523.741-.785l.349-.349-2.005,11.946ZM325.6,69.85c-.131.131-.262.305-.392.436a12.3,12.3,0,0,1-1.308,1.308,3.52,3.52,0,0,0-1.221,4.578,19.716,19.716,0,0,1,.872,3.139c.087.349.174.741.262,1.09Zm63.172,9.33-.48-1.831c-.262-1.09-.523-2.049-.828-3.052-.087-.349-.174-.7-.262-1a20.509,20.509,0,0,0-.828-2.79,14.942,14.942,0,0,1-.916-7.5,124.088,124.088,0,0,0,.087-23.106V39.68l.218.044A75.279,75.279,0,0,1,408.781,49.1l.131.087-.044.131c-4.578,11.64-12.294,21.057-19.837,29.733Zm-2.877-39.15A126.566,126.566,0,0,1,385.762,63a15.43,15.43,0,0,0,.916,7.368c.349.916.61,1.875.872,2.834.087.349.174.7.262,1,.262,1,.523,2.005.828,3.052l.305,1.221c7.411-8.545,15-17.875,19.531-29.3A77.363,77.363,0,0,0,385.893,40.029Zm-64.567,31.7-.044-.305c-.131-.828-.262-1.613-.392-2.4-.305-1.657-.567-3.226-.741-4.8a114.91,114.91,0,0,1-.654-21.363,1.546,1.546,0,0,1,1.352-1.657c2.965-.7,5.929-1.439,8.807-2.18,1.352-.349,2.7-.654,4.011-1,.262-.044.48-.087.785-.131.174-.044.305-.044.523-.087l.262-.044-.087.262c-.262.7-.48,1.352-.741,2.005-.523,1.439-1,2.79-1.526,4.142a141.7,141.7,0,0,0-5.886,21.014,4,4,0,0,1-.959,1.787c-.959,1.046-2.005,2.093-3.1,3.183-.436.436-.872.916-1.352,1.352Zm13.384-33.57c-.087,0-.174.044-.262.044-.305.044-.523.087-.741.131-1.352.349-2.7.654-4.011,1-2.877.741-5.886,1.482-8.807,2.18a1.207,1.207,0,0,0-1.134,1.352,114.092,114.092,0,0,0,.654,21.275c.218,1.569.48,3.139.741,4.8.131.7.218,1.4.349,2.093l1.134-1.134c1.09-1.09,2.093-2.136,3.1-3.183A3.671,3.671,0,0,0,326.6,65.1,143.969,143.969,0,0,1,332.53,44.04c.523-1.352,1-2.7,1.526-4.142C334.274,39.375,334.492,38.765,334.71,38.154Zm-6.976,26.725.131-.48c.218-.872.392-1.744.567-2.616.436-1.918.828-3.88,1.439-5.8,1.744-5.537,3.706-11.074,5.58-16.48l.305-.959a1.849,1.849,0,0,1,1.352-1.046,127.011,127.011,0,0,1,27.946-1c.087,0,.131.044.262.131.044.044.131.087.218.174l.218.131-.218.131c-15.3,8.109-28.033,18.921-37.406,27.51ZM355.9,36.454a134.585,134.585,0,0,0-18.747,1.352,1.572,1.572,0,0,0-1.09.872l-.305.959c-1.875,5.362-3.793,10.943-5.537,16.48-.61,1.875-1,3.837-1.439,5.755-.174.7-.305,1.439-.48,2.136,9.286-8.458,21.842-19.1,36.883-27.074a.043.043,0,0,1-.044-.044c-.044-.044-.087-.044-.087-.087C362,36.541,358.949,36.454,355.9,36.454Zm28.643,28.12-.218-.61c-3.1-8.24-6.888-17.744-12.425-26.245l-.044-.044.174-.61,2.441.436c3.183.567,6.452,1.177,9.722,1.831.392.087.7.916.7,1.308l.044.916c.131,4.839.262,9.853.262,14.823a73.077,73.077,0,0,1-.523,7.586ZM372.159,37.588c5.406,8.327,9.112,17.57,12.207,25.635.218-2.267.48-4.621.48-6.932,0-4.926-.131-9.94-.262-14.823l-.044-.916c0-.436-.305-1-.48-1-3.226-.654-6.5-1.264-9.679-1.831l-2.136-.392ZM409.3,48.007l-.174-.087c-.392-.218-.785-.436-1.134-.654-.741-.436-1.439-.828-2.18-1.221a81.081,81.081,0,0,0-19.444-7.368c-.654-.174-1-.392-1.09-1.134-.218-1.831-.436-3.662-.7-5.58-.087-.7-.174-1.439-.305-2.18v-.131l.131-.044.916-.262c.7-.218,1.4-.436,2.093-.61,4.447-1.134,8.458-2.093,12.6-1.831a16.69,16.69,0,0,1,4.185.741c4.708,1.569,6.758,4.36,6.976,9.591.174,3.444-.654,6.714-1.875,10.55ZM384.628,29.871c.087.7.174,1.352.262,2.049.262,1.918.48,3.749.7,5.58.087.567.305.741.872.872a80.637,80.637,0,0,1,19.531,7.368c.7.392,1.439.785,2.18,1.221.305.174.61.349.959.567a28.639,28.639,0,0,0,1.831-10.245c-.262-5.1-2.223-7.8-6.758-9.33a15.983,15.983,0,0,0-4.142-.741c-4.142-.262-8.109.7-12.512,1.831-.7.174-1.4.392-2.093.61A7.865,7.865,0,0,1,384.628,29.871ZM319.494,40.334l.044-.218c.174-.872.349-1.744.48-2.572.349-1.875.7-3.662,1.134-5.45a33.674,33.674,0,0,1,5.057-11.422c4.578-6.365,11.2-8.5,18.66-5.973.392.131.785.262,1.221.436a3.837,3.837,0,0,0,.654.218l.174.087-.087.174c-.48.785-.959,1.569-1.439,2.311-1.046,1.7-2.049,3.27-2.965,4.926-1.308,2.485-2.572,5.057-3.793,7.542-.828,1.657-1.657,3.4-2.529,5.057a2.485,2.485,0,0,1-1.264,1.134c-3.793.959-7.673,1.918-11.422,2.834l-2.921.7a2.781,2.781,0,0,1-.392.087,1.918,1.918,0,0,0-.436.087Zm19.488-26.376c-4.927,0-9.243,2.354-12.469,6.888A33.163,33.163,0,0,0,321.5,32.182c-.48,1.787-.785,3.531-1.134,5.45-.131.785-.305,1.569-.436,2.354a1.89,1.89,0,0,0,.218-.044,1.979,1.979,0,0,0,.349-.087l2.921-.7c3.749-.916,7.586-1.831,11.379-2.834a2.128,2.128,0,0,0,1.09-.959c.872-1.7,1.7-3.4,2.529-5.057,1.221-2.485,2.485-5.057,3.793-7.586.872-1.7,1.918-3.27,2.965-4.97.436-.7.916-1.439,1.352-2.136-.174-.044-.305-.131-.48-.174-.436-.174-.828-.305-1.221-.436A17.8,17.8,0,0,0,338.982,13.958Zm45.69,24.109-14.3-2.354L383.495,29.7Zm-13.21-2.485,12.861,2.093-1.046-7.5Zm-34.965.828.131-.262c.218-.436.392-.828.567-1.221.349-.785.654-1.482,1.046-2.18,1.482-2.7,3.008-5.406,4.491-8.153,1.4-2.485,2.79-5.014,4.142-7.5.305-.567.61-.872,1-.959a1.889,1.889,0,0,1,1.482.349,54.15,54.15,0,0,1,16.48,15,39.866,39.866,0,0,1,2.485,3.749l.131.262-.305-.044a142.342,142.342,0,0,0-31.434.872ZM348.181,16.4a.327.327,0,0,0-.218.044,1.507,1.507,0,0,0-.828.828c-1.4,2.485-2.747,5.014-4.142,7.5-1.526,2.7-3.008,5.406-4.49,8.153-.349.654-.654,1.352-1,2.136-.131.305-.305.654-.436.959a140.176,140.176,0,0,1,30.91-.872,38.762,38.762,0,0,0-2.311-3.444,55.227,55.227,0,0,0-16.436-14.91A2.236,2.236,0,0,0,348.181,16.4Zm21.886,17.918-.087-.087c-.959-1.09-1.918-2.223-2.834-3.357-2.136-2.529-4.316-5.1-6.627-7.5a39.77,39.77,0,0,0-11.64-8.632l-.174-.087,3.662-4.142.131.131c2.267,2.136,4.447,2.354,6.583.7,1.7-1.264,2.049-3.183,1.09-5.755l-.044-.131.131-.044A11.533,11.533,0,0,1,373.38,7.375a23.143,23.143,0,0,1,6.016,8.719c1.046,2.616,1.962,5.319,2.7,7.673a30,30,0,0,1,.785,3.139c.087.436.218.916.305,1.352l.044.131ZM349.227,14.568a39.874,39.874,0,0,1,11.51,8.589c2.311,2.4,4.491,5.014,6.627,7.542l2.747,3.27,12.73-5.8c-.087-.392-.174-.785-.262-1.221q-.327-1.569-.785-3.139c-.741-2.354-1.657-5.057-2.7-7.629a22.957,22.957,0,0,0-5.929-8.589,11.234,11.234,0,0,0-12.643-1.962c.959,2.659.523,4.665-1.221,6.016-2.224,1.7-4.534,1.482-6.888-.61Z" transform="translate(-280.146 -3.027)"/>
        </g>
      </g>
    </g>
    <g id="Group_1399" data-name="Group 1399" transform="translate(123.392)">
      <g id="Group_1394" data-name="Group 1394" transform="translate(0 49.526)">
        <circle id="Ellipse_6195" data-name="Ellipse 6195" class="cls-3" cx="8.545" cy="8.545" r="8.545" transform="translate(0.174 0.174)"/>
        <path id="Path_8383" data-name="Path 8383" class="cls-3" d="M291.619,131.039a8.719,8.719,0,1,1,8.719-8.719A8.745,8.745,0,0,1,291.619,131.039Zm0-17.134a8.414,8.414,0,1,0,8.414,8.414A8.419,8.419,0,0,0,291.619,113.905Z" transform="translate(-282.9 -113.6)"/>
      </g>
      <g id="Group_1395" data-name="Group 1395" transform="translate(69.755)">
        <circle id="Ellipse_6196" data-name="Ellipse 6196" class="cls-3" cx="5.798" cy="5.798" r="5.798" transform="translate(0.131 0.131)"/>
        <path id="Path_8384" data-name="Path 8384" class="cls-3" d="M448.829,11.858a5.929,5.929,0,1,1,5.929-5.929A5.935,5.935,0,0,1,448.829,11.858Zm0-11.64a5.711,5.711,0,1,0,5.711,5.711A5.731,5.731,0,0,0,448.829.218Z" transform="translate(-442.9)"/>
      </g>
      <g id="Group_1396" data-name="Group 1396" transform="translate(37.973 100.753)">
        <circle id="Ellipse_6197" data-name="Ellipse 6197" class="cls-3" cx="3.27" cy="3.27" r="3.27" transform="translate(0.044 0.044)"/>
        <path id="Path_8385" data-name="Path 8385" class="cls-3" d="M373.313,237.727a3.313,3.313,0,1,1,3.313-3.313A3.312,3.312,0,0,1,373.313,237.727Zm0-6.54a3.226,3.226,0,1,0,3.226,3.226A3.219,3.219,0,0,0,373.313,231.187Z" transform="translate(-370 -231.1)"/>
      </g>
      <g id="Group_1397" data-name="Group 1397" transform="translate(72.807 96.96)">
        <circle id="Ellipse_6198" data-name="Ellipse 6198" class="cls-3" cx="7.412" cy="7.412" r="7.412" transform="translate(0.131 0.131)"/>
        <path id="Path_8386" data-name="Path 8386" class="cls-3" d="M457.442,237.485a7.542,7.542,0,1,1,7.542-7.542A7.573,7.573,0,0,1,457.442,237.485Zm0-14.823a7.281,7.281,0,1,0,7.281,7.281A7.294,7.294,0,0,0,457.442,222.662Z" transform="translate(-449.9 -222.4)"/>
      </g>
      <g id="Group_1398" data-name="Group 1398" transform="translate(135.456 50.834)">
        <circle id="Ellipse_6199" data-name="Ellipse 6199" class="cls-3" cx="7.412" cy="7.412" r="7.412" transform="translate(0.131 0.131)"/>
        <path id="Path_8387" data-name="Path 8387" class="cls-3" d="M601.142,131.685a7.542,7.542,0,1,1,7.542-7.542A7.573,7.573,0,0,1,601.142,131.685Zm0-14.823a7.281,7.281,0,1,0,7.281,7.281A7.294,7.294,0,0,0,601.142,116.862Z" transform="translate(-593.6 -116.6)"/>
      </g>
    </g>
    <g id="Group_1400" data-name="Group 1400" transform="translate(76.569 49.308)">
      <path id="Path_8388" data-name="Path 8388" class="cls-4" d="M203.62,148.5H189.233L186.7,156.61H175.5l15.957-43.51h11.292L217.4,156.61H206.149Zm-11.858-8.065h9.373l-4.708-15.085Z" transform="translate(-175.5 -113.1)"/>
    </g>
    <g id="Group_1401" data-name="Group 1401" transform="translate(109.484 60.513)">
      <path id="Path_8389" data-name="Path 8389" class="cls-4" d="M266.913,157.024l5.362-18.224h10.768l-13.166,37.755-.567,1.4q-2.812,6.278-9.94,6.278a15.881,15.881,0,0,1-4.142-.61v-7.194h1.308a7.065,7.065,0,0,0,3.226-.61,3.642,3.642,0,0,0,1.657-2.18l.828-2.136L251,138.844h10.768Z" transform="translate(-251 -138.8)"/>
    </g>
    <g id="Group_1402" data-name="Group 1402" transform="translate(142.705 60.513)">
      <path id="Path_8390" data-name="Path 8390" class="cls-4" d="M336.661,171.149H327.2V138.8h10.115v22.67a5.236,5.236,0,0,0,4.926,2.485c2.7,0,4.055-1.4,4.055-4.142V138.8h10.071v20.97q0,5.82-2.747,8.894c-1.831,2.049-4.491,3.1-8.065,3.1a10.348,10.348,0,0,1-8.632-4.1Z" transform="translate(-327.2 -138.8)"/>
    </g>
    <g id="Group_1403" data-name="Group 1403" transform="translate(172.962 46.911)">
      <path id="Path_8391" data-name="Path 8391" class="cls-4" d="M396.6,137.115c0-5.1,1.09-9.155,3.313-12.12a10.915,10.915,0,0,1,9.286-4.4,9.273,9.273,0,0,1,7.281,3.4V107.6h10.115v45.951h-9.068L417,150.064a9.58,9.58,0,0,1-7.891,4.055,11.006,11.006,0,0,1-9.155-4.4C397.734,146.75,396.6,142.565,396.6,137.115Zm10.071.654c0,5.755,1.657,8.589,5.014,8.589a4.97,4.97,0,0,0,4.8-2.79V131.273a4.811,4.811,0,0,0-4.708-2.877c-3.1,0-4.8,2.529-5.057,7.542Z" transform="translate(-396.6 -107.6)"/>
    </g>
    <g id="Group_1404" data-name="Group 1404" transform="translate(215.731 59.946)">
      <path id="Path_8392" data-name="Path 8392" class="cls-5" d="M523.866,138.067v32.349H513.8V147.571a4.788,4.788,0,0,0-4.4-2.311c-1.744,0-2.921.392-3.575,1.134a5.517,5.517,0,0,0-1,3.619v20.4H494.7V149.576c.044-4.055.916-7.063,2.572-9.068s4.185-3.008,7.542-3.008a11,11,0,0,1,9.243,4.4l.349-3.793h9.46Z" transform="translate(-494.7 -137.5)"/>
    </g>
    <g id="Group_1405" data-name="Group 1405" transform="translate(246.074 59.902)">
      <path id="Path_8393" data-name="Path 8393" class="cls-5" d="M564.3,153.923a21.688,21.688,0,0,1,1.613-8.676,12.9,12.9,0,0,1,4.621-5.8,12.307,12.307,0,0,1,7.019-2.049,9.709,9.709,0,0,1,7.891,3.4l.349-2.79h9.155v31.128a13.381,13.381,0,0,1-2.005,7.411,12.673,12.673,0,0,1-5.755,4.839,21.024,21.024,0,0,1-8.719,1.7,17.957,17.957,0,0,1-6.888-1.352,12.583,12.583,0,0,1-5.1-3.488l4.229-5.929a9.221,9.221,0,0,0,7.411,3.313c4.447,0,6.714-2.311,6.714-6.888v-1a9.391,9.391,0,0,1-7.324,3.183,11.676,11.676,0,0,1-9.548-4.534c-2.442-3.008-3.662-7.063-3.662-12.12Zm10.071.654a11.339,11.339,0,0,0,1.482,6.278,4.763,4.763,0,0,0,4.185,2.311,5.383,5.383,0,0,0,4.752-2.18v-13.6a5.185,5.185,0,0,0-4.708-2.223,4.783,4.783,0,0,0-4.229,2.4A14.012,14.012,0,0,0,574.371,154.577Z" transform="translate(-564.3 -137.4)"/>
    </g>
    <g id="Group_1406" data-name="Group 1406" transform="translate(277.813 59.772)">
      <path id="Path_8394" data-name="Path 8394" class="cls-5" d="M656.762,170.016a10.965,10.965,0,0,1-.959-2.877,9.443,9.443,0,0,1-7.76,3.488,11.494,11.494,0,0,1-7.76-2.747,8.721,8.721,0,0,1-3.182-6.932,9.07,9.07,0,0,1,3.88-7.935c2.572-1.787,6.365-2.7,11.292-2.7h3.1v-1.7c0-2.965-1.264-4.49-3.836-4.49-2.4,0-3.575,1.177-3.575,3.531H637.885a9.077,9.077,0,0,1,4.011-7.63,16.684,16.684,0,0,1,10.158-2.921c4.1,0,7.368,1,9.766,3.008s3.619,4.752,3.662,4.447v14.3c.044,6.8.48,9.068,1.4,10.638v.523Zm-6.322-6.583a5.432,5.432,0,0,0,3.139-.828,4.764,4.764,0,0,0,1.787-1.831v-5.188h-2.921c-3.488,0-5.275,1.57-5.275,4.709a2.893,2.893,0,0,0,.916,2.223A3.027,3.027,0,0,0,650.441,163.433Z" transform="translate(-637.1 -137.1)"/>
    </g>
    <g id="Group_1411" data-name="Group 1411" transform="translate(0.099 18.522)">
      <g id="Group_1407" data-name="Group 1407">
        <path id="Path_8395" data-name="Path 8395" class="cls-5" d="M51.631,42.491H5.374a4.851,4.851,0,0,0-3.837,1.962A4.956,4.956,0,0,0,.1,47.9V95.157c-.044,4.534,2.093,19.052,20.4,19.052,1.482,0,2.7.087,3.706.087H43.7c14.867,0,22.54,10.115,25.722,16a1,1,0,0,0,1.875-.48V59.669C69.767,41.619,51.631,42.491,51.631,42.491ZM57.517,99.56a1.027,1.027,0,0,1-.916.959c-5.319.436-33.177,2.18-39.15-7.891-5.886-9.9-4.1-30.474-3.662-34.921a1.066,1.066,0,0,1,.959-.916c5.232-.218,32.872-1.09,38.409,6.278C58.65,70.393,57.778,94.633,57.517,99.56Z" transform="translate(-0.099 -42.484)"/>
      </g>
      <g id="Group_1408" data-name="Group 1408" transform="translate(26.377 22.721)">
        <path id="Path_8396" data-name="Path 8396" class="cls-5" d="M60.905,105.586c.48,2.529,1.526,4.273,2.7,4.273,1.657,0,3.008-3.4,3.008-7.629a15.462,15.462,0,0,0-.959-5.58v-.044c-.523-1.264-1.264-2.005-2.049-2.005h-.131c-.654.087-1.221.654-1.7,1.57v.044A14.149,14.149,0,0,0,60.6,102.23a18.537,18.537,0,0,0,.305,3.27C60.905,105.543,60.905,105.586,60.905,105.586Z" transform="translate(-60.6 -94.6)"/>
      </g>
      <g id="Group_1409" data-name="Group 1409" transform="translate(26.14 41.555)">
        <path id="Path_8397" data-name="Path 8397" class="cls-5" d="M77.34,138.323c-.044,0-.044-.044-.087-.087-1.526-1.046-4.883.262-8.283.087-3.619.174-7.194-1.352-8.545.131-1.134,1,.392,4.8,4.011,6.714a.043.043,0,0,1,.044.044,9.808,9.808,0,0,0,4.534,1.09c6.8-.044,10.071-6.5,8.545-7.848C77.47,138.454,77.427,138.367,77.34,138.323Z" transform="translate(-60.056 -137.8)"/>
      </g>
      <g id="Group_1410" data-name="Group 1410" transform="translate(37.93 22.721)">
        <ellipse id="Ellipse_6200" data-name="Ellipse 6200" class="cls-5" cx="2.965" cy="7.629" rx="2.965" ry="7.629"/>
      </g>
    </g>
    <g id="Group_1414" data-name="Group 1414" transform="translate(204.962 59.423)">
      <g id="Group_1412" data-name="Group 1412">
        <path id="Path_8398" data-name="Path 8398" class="cls-5" d="M479.155,152.475v-11.6a4.577,4.577,0,0,0-4.578-4.578h0A4.577,4.577,0,0,0,470,140.878V156.66Z" transform="translate(-470 -136.3)"/>
      </g>
      <g id="Group_1413" data-name="Group 1413" transform="translate(0 18.529)">
        <path id="Path_8399" data-name="Path 8399" class="cls-5" d="M470,192.925a4.577,4.577,0,0,0,4.578,4.578h0a4.577,4.577,0,0,0,4.578-4.578V178.8L470,183.029Z" transform="translate(-470 -178.8)"/>
      </g>
    </g>
    <g id="Group_1419" data-name="Group 1419" transform="translate(277.551 94.649)">
      <g id="Group_1415" data-name="Group 1415">
        <path id="Path_8400" data-name="Path 8400" class="cls-5" d="M647.138,220.283a1.61,1.61,0,0,1-.479,1.177,1.685,1.685,0,0,1-1.177.48,1.65,1.65,0,0,1-1.221-.523,2.57,2.57,0,0,0-3.749.349,3.492,3.492,0,0,0-.872,2.354,3.413,3.413,0,0,0,.872,2.354,2.661,2.661,0,0,0,3.793.305,1.765,1.765,0,0,1,1.177-.48,1.61,1.61,0,0,1,1.177.48,1.765,1.765,0,0,1,.479,1.177,1.61,1.61,0,0,1-.479,1.177,5.438,5.438,0,0,1-4.1,1.831,5.555,5.555,0,0,1-3.052-.916,6.2,6.2,0,0,1-2.18-2.529,7.76,7.76,0,0,1-.828-3.488,7.348,7.348,0,0,1,.828-3.488,6.491,6.491,0,0,1,2.18-2.529,5.349,5.349,0,0,1,3.052-.916,5.506,5.506,0,0,1,4.1,1.831h0A2.323,2.323,0,0,1,647.138,220.283Z" transform="translate(-636.5 -217.1)"/>
      </g>
      <g id="Group_1416" data-name="Group 1416" transform="translate(11.335 0.087)">
        <path id="Path_8401" data-name="Path 8401" class="cls-5" d="M664.287,219.349a5.479,5.479,0,0,1,8.545,0,7.252,7.252,0,0,1,1.787,4.883,7.173,7.173,0,0,1-1.787,4.883,5.479,5.479,0,0,1-8.545,0,7.563,7.563,0,0,1,0-9.766Zm2.18,7.281a2.685,2.685,0,0,0,4.185,0,3.614,3.614,0,0,0,0-4.709,2.685,2.685,0,0,0-4.185,0,3.492,3.492,0,0,0-.872,2.354A3.916,3.916,0,0,0,666.467,226.63Z" transform="translate(-662.5 -217.3)"/>
      </g>
      <g id="Group_1417" data-name="Group 1417" transform="translate(24.109 0.174)">
        <path id="Path_8402" data-name="Path 8402" class="cls-5" d="M703.179,221.555a4.166,4.166,0,0,1-2.921,3.967l1.308,3.183a.737.737,0,0,0,.087.218c.044.087.044.174.087.218a1.787,1.787,0,0,1-1.7,2.18,1.614,1.614,0,0,1-1.482-.828h0c-.044-.131-.131-.262-.174-.392l-1.613-3.924h-1.657v3.531a1.684,1.684,0,0,1-.479,1.177,1.657,1.657,0,0,1-2.834-1.177V219.113h0a1.677,1.677,0,0,1,.567-1.134,1.766,1.766,0,0,1,1.177-.48h5.493a3.885,3.885,0,0,1,2.921,1.221A3.574,3.574,0,0,1,703.179,221.555Zm-4.316,1.482a.9.9,0,0,0,.741-.305,1.05,1.05,0,0,0,.305-.785.9.9,0,0,0-.305-.741,1.021,1.021,0,0,0-.741-.305h-3.749v2.18h3.749v-.044Z" transform="translate(-691.8 -217.5)"/>
      </g>
      <g id="Group_1418" data-name="Group 1418" transform="translate(36.186 0.044)">
        <path id="Path_8403" data-name="Path 8403" class="cls-5" d="M727.217,220.3h-4.665v2.4h3.88a1.526,1.526,0,1,1,0,3.052h-3.88v1.962h3.706a1.493,1.493,0,0,1,1.177.523,1.765,1.765,0,0,1,.48,1.177,1.61,1.61,0,0,1-.48,1.177,1.516,1.516,0,0,1-1.177.48h-5.58a1.513,1.513,0,0,1-.828-.523,1.385,1.385,0,0,1-.349-.872h0V218.682a1.465,1.465,0,0,1,.479-1.046,1.609,1.609,0,0,1,1.046-.436h6.234a1.542,1.542,0,0,1,1.09,2.616A1.661,1.661,0,0,1,727.217,220.3Z" transform="translate(-719.5 -217.2)"/>
      </g>
    </g>
  </g>
</svg>
