<svg id="Layer_1" data-name="Layer 1" xmlns="http://www.w3.org/2000/svg" xmlns:xlink="http://www.w3.org/1999/xlink" viewBox="0 0 157.02 73.66"><defs><style>.cls-1{fill:url(#Orange_Yellow_2);}.cls-2{fill:url(#Orange_Yellow_2-2);}.cls-3{fill:#90c73e;}.cls-4{fill:#2d93bb;}.cls-5{fill:#2d3f50;}</style><linearGradient id="Orange_Yellow_2" x1="59.48" y1="37.15" x2="131.81" y2="37.15" gradientUnits="userSpaceOnUse"><stop offset="0" stop-color="#fcef44"/><stop offset="0.04" stop-color="#fce335"/><stop offset="0.12" stop-color="#fdd322"/><stop offset="0.2" stop-color="#fdca17"/><stop offset="0.28" stop-color="#fdc713"/><stop offset="0.67" stop-color="#f29140"/><stop offset="0.89" stop-color="#ed683c"/><stop offset="1" stop-color="#e93f3a"/></linearGradient><linearGradient id="Orange_Yellow_2-2" x1="59.41" y1="37.15" x2="131.89" y2="37.15" xlink:href="#Orange_Yellow_2"/></defs><title>logoArtboard 2mt</title><path class="cls-1" d="M109.92,12.64c2.18-.39,4.28-.85,6.4-1.11a9.19,9.19,0,0,1,3.18.24c2.8.68,4.16,2.38,4.37,5.26a13.34,13.34,0,0,1-.81,5.19.77.77,0,0,0,.35,1c1.22.9,2.39,1.86,3.62,2.83,1.95-1,3.34-.87,4.28.53s.57,2.82-1,4.11c.25.66.52,1.34.75,2a11.55,11.55,0,0,1-1.24,9.76,22.94,22.94,0,0,1-9.35,8.64c-2.08,1.12-4.31,2-6.49,2.9a.87.87,0,0,0-.65.8,21.17,21.17,0,0,1-3,9c-2.53,4-6.3,5.32-10.75,3.68a.81.81,0,0,0-1.13.35,16.69,16.69,0,0,1-5.44,4.77c-3,1.6-5.54,1.16-7.83-1.33A16.58,16.58,0,0,1,82,65.25c-.5-1.45-.86-3-1.31-4.5l-.61.17a17.15,17.15,0,0,1-7,.93,5.72,5.72,0,0,1-5.79-6.07,12.59,12.59,0,0,1,.83-4.64.78.78,0,0,0-.33-1.09,25,25,0,0,1-5.52-5.17A12.37,12.37,0,0,1,61,31.16a1.11,1.11,0,0,0,0-1.21,3.83,3.83,0,0,1,.57-4.55,3.9,3.9,0,0,1,4.57-.85.67.67,0,0,0,.81,0A38.36,38.36,0,0,1,77.49,19c.18-.06.36-.4.38-.63A21.75,21.75,0,0,1,80,10.94a14.37,14.37,0,0,1,2.14-3.22c2.61-2.83,5.82-3.28,9.35-2,.94.33.93.34,1.58-.41a5.62,5.62,0,0,1,.48-.54A1.68,1.68,0,0,0,94.15,3a1.92,1.92,0,0,1,1.16-2,2.22,2.22,0,0,1,2.31.09,1,1,0,0,0,.75.12,6.17,6.17,0,0,1,7.06,1.6A15.38,15.38,0,0,1,109,9.25C109.34,10.41,109.63,11.59,109.92,12.64ZM100,48.06c.69.32.7.34,1.08,0q3.6-3.18,7.17-6.38a1.3,1.3,0,0,0,.37-.72c.39-2.46.74-4.93,1.14-7.38a4.24,4.24,0,0,0-.24-2.19,64.69,64.69,0,0,0-6.39-13.75.7.7,0,0,0-1.09-.28,85.44,85.44,0,0,0-19.5,14.58,1.21,1.21,0,0,0-.34.61q-.6,3.47-1.15,7a1.79,1.79,0,0,0,.05.77,59.91,59.91,0,0,0,6.81,15.28c.49.77.91.89,1.71.4,2.13-1.33,4.24-2.7,6.37-4,.31-.2.29-.4.24-.71A2.82,2.82,0,0,1,100,48.06Zm13.58,5.4c4.71-1.69,9.1-3.89,12.67-7.49a16,16,0,0,0,4.37-7.39,11.41,11.41,0,0,0-1-7.64c-2.5.27-4-1.55-3.28-3.86a.63.63,0,0,0-.06-.53c-1.17-1-2.37-2-3.63-3.12-.17.37-.26.58-.36.77a58,58,0,0,1-3.2,5.79c-2,2.78-4.15,5.39-6.26,8.06a1.27,1.27,0,0,0-.31,1.08c.37,2.83.77,5.66,1,8.51C113.72,49.55,113.61,51.48,113.62,53.46ZM67.18,25.22c1.45,2.52,1.44,4.11,0,5.61s-3.1,1.5-5.34.3a.58.58,0,0,0-.12.12,11.75,11.75,0,0,0-.78,9.87,16.07,16.07,0,0,0,5,6.56c.84.72,1.72,1.39,2.64,2.12.14-.29.21-.47.3-.65.55-1.11,1-2.25,1.66-3.31A74.5,74.5,0,0,1,78.41,35.1a1,1,0,0,0,.28-1,48.92,48.92,0,0,1-1.05-10.62c0-1.24.06-2.49.09-3.74C75.44,20.19,69,23.56,67.18,25.22Zm14,35.47c.53,1.73,1,3.55,1.65,5.32A13.67,13.67,0,0,0,86,71.39a5.11,5.11,0,0,0,6.13,1.13,15.66,15.66,0,0,0,6.15-5.2A1.25,1.25,0,0,0,98.4,67a27.45,27.45,0,0,1-10-9.36ZM98.36,1.83c.47,1.27.31,2.24-.55,2.9a2.33,2.33,0,0,1-3.3-.35L92.85,6.27a19.4,19.4,0,0,1,5.67,4.21c1.61,1.69,3.08,3.52,4.6,5.28l6.29-2.88c-.17-.69-.3-1.45-.54-2.18-.4-1.25-.82-2.51-1.31-3.72a11.28,11.28,0,0,0-2.91-4.21A5.55,5.55,0,0,0,98.36,1.83Zm12.36,16.72a60.82,60.82,0,0,1,0,11.26,7.5,7.5,0,0,0,.45,3.62,16.64,16.64,0,0,1,.54,1.87c.19.71.37,1.42.59,2.23,3.87-4.46,7.47-8.95,9.63-14.44A36.5,36.5,0,0,0,110.71,18.54Zm-31,30.62c.16-2.19.31-4.33.47-6.47a7.2,7.2,0,0,0,.13-2c-.37-1.65-.89-3.27-1.37-5-.16.17-.31.3-.43.45-1.37,1.73-2.77,3.44-4.09,5.21a38.17,38.17,0,0,0-4.68,7.65c-.57,1.33-.78,1.08.62,1.84a45.85,45.85,0,0,0,7.85,3.25c.55.18,1.11.33,1.72.51L79.84,52c-1-.25-1.39-.7-1.4-1.41S78.85,49.46,79.75,49.17Zm12-42.45-.9-.33a7.41,7.41,0,0,0-9,2.87,16.45,16.45,0,0,0-2.45,5.53c-.33,1.26-.53,2.55-.8,3.9l.39-.07c2.32-.57,4.65-1.13,7-1.72a1,1,0,0,0,.57-.5c1-2,2-4.12,3.07-6.14C90.25,9.07,91,7.95,91.77,6.72Zm20.87,47.86-.45.1c-2.28.54-4.57,1.09-6.86,1.6a1,1,0,0,0-.81.67,57,57,0,0,1-4.66,9c-.13.19-.24.4-.36.6a1.32,1.32,0,0,0,.21.14c.32.11.65.25,1,.33,3,.77,5.66.31,7.82-2.07a15.52,15.52,0,0,0,3.24-6.32C112.12,57.33,112.34,56,112.64,54.58ZM100.85,17.12c-.13-.09-.16-.13-.19-.13a62.39,62.39,0,0,0-13.57.49.87.87,0,0,0-.59.47c-1,2.81-2,5.62-2.86,8.46-.42,1.33-.66,2.72-1,4.09A88.63,88.63,0,0,1,100.85,17.12Zm21.28,5.27a14.11,14.11,0,0,0,.92-5.1c-.12-2.5-1.09-3.85-3.35-4.6a7.92,7.92,0,0,0-2-.36,19.75,19.75,0,0,0-6.11.89c-.5.13-1,.29-1.48.43.17,1.31.34,2.53.49,3.76,0,.32.17.42.48.49a39.06,39.06,0,0,1,9.47,3.58C121,21.76,121.55,22.06,122.14,22.39ZM69,51a11.38,11.38,0,0,0-.77,6.2,4.24,4.24,0,0,0,2.88,3.39c3.25,1.13,6.34.26,9.42-.68-.17-1.42-.31-2.77-.5-4.11a.7.7,0,0,0-.42-.45,52.73,52.73,0,0,1-8.35-3.18C70.55,51.78,69.82,51.38,69,51ZM86.9,16.78a68.41,68.41,0,0,1,15.29-.43A17.9,17.9,0,0,0,101,14.53a26.62,26.62,0,0,0-8-7.27c-.52-.3-.82-.26-1.11.26-1.4,2.54-2.82,5.06-4.21,7.6C87.41,15.61,87.2,16.14,86.9,16.78ZM89,57.15c2.71,3.9,5.75,7.16,10,9.23a55.31,55.31,0,0,0,5.16-9.82,1.16,1.16,0,0,0-.23,0,61.53,61.53,0,0,1-14,.47A4.2,4.2,0,0,0,89,57.15Zm19.33-14.28-7,6.16c.75,1.7.59,3-.59,3.83a3.72,3.72,0,0,1-1.61.61,2.79,2.79,0,0,1-2.39-1l-6,3.87.38.05a62.78,62.78,0,0,0,12.67-.53,1,1,0,0,0,.92-.78c.89-2.82,1.82-5.63,2.69-8.46C107.8,45.44,108,44.23,108.34,42.87Zm-3.21,12.66c.07,0,.11.07.14.06,2.34-.56,4.69-1.11,7-1.7a.75.75,0,0,0,.37-.56A50,50,0,0,0,112.35,43c-.14-1.18-.35-2.34-.55-3.62-.9.92-1.72,1.72-2.5,2.56a2,2,0,0,0-.43.83c-.87,3.14-1.7,6.3-2.59,9.43C106,53.3,105.51,54.41,105.13,55.53ZM79.46,33.89c.79-.81,1.5-1.49,2.16-2.22a1.87,1.87,0,0,0,.44-.82,69.94,69.94,0,0,1,2.87-10.22c.37-1,.72-1.95,1.11-3-.27,0-.45.06-.62.1-2.08.52-4.16,1.05-6.25,1.55a.67.67,0,0,0-.6.73,54.68,54.68,0,0,0,.32,10.36C79,31.52,79.25,32.64,79.46,33.89Zm1.41,8.34c-.06.07-.11.1-.11.13-.14,2.2-.29,4.4-.41,6.61a.71.71,0,0,0,.26.48,1.39,1.39,0,0,1,0,2.28.74.74,0,0,0-.25.48c0,.73.07,1.46.09,2.19a.46.46,0,0,0,.45.52c.8.14,1.58.36,2.38.5,1.26.22,2.54.39,4,.61A60.42,60.42,0,0,1,80.87,42.23Zm23.25-25-.06.21a65.7,65.7,0,0,1,6.06,12.78,34.54,34.54,0,0,0,.26-3.69c0-2.55-.07-5.09-.14-7.64,0-.2-.15-.54-.29-.56C108,18,106.06,17.61,104.12,17.26ZM81.07,59.82,87.82,57l-.05-.15-7.22-1.21Zm28.52-46.1-6.07,2.78,6.6,1.08Zm-.32,27a8.26,8.26,0,0,1,.82-.83,2.77,2.77,0,0,0,1-3.72,17.27,17.27,0,0,1-.65-2.34l-.1,0ZM81.6,32.89a11.3,11.3,0,0,1-1,1A1.81,1.81,0,0,0,80,36.23a21.41,21.41,0,0,1,.6,2.21l.09,0Z"/><path class="cls-2" d="M89.74,73.66a6.15,6.15,0,0,1-4.57-2.3,16.84,16.84,0,0,1-3.28-6.08c-.34-1-.62-2-.91-3.07-.12-.45-.25-.9-.38-1.36l-.08,0-.45.13a17.07,17.07,0,0,1-7,.93,5.79,5.79,0,0,1-5.86-6.14A12.61,12.61,0,0,1,68,51.12a.71.71,0,0,0-.3-1,24.91,24.91,0,0,1-5.54-5.19,12.48,12.48,0,0,1-1.26-13.8,1,1,0,0,0,0-1.14,3.9,3.9,0,0,1,.58-4.65,4,4,0,0,1,4.66-.86.6.6,0,0,0,.73,0A38.14,38.14,0,0,1,77.47,19c.14,0,.3-.35.33-.56a21.54,21.54,0,0,1,2.09-7.48A14.18,14.18,0,0,1,82,7.67c2.49-2.7,5.66-3.38,9.43-2h0c.86.31.86.31,1.47-.4l.12-.15a3.63,3.63,0,0,1,.37-.4A1.61,1.61,0,0,0,94.08,3,2,2,0,0,1,95.28.94a2.3,2.3,0,0,1,2.39.1.92.92,0,0,0,.68.11,6.27,6.27,0,0,1,7.14,1.62A15.47,15.47,0,0,1,109,9.23c.26.81.47,1.62.68,2.4l.25.92,1.83-.34c1.54-.3,3-.57,4.51-.76a9.25,9.25,0,0,1,3.21.25c2.8.68,4.21,2.37,4.43,5.33a13.57,13.57,0,0,1-.82,5.22.7.7,0,0,0,.33.95c.87.64,1.7,1.31,2.58,2l1,.79c2-1,3.39-.83,4.34.58s.59,2.87-1,4.17l.22.58c.17.45.35.92.51,1.4a11.53,11.53,0,0,1-1.25,9.82,22.89,22.89,0,0,1-9.37,8.67,53,53,0,0,1-4.85,2.22l-1.64.69a.79.79,0,0,0-.6.74,21.15,21.15,0,0,1-3,9c-2.54,4-6.39,5.35-10.85,3.71a.74.74,0,0,0-1,.33,16.64,16.64,0,0,1-5.47,4.79A7.14,7.14,0,0,1,89.74,73.66Zm-9-13,0,.07c.14.48.27,1,.4,1.44.29,1.06.56,2.06.91,3.06a16.7,16.7,0,0,0,3.25,6c2.26,2.46,4.79,2.89,7.74,1.32a16.5,16.5,0,0,0,5.42-4.75.88.88,0,0,1,1.21-.38c4.45,1.64,8.13.38,10.66-3.64a21,21,0,0,0,3-9A.94.94,0,0,1,114,54l1.64-.69a53,53,0,0,0,4.84-2.21,22.74,22.74,0,0,0,9.31-8.61,11.39,11.39,0,0,0,1.24-9.7c-.16-.47-.33-.94-.51-1.39l-.24-.63,0-.05,0,0c1.52-1.26,1.86-2.68,1-4s-2.24-1.52-4.18-.5l0,0,0,0-1-.82c-.88-.7-1.71-1.36-2.58-2A.84.84,0,0,1,123,22.2,13.43,13.43,0,0,0,123.8,17c-.22-2.88-1.59-4.53-4.32-5.19a9.1,9.1,0,0,0-3.16-.24c-1.5.18-3,.46-4.5.75l-1.9.36h-.07l0-.07-.26-1c-.21-.78-.42-1.59-.68-2.4a15.34,15.34,0,0,0-3.52-6.41,6.13,6.13,0,0,0-7-1.58,1.05,1.05,0,0,1-.81-.12,2.15,2.15,0,0,0-2.24-.09,1.83,1.83,0,0,0-1.12,2,1.77,1.77,0,0,1-.67,1.78,3.51,3.51,0,0,0-.35.39l-.13.15c-.66.77-.69.78-1.63.44h0c-3.71-1.32-6.83-.65-9.27,2A14,14,0,0,0,80,11a21.39,21.39,0,0,0-2.07,7.43c0,.24-.21.62-.43.69a38,38,0,0,0-10.57,5.48.75.75,0,0,1-.89,0,3.83,3.83,0,0,0-4.48.83A3.75,3.75,0,0,0,61,29.91a1.18,1.18,0,0,1,0,1.28A12.34,12.34,0,0,0,62.3,44.84,24.77,24.77,0,0,0,67.8,50a.86.86,0,0,1,.36,1.18,12.47,12.47,0,0,0-.82,4.61,5.64,5.64,0,0,0,5.73,6,17,17,0,0,0,7-.93l.45-.13Zm9,12.5a5.35,5.35,0,0,1-3.78-1.71A13.63,13.63,0,0,1,82.71,66c-.44-1.23-.81-2.5-1.17-3.72-.16-.54-.31-1.07-.48-1.6l0-.07,7.35-3.06,0,.05c3,4.43,6.22,7.4,10,9.33l.06,0,0,.06,0,.1a.64.64,0,0,1-.09.2,15.72,15.72,0,0,1-6.18,5.22A6,6,0,0,1,89.73,73.16Zm-8.5-12.42c.15.51.3,1,.46,1.53.36,1.22.73,2.49,1.17,3.71a13.49,13.49,0,0,0,3.2,5.35,5,5,0,0,0,6,1.12,15.57,15.57,0,0,0,6.12-5.18.53.53,0,0,0,.06-.15v0a27.21,27.21,0,0,1-10-9.3Zm22,6.7a10.26,10.26,0,0,1-2.54-.35,7.71,7.71,0,0,1-.73-.24l-.25-.09a.5.5,0,0,1-.13-.08l-.1-.07-.06,0,.15-.25.25-.41a56.53,56.53,0,0,0,4.65-9,1.07,1.07,0,0,1,.87-.71c1.7-.38,3.42-.79,5.08-1.18l1.78-.42.2,0,.36-.08,0,.12c-.1.45-.18.88-.27,1.32-.19.95-.37,1.84-.62,2.73A15.48,15.48,0,0,1,108.57,65,6.93,6.93,0,0,1,103.21,67.44Zm-3.61-.91,0,0,.09.06.25.09c.23.09.48.17.72.24,3.22.82,5.75.15,7.75-2a15.33,15.33,0,0,0,3.23-6.29c.25-.88.43-1.77.62-2.72.08-.39.16-.79.24-1.2l-.13,0-.2,0-1.78.42c-1.66.4-3.38.8-5.08,1.18a.93.93,0,0,0-.76.62,56.67,56.67,0,0,1-4.67,9l-.25.41Zm-.6,0-.06,0c-3.74-1.84-6.82-4.69-10-9.26l-.07-.1.12,0,.36-.08a1.91,1.91,0,0,1,.58-.08,61.05,61.05,0,0,0,14-.47H104l.13,0,.09,0,0,.09A55.15,55.15,0,0,1,99,66.42ZM89.14,57.2c3.12,4.46,6.15,7.27,9.81,9.08A55,55,0,0,0,104,56.62h-.11a61.21,61.21,0,0,1-14,.47,1.76,1.76,0,0,0-.53.08Zm-14.75,4a9.91,9.91,0,0,1-3.28-.54,4.32,4.32,0,0,1-2.93-3.45A11.57,11.57,0,0,1,69,50.94l0-.08.08,0,.75.39c.52.27,1,.53,1.51.78a52.45,52.45,0,0,0,8.34,3.17.77.77,0,0,1,.48.51c.14,1,.26,2,.38,3.12l.12,1v.06l-.06,0A21.34,21.34,0,0,1,74.4,61.17ZM69.07,51.08a11.33,11.33,0,0,0-.74,6.07,4.18,4.18,0,0,0,2.83,3.34c3.31,1.15,6.5.2,9.31-.66l-.11-.93c-.12-1.08-.24-2.09-.38-3.12a.63.63,0,0,0-.37-.39,52.6,52.6,0,0,1-8.36-3.18c-.5-.25-1-.51-1.52-.78ZM81,59.93l-.54-4.38,7.36,1.24.09.26Zm-.36-4.2.49,4L87.72,57v0ZM95,56.55q-1.88,0-3.85-.1l-.22,0-.17,0-.2,0,6.21-4,0,0a2.77,2.77,0,0,0,2.32,1,3.65,3.65,0,0,0,1.58-.6c1.12-.82,1.31-2,.56-3.74l0-.05,7.22-6.35-.06.23c-.1.44-.2.86-.29,1.27-.19.86-.37,1.68-.61,2.47-.53,1.72-1.09,3.47-1.63,5.16-.35,1.1-.71,2.2-1.06,3.3a1.06,1.06,0,0,1-1,.83A59,59,0,0,1,95,56.55Zm-4-.28.18,0a62.34,62.34,0,0,0,12.65-.53.91.91,0,0,0,.86-.73q.52-1.65,1.06-3.3c.54-1.69,1.11-3.43,1.63-5.16.24-.79.42-1.6.61-2.46.07-.34.15-.68.23-1l-6.77,6c.75,1.74.55,3-.63,3.87a3.75,3.75,0,0,1-1.64.63,2.86,2.86,0,0,1-2.41-1Zm-2.14,0c-.36,0-.66-.24-1-.73a59.84,59.84,0,0,1-6.81-15.3,1.87,1.87,0,0,1-.06-.81c.4-2.5.78-4.78,1.15-7a1.28,1.28,0,0,1,.37-.65A85.15,85.15,0,0,1,102,17.28a.77.77,0,0,1,1.19.31,63.89,63.89,0,0,1,6.4,13.77,4.32,4.32,0,0,1,.25,2.23c-.21,1.31-.41,2.64-.61,3.93-.17,1.13-.35,2.3-.53,3.46a1.37,1.37,0,0,1-.4.76c-2.44,2.2-4.88,4.36-7.17,6.38-.41.37-.47.34-1.13,0l0,0a2.61,2.61,0,0,0-2.65.39,2.58,2.58,0,0,0-1,2.67c.05.29.1.55-.27.79l-3,1.89L89.69,56A1.64,1.64,0,0,1,88.85,56.31Zm13.71-39a1,1,0,0,0-.45.14A85,85,0,0,0,82.63,32a1.14,1.14,0,0,0-.32.57c-.38,2.17-.75,4.45-1.15,6.95a1.71,1.71,0,0,0,.05.74A59.69,59.69,0,0,0,88,55.5c.48.75.86.84,1.6.38,1.13-.71,2.28-1.44,3.39-2.14l3-1.89c.27-.17.26-.33.2-.63A2.9,2.9,0,0,1,100.07,48l0,0c.63.29.63.29,1,0,2.29-2,4.73-4.19,7.17-6.38a1.23,1.23,0,0,0,.35-.67c.18-1.15.36-2.32.53-3.45.2-1.29.4-2.62.61-3.93a4.18,4.18,0,0,0-.24-2.15,63.76,63.76,0,0,0-6.38-13.74C102.93,17.4,102.77,17.27,102.57,17.27ZM87.4,56.14l-.17,0L86,55.92c-.93-.14-1.82-.27-2.69-.42-.41-.07-.83-.17-1.23-.26s-.76-.17-1.14-.24a.53.53,0,0,1-.51-.59c0-.31,0-.61,0-.92s0-.84-.05-1.27a.81.81,0,0,1,.27-.54,1.47,1.47,0,0,0,.57-1.11,1.42,1.42,0,0,0-.58-1.06.77.77,0,0,1-.29-.54c.11-2,.25-4.06.38-6l0-.58a.18.18,0,0,1,.07-.12l.06-.06.09-.1,0,.13A60.4,60.4,0,0,0,87.31,56ZM80.83,42.38h0l0,.56c-.13,2-.26,4-.38,6a.64.64,0,0,0,.23.42,1.57,1.57,0,0,1,.63,1.17,1.62,1.62,0,0,1-.62,1.23.66.66,0,0,0-.22.43c0,.42,0,.85.05,1.26s0,.62,0,.92.1.39.38.44.78.16,1.15.24.82.19,1.23.26c.88.15,1.76.28,2.69.42l1.1.16A60.55,60.55,0,0,1,80.83,42.38Zm24.42,13.29a.21.21,0,0,1-.1,0l-.06,0-.06,0,0-.07c.12-.35.25-.7.37-1,.27-.75.56-1.53.78-2.31.52-1.85,1-3.73,1.53-5.56q.53-1.94,1.06-3.88a2.1,2.1,0,0,1,.45-.86c.56-.61,1.15-1.2,1.77-1.82l.73-.74.11-.11,0,.15c.06.41.13.8.19,1.19.14.84.27,1.63.36,2.43a50.19,50.19,0,0,1,.31,10.39.81.81,0,0,1-.43.63c-2,.51-4.1,1-6.1,1.48l-.93.22Zm0-.18h0l0,0,.91-.22c2-.47,4.07-1,6.1-1.48a.69.69,0,0,0,.31-.49A50.06,50.06,0,0,0,112.27,43c-.09-.8-.22-1.59-.36-2.42-.06-.34-.11-.69-.17-1l-.63.64c-.62.62-1.2,1.21-1.76,1.82a2,2,0,0,0-.42.8q-.54,1.94-1.06,3.88c-.5,1.82-1,3.71-1.53,5.56-.22.79-.51,1.57-.78,2.33Zm-25.16-.73-.1,0-.58-.17-1.15-.34A45.82,45.82,0,0,1,70.37,51l-.3-.16c-.92-.49-.94-.53-.59-1.26.07-.14.15-.31.23-.51a38.46,38.46,0,0,1,4.69-7.67c.94-1.27,1.94-2.52,2.91-3.73l1.18-1.48a3.22,3.22,0,0,1,.28-.3l.15-.15.09-.09,0,.13c.14.49.28,1,.42,1.44.35,1.21.69,2.34,1,3.52a3.75,3.75,0,0,1,0,1.36c0,.21-.07.43-.08.65-.11,1.54-.22,3.08-.34,4.65l-.14,1.87,0,0c-.86.28-1.26.71-1.25,1.36s.43,1.11,1.34,1.34h.05ZM78.94,35.9l-.06.06a3.09,3.09,0,0,0-.27.29l-1.18,1.48c-1,1.21-2,2.46-2.91,3.73a38.33,38.33,0,0,0-4.67,7.64c-.09.21-.17.38-.24.52-.3.62-.3.62.53,1.06l.3.16a45.66,45.66,0,0,0,7.83,3.25l1.14.34.47.14-.13-2.48c-.93-.25-1.39-.74-1.4-1.47s.41-1.19,1.31-1.49l.13-1.77c.11-1.56.22-3.1.34-4.65,0-.22.05-.44.08-.66a3.63,3.63,0,0,0,0-1.31c-.26-1.18-.6-2.31-1-3.52Zm34.6,17.67v-.11c0-.62,0-1.24,0-1.84,0-1.37,0-2.66-.07-4-.2-2.47-.53-5-.85-7.39l-.15-1.11a1.35,1.35,0,0,1,.32-1.14l1.62-2c1.56-1.94,3.18-4,4.63-6a32.48,32.48,0,0,0,2.26-4c.3-.59.61-1.21.94-1.8.07-.12.12-.25.2-.42l.16-.35,0-.09.87.74c1,.84,1.91,1.63,2.84,2.45a.69.69,0,0,1,.08.61,2.94,2.94,0,0,0,.39,2.8,3.1,3.1,0,0,0,2.81,1h.06l0,.05c1.3,3,1.62,5.33,1,7.69A16.07,16.07,0,0,1,126.34,46c-3.14,3.17-7.06,5.48-12.7,7.5Zm9.17-30-.11.25c-.08.18-.14.3-.21.43-.32.59-.63,1.21-.93,1.8a32.61,32.61,0,0,1-2.27,4c-1.46,2.08-3.07,4.09-4.64,6l-1.62,2a1.2,1.2,0,0,0-.29,1l.15,1.11c.32,2.42.65,4.93.85,7.4.11,1.32.09,2.61.07,4,0,.56,0,1.15,0,1.73,5.56-2,9.43-4.3,12.54-7.43a15.91,15.91,0,0,0,4.35-7.35c.59-2.31.29-4.64-1-7.54a3.23,3.23,0,0,1-2.88-1,3.09,3.09,0,0,1-.42-2.94.58.58,0,0,0,0-.45c-.92-.82-1.85-1.61-2.84-2.45ZM68.56,49.93l-.08-.06-.86-.68c-.62-.49-1.21-1-1.78-1.45a15.85,15.85,0,0,1-5-6.59,11.86,11.86,0,0,1,.79-9.93.38.38,0,0,1,.1-.11l0,0,0,0,0,0c2.2,1.17,3.91,1.07,5.25-.29s1.45-3,0-5.52l0-.05,0,0c1.79-1.68,8.31-5.05,10.57-5.48l.09,0v.09q0,.59,0,1.18c0,.84,0,1.71-.05,2.56a49.12,49.12,0,0,0,1.05,10.61,1.06,1.06,0,0,1-.29,1,74.17,74.17,0,0,0-7.91,10.74c-.43.73-.8,1.51-1.16,2.27-.16.35-.33.7-.5,1l-.18.38Zm-6.73-18.7h0l-.06.06A11.72,11.72,0,0,0,61,41.1a15.71,15.71,0,0,0,4.95,6.53c.57.49,1.16,1,1.78,1.44l.78.62.08-.18.18-.38c.17-.34.33-.69.5-1,.36-.76.73-1.55,1.17-2.28A74.33,74.33,0,0,1,78.35,35a.92.92,0,0,0,.26-.9,49.27,49.27,0,0,1-1.06-10.64c0-.85,0-1.72.05-2.56,0-.36,0-.72,0-1.09a36.18,36.18,0,0,0-10.36,5.38c1.43,2.51,1.4,4.15-.07,5.65S64.07,32.41,61.83,31.23ZM109.16,41l1.07-7.15.22-.05,0,.07c.07.25.12.5.18.74a9.39,9.39,0,0,0,.47,1.59,2.86,2.86,0,0,1-1,3.81,3.58,3.58,0,0,0-.5.48l-.31.34Zm1.2-7-1,6.51.14-.16a3.73,3.73,0,0,1,.52-.5,2.69,2.69,0,0,0,.94-3.63,9.52,9.52,0,0,1-.48-1.62C110.46,34.41,110.41,34.2,110.36,34ZM80.53,38.53l0-.08c-.06-.23-.11-.46-.17-.69a11.9,11.9,0,0,0-.43-1.51,1.89,1.89,0,0,1,.65-2.41,5.22,5.22,0,0,0,.62-.62l.36-.39.17-.18-1,5.8Zm1-5.41-.19.2a5.34,5.34,0,0,1-.64.63,1.73,1.73,0,0,0-.6,2.24,12,12,0,0,1,.43,1.53l.13.53Zm30.73,4.55L112,36.8c-.13-.52-.26-1-.39-1.49l-.13-.5a10.69,10.69,0,0,0-.41-1.36,7.54,7.54,0,0,1-.45-3.65,60.46,60.46,0,0,0,0-11.24v-.11l.1,0A36.58,36.58,0,0,1,121.92,23l.05,0,0,.06c-2.23,5.65-6,10.24-9.64,14.46Zm-1.41-19a60.64,60.64,0,0,1-.06,11.17,7.4,7.4,0,0,0,.44,3.58,10.75,10.75,0,0,1,.42,1.38l.13.5c.13.49.26,1,.39,1.49l.16.6c3.61-4.16,7.3-8.69,9.5-14.25A36.4,36.4,0,0,0,110.8,18.64ZM79.4,34l0-.15c-.07-.4-.13-.79-.2-1.17-.14-.81-.27-1.57-.37-2.34A55.07,55.07,0,0,1,78.49,20a.74.74,0,0,1,.66-.8c1.43-.34,2.89-.71,4.29-1.06l2-.49.38-.07.25,0,.13,0,0,.12-.36,1c-.25.69-.49,1.35-.75,2a70.4,70.4,0,0,0-2.87,10.21,2,2,0,0,1-.46.86c-.48.52-1,1-1.51,1.55l-.66.67Zm6.52-16.32-.12,0-.36.06-2,.49c-1.41.35-2.86.72-4.29,1.06a.59.59,0,0,0-.55.66A54.92,54.92,0,0,0,79,30.37c.1.77.23,1.53.37,2.33l.17,1,.55-.56c.53-.53,1-1,1.5-1.55a1.8,1.8,0,0,0,.42-.79,70.54,70.54,0,0,1,2.88-10.24c.25-.66.49-1.31.75-2Zm-3.4,13,.06-.24c.1-.43.19-.85.29-1.28.2-.93.41-1.89.7-2.81.85-2.69,1.79-5.39,2.7-8l.16-.46a1,1,0,0,1,.65-.52,62,62,0,0,1,13.59-.49.22.22,0,0,1,.12.06l.11.08.1.07-.11.06A89.65,89.65,0,0,0,82.7,30.55ZM96.21,16.89a65.6,65.6,0,0,0-9.11.66.79.79,0,0,0-.53.42l-.16.46c-.91,2.62-1.85,5.32-2.7,8-.29.91-.5,1.87-.7,2.8-.08.35-.15.7-.23,1a89.49,89.49,0,0,1,17.93-13.17h0l0,0C99.18,16.95,97.71,16.89,96.21,16.89Zm13.94,13.68-.11-.3a66.23,66.23,0,0,0-6-12.77l0,0,.09-.31,1.18.22c1.55.28,3.15.58,4.72.89.19,0,.34.44.35.64v.44c.06,2.36.12,4.8.13,7.2a34.83,34.83,0,0,1-.26,3.7Zm-6-13.12a65.34,65.34,0,0,1,5.93,12.46,31.88,31.88,0,0,0,.22-3.36c0-2.4-.07-4.84-.13-7.2v-.44a.71.71,0,0,0-.22-.49c-1.57-.32-3.17-.61-4.71-.89l-1-.19Zm18,5.05-.08,0-.55-.32-1.05-.59A38.7,38.7,0,0,0,111,18c-.31-.08-.49-.19-.54-.56-.1-.89-.22-1.77-.35-2.7L110,13.66v-.06l.06,0,.45-.14,1-.29a19.72,19.72,0,0,1,6.13-.89,8,8,0,0,1,2,.37c2.29.76,3.28,2.12,3.4,4.67a14,14,0,0,1-.92,5.12Zm-12-8.8.13,1c.12.93.24,1.81.35,2.71,0,.28.14.36.42.43a38.85,38.85,0,0,1,9.49,3.59l1.05.59.47.27a13.73,13.73,0,0,0,.88-5c-.12-2.48-1.07-3.79-3.29-4.53a7.83,7.83,0,0,0-2-.36,19.66,19.66,0,0,0-6.09.88l-1,.29ZM78.52,18.79l0-.11c.09-.42.16-.84.24-1.25.17-.92.33-1.79.56-2.65a16.29,16.29,0,0,1,2.47-5.55,7.5,7.5,0,0,1,9.08-2.9l.59.21.31.12.09,0,0,.08-.71,1.13c-.52.82-1,1.59-1.44,2.41-.64,1.21-1.25,2.46-1.85,3.68-.4.81-.81,1.65-1.22,2.47A1.12,1.12,0,0,1,86,17c-1.84.47-3.73.93-5.54,1.37L79,18.7l-.18,0-.21,0ZM88,6a7.32,7.32,0,0,0-6.07,3.34,16.14,16.14,0,0,0-2.44,5.5c-.22.86-.39,1.73-.56,2.64-.07.38-.14.76-.22,1.15l.11,0,.17,0,1.42-.35c1.82-.44,3.7-.9,5.54-1.37a1,1,0,0,0,.52-.46c.41-.82.82-1.65,1.22-2.46.59-1.21,1.21-2.46,1.85-3.68.43-.82.92-1.6,1.44-2.42l.66-1-.23-.08-.58-.21A8.83,8.83,0,0,0,88,6Zm22.21,11.7-6.95-1.14,6.39-2.92Zm-6.43-1.21,6.25,1-.51-3.65Zm-17,.41.06-.13.27-.6c.17-.39.32-.73.5-1.05l2.19-4,2-3.65A.86.86,0,0,1,92.31,7,1,1,0,0,1,93,7.2a26.5,26.5,0,0,1,8,7.29,18.19,18.19,0,0,1,1.21,1.82l.07.13h-.15a68.28,68.28,0,0,0-15.27.43Zm5.69-9.72h-.11c-.14,0-.27.17-.4.4l-2,3.65-2.19,4c-.18.32-.33.66-.5,1l-.21.48a68.42,68.42,0,0,1,15-.43,18.45,18.45,0,0,0-1.13-1.68,26.35,26.35,0,0,0-8-7.25A1.05,1.05,0,0,0,92.46,7.15Zm10.64,8.7,0,0-1.38-1.63c-1-1.22-2.1-2.48-3.22-3.65a19.33,19.33,0,0,0-5.65-4.19l-.09,0,1.78-2,.06.05c1.11,1,2.15,1.14,3.2.34.82-.62,1-1.54.52-2.81l0-.06.06,0a5.6,5.6,0,0,1,6.38.94,11.39,11.39,0,0,1,2.93,4.24c.52,1.27,1,2.59,1.32,3.73.16.51.28,1,.39,1.54,0,.22.1.44.15.65v.06ZM93,6.24a19.52,19.52,0,0,1,5.6,4.18c1.12,1.17,2.19,2.44,3.22,3.66l1.34,1.58,6.19-2.83-.13-.59c-.11-.5-.23-1-.39-1.52-.37-1.14-.8-2.46-1.31-3.72a11.24,11.24,0,0,0-2.89-4.19,5.45,5.45,0,0,0-6.15-1,2.35,2.35,0,0,1-.6,2.92,2.38,2.38,0,0,1-3.34-.3Z"/><circle class="cls-3" cx="64.21" cy="28.32" r="4.16"/><path class="cls-3" d="M64.21,32.56a4.24,4.24,0,1,1,4.24-4.24A4.24,4.24,0,0,1,64.21,32.56Zm0-8.33a4.09,4.09,0,1,0,4.09,4.09A4.09,4.09,0,0,0,64.21,24.23Z"/><circle class="cls-3" cx="96.78" cy="2.88" r="2.83"/><path class="cls-3" d="M96.78,5.76a2.88,2.88,0,1,1,2.88-2.88A2.88,2.88,0,0,1,96.78,5.76Zm0-5.66a2.78,2.78,0,1,0,2.78,2.78A2.78,2.78,0,0,0,96.78.1Z"/><circle class="cls-3" cx="80.05" cy="50.6" r="1.59"/><path class="cls-3" d="M80.05,52.21a1.62,1.62,0,1,1,1.62-1.62A1.62,1.62,0,0,1,80.05,52.21Zm0-3.18a1.56,1.56,0,1,0,1.56,1.56A1.56,1.56,0,0,0,80.05,49Z"/><circle class="cls-3" cx="99.04" cy="50.81" r="3.6"/><path class="cls-3" d="M99,54.48a3.67,3.67,0,1,1,3.67-3.67A3.67,3.67,0,0,1,99,54.48Zm0-7.21a3.54,3.54,0,1,0,3.54,3.54A3.54,3.54,0,0,0,99,47.27Z"/><circle class="cls-3" cx="129.49" cy="28.38" r="3.6"/><path class="cls-3" d="M129.49,32a3.67,3.67,0,1,1,3.67-3.67A3.67,3.67,0,0,1,129.49,32Zm0-7.21A3.54,3.54,0,1,0,133,28.38,3.54,3.54,0,0,0,129.49,24.84Z"/><path class="cls-4" d="M50.87,41.19h-7l-1.22,4H37.21L45,24h5.49l7.13,21.16H52.11ZM45.1,37.26h4.55l-2.28-7.34Z"/><path class="cls-4" d="M61,38.29l2.62-8.86h5.25L62.41,47.78l-.28.67A4.87,4.87,0,0,1,57.3,51.5a7.67,7.67,0,0,1-2-.29V47.72h.64a3.35,3.35,0,0,0,1.58-.3,1.81,1.81,0,0,0,.81-1.07l.39-1L53.24,29.42h5.23Z"/><path class="cls-4" d="M74,45.15H69.38V29.42H74.3v11a2.56,2.56,0,0,0,2.4,1.21,1.76,1.76,0,0,0,2-2V29.42h4.9V39.61a6.33,6.33,0,0,1-1.33,4.32,5,5,0,0,1-3.92,1.5,5,5,0,0,1-4.2-2Z"/><path class="cls-4" d="M84.08,37.17a9.61,9.61,0,0,1,1.61-5.89,5.31,5.31,0,0,1,4.5-2.15,4.52,4.52,0,0,1,3.55,1.66v-8h4.91V45.15h-4.4L94,43.46a4.64,4.64,0,0,1-3.84,2,5.3,5.3,0,0,1-4.45-2.15A9.91,9.91,0,0,1,84.08,37.17Zm4.9.31q0,4.19,2.44,4.19a2.41,2.41,0,0,0,2.33-1.37v-6a2.35,2.35,0,0,0-2.3-1.4q-2.27,0-2.46,3.66Z"/><path class="cls-5" d="M119,29.42V45.15h-4.9V34A2.34,2.34,0,0,0,112,32.91a2.22,2.22,0,0,0-1.74.56,2.65,2.65,0,0,0-.48,1.75v9.93h-4.91V35a7,7,0,0,1,1.26-4.42,4.49,4.49,0,0,1,3.67-1.47,5.33,5.33,0,0,1,4.49,2.14l.16-1.85Z"/><path class="cls-5" d="M119.61,37.17a10.62,10.62,0,0,1,.78-4.21,6.32,6.32,0,0,1,2.25-2.83,5.94,5.94,0,0,1,3.42-1,4.72,4.72,0,0,1,3.84,1.66l.17-1.37h4.45V44.55a6.63,6.63,0,0,1-1,3.61,6.2,6.2,0,0,1-2.8,2.35,10.29,10.29,0,0,1-4.24.82,8.87,8.87,0,0,1-3.35-.65,6,6,0,0,1-2.48-1.7l2-2.88a4.49,4.49,0,0,0,3.6,1.61q3.25,0,3.26-3.34v-.49A4.6,4.6,0,0,1,126,45.44a5.68,5.68,0,0,1-4.65-2.2,9.12,9.12,0,0,1-1.77-5.89Zm4.91.31a5.59,5.59,0,0,0,.73,3.06,2.29,2.29,0,0,0,2,1.13,2.6,2.6,0,0,0,2.31-1.06V34a2.54,2.54,0,0,0-2.28-1.08,2.31,2.31,0,0,0-2,1.17A6.38,6.38,0,0,0,124.52,37.47Z"/><path class="cls-5" d="M144.61,45.07a5.52,5.52,0,0,1-.47-1.41,4.55,4.55,0,0,1-3.78,1.7A5.58,5.58,0,0,1,136.59,44,4.28,4.28,0,0,1,135,40.63a4.4,4.4,0,0,1,1.89-3.87,9.62,9.62,0,0,1,5.49-1.31h1.51v-.83q0-2.18-1.87-2.18a1.53,1.53,0,0,0-1.74,1.72h-4.9a4.39,4.39,0,0,1,1.94-3.7,8.15,8.15,0,0,1,4.95-1.42,7.15,7.15,0,0,1,4.75,1.47,14.06,14.06,0,0,1,1.79,2.17v7c0,3.3.24,4.41.67,5.17v.25Zm-3.07-3.2a2.73,2.73,0,0,0,1.52-.39,2.46,2.46,0,0,0,.86-.89V38.08h-1.42q-2.56,0-2.56,2.3a1.4,1.4,0,0,0,.45,1.08A1.63,1.63,0,0,0,141.55,41.87Z"/><path class="cls-5" d="M25.07,9H2.58A2.41,2.41,0,0,0,.71,10,2.43,2.43,0,0,0,0,11.64v23c0,2.22,1,9.26,9.95,9.26.72,0,1.31,0,1.8,0h9.47A14,14,0,0,1,33.73,51.7a.49.49,0,0,0,.92-.24V17.4s0,0,0,0C33.89,8.58,25.07,9,25.07,9Zm2.87,27.75a.49.49,0,0,1-.45.46c-2.58.21-16.13,1.06-19-3.84s-2-14.81-1.77-17A.49.49,0,0,1,7.15,16c2.55-.11,16-.53,18.67,3S28.06,34.36,27.95,36.76Z"/><path class="cls-5" d="M13,25.4c.24,1.23.74,2.08,1.32,2.08.81,0,1.47-1.66,1.47-3.71a7.18,7.18,0,0,0-.47-2.71v0c-.26-.61-.61-1-1-1h-.06c-.31,0-.6.31-.83.76h0a6.75,6.75,0,0,0-.57,2.93,8.6,8.6,0,0,0,.15,1.6Z"/><path class="cls-5" d="M21.13,29.47l0,0c-.74-.52-2.37.13-4,0-1.77.09-3.5-.65-4.16.07-.54.49.19,2.32,1.95,3.26h0a4.75,4.75,0,0,0,2.2.54c3.3,0,4.89-3.15,4.16-3.81Z"/><ellipse class="cls-5" cx="19.9" cy="23.77" rx="1.44" ry="3.71"/><path class="cls-5" d="M104.09,36.75V31.11a2.23,2.23,0,0,0-2.23-2.23h0a2.23,2.23,0,0,0-2.23,2.23V38.8Z"/><path class="cls-5" d="M99.64,44.78A2.23,2.23,0,0,0,101.86,47h0a2.23,2.23,0,0,0,2.23-2.23V37.91l-4.45,2Z"/><path class="cls-5" d="M140.1,47.56a.81.81,0,0,1-1.41.56,1.29,1.29,0,0,0-1.84.17,1.81,1.81,0,0,0,0,2.31,1.29,1.29,0,0,0,1,.47,1.27,1.27,0,0,0,.85-.32.8.8,0,0,1,.57-.23.82.82,0,0,1,.81.81.76.76,0,0,1-.24.58,2.63,2.63,0,0,1-2,.89,2.6,2.6,0,0,1-1.47-.45,3.17,3.17,0,0,1-1.07-1.23,3.82,3.82,0,0,1,0-3.38,3.17,3.17,0,0,1,1.07-1.23,2.6,2.6,0,0,1,1.47-.45,2.67,2.67,0,0,1,2,.9h0A.77.77,0,0,1,140.1,47.56Z"/><path class="cls-5" d="M141.3,47.05a2.69,2.69,0,0,1,4.17,0,3.71,3.71,0,0,1,0,4.76,2.69,2.69,0,0,1-4.17,0,3.71,3.71,0,0,1,0-4.76Zm1.07,3.53a1.31,1.31,0,0,0,2,0,1.8,1.8,0,0,0,0-2.3,1.31,1.31,0,0,0-2,0,1.8,1.8,0,0,0,0,2.3Z"/><path class="cls-5" d="M152.18,48.08a2,2,0,0,1-.4,1.2,2,2,0,0,1-1,.73l.63,1.55,0,.1,0,.1a1.17,1.17,0,0,1,0,.2.81.81,0,0,1-.25.6.82.82,0,0,1-.6.25.79.79,0,0,1-.72-.41h0a1.13,1.13,0,0,1-.08-.2l-.77-1.91h-.81V52a.8.8,0,0,1-1.6,0V46.86h0a.84.84,0,0,1,.27-.56.81.81,0,0,1,.57-.23h2.66a2,2,0,0,1,2,2Zm-2.09.73a.5.5,0,0,0,.37-.16.52.52,0,0,0,.16-.37.53.53,0,0,0-.53-.53h-1.83v1.06h1.83Z"/><path class="cls-5" d="M156.28,47.54H154V48.7h1.88a.74.74,0,0,1,.74.74.72.72,0,0,1-.22.53.71.71,0,0,1-.52.22H154v1h1.81a.82.82,0,0,1,0,1.64H153.1v0a.72.72,0,0,1-.4-.25.69.69,0,0,1-.17-.43h0V46.77a.71.71,0,0,1,.23-.5.74.74,0,0,1,.51-.21h3a.72.72,0,0,1,.52.21.7.7,0,0,1,.22.52.74.74,0,0,1-.74.74Z"/></svg>