<svg id="Layer_1" data-name="Layer 1" xmlns="http://www.w3.org/2000/svg" xmlns:xlink="http://www.w3.org/1999/xlink" viewBox="0 0 160 160"><defs><style>.cls-1{opacity:0.3;}.cls-2{fill:url(#Orange_Yellow_2);}.cls-3{fill:url(#Orange_Yellow_2-2);}</style><linearGradient id="Orange_Yellow_2" x1="5.64" y1="80" x2="154.34" y2="80" gradientUnits="userSpaceOnUse"><stop offset="0" stop-color="#fcef44"/><stop offset="0.04" stop-color="#fce335"/><stop offset="0.12" stop-color="#fdd322"/><stop offset="0.2" stop-color="#fdca17"/><stop offset="0.28" stop-color="#fdc713"/><stop offset="0.67" stop-color="#f29140"/><stop offset="0.89" stop-color="#ed683c"/><stop offset="1" stop-color="#e93f3a"/></linearGradient><linearGradient id="Orange_Yellow_2-2" x1="5.49" y1="80" x2="154.51" y2="80" xlink:href="#Orange_Yellow_2"/></defs><title>logoArtboard 1mt</title><g class="cls-1"><path class="cls-2" d="M109.33,29.61c4.48-.8,8.79-1.76,13.16-2.28a18.89,18.89,0,0,1,6.54.5c5.76,1.39,8.55,4.9,9,10.81a27.43,27.43,0,0,1-1.67,10.67,1.58,1.58,0,0,0,.73,2.13c2.5,1.85,4.91,3.82,7.43,5.81,4-2.1,6.87-1.78,8.81,1.09s1.17,5.8-2,8.45c.51,1.37,1.07,2.75,1.54,4.17C155.2,78,153.9,84.72,150.28,91c-4.54,7.9-11.34,13.5-19.21,17.77-4.27,2.31-8.86,4-13.34,6a1.79,1.79,0,0,0-1.33,1.65,43.51,43.51,0,0,1-6.11,18.48c-5.2,8.27-12.94,10.93-22.11,7.56a1.67,1.67,0,0,0-2.32.72A34.32,34.32,0,0,1,74.67,153c-6.15,3.29-11.39,2.38-16.1-2.74-3.29-3.58-5.17-7.95-6.71-12.45-1-3-1.77-6.07-2.69-9.26l-1.25.35c-4.7,1.34-9.43,2.57-14.39,1.91-3.56-.47-7-1.35-9.35-4.4a13.15,13.15,0,0,1-2.57-8.07,25.88,25.88,0,0,1,1.7-9.54,1.61,1.61,0,0,0-.68-2.24A51.38,51.38,0,0,1,11.31,95.89C4.66,87,3.93,77.59,8.73,67.68a2.28,2.28,0,0,0-.09-2.49,7.87,7.87,0,0,1,1.18-9.36,8,8,0,0,1,9.4-1.74A1.38,1.38,0,0,0,20.89,54c6.75-4.74,13.84-8.82,21.78-11.29.37-.11.73-.82.78-1.29a44.72,44.72,0,0,1,4.28-15.33,29.55,29.55,0,0,1,4.39-6.63c5.37-5.82,12-6.74,19.22-4.15,1.93.69,1.92.71,3.25-.85a11.56,11.56,0,0,1,1-1.12,3.46,3.46,0,0,0,1.33-3.52,3.94,3.94,0,0,1,2.38-4.18,4.57,4.57,0,0,1,4.76.19,2,2,0,0,0,1.53.24C91.18,4,96,5.26,100.12,9.41c3.69,3.71,5.72,8.35,7.28,13.23C108.15,25,108.73,27.44,109.33,29.61ZM89,102.43c1.42.66,1.44.69,2.23,0Q98.64,95.88,106,89.3a2.68,2.68,0,0,0,.76-1.47c.81-5.06,1.53-10.13,2.35-15.18a8.73,8.73,0,0,0-.5-4.5c-3.54-9.82-7.39-19.48-13.14-28.27a1.44,1.44,0,0,0-2.24-.58c-14.92,7.92-28,18.23-40.1,30a2.49,2.49,0,0,0-.71,1.26q-1.23,7.14-2.37,14.29a3.68,3.68,0,0,0,.11,1.59,123.16,123.16,0,0,0,14,31.41c1,1.58,1.88,1.84,3.51.82,4.38-2.73,8.72-5.54,13.09-8.28.64-.4.6-.83.49-1.46A5.8,5.8,0,0,1,89,102.43Zm27.92,11.11c9.68-3.47,18.71-8,26-15.39A33,33,0,0,0,152,83c1.42-5.55.14-10.69-2.08-15.7-5.15.55-8.23-3.19-6.74-7.93a1.29,1.29,0,0,0-.11-1.09c-2.41-2.13-4.87-4.21-7.46-6.42-.36.77-.53,1.19-.74,1.58-2.16,4-4,8.22-6.58,11.91-4,5.72-8.53,11.08-12.87,16.57a2.62,2.62,0,0,0-.63,2.22c.77,5.82,1.58,11.64,2.06,17.49C117.14,105.5,116.92,109.46,116.94,113.53ZM21.48,55.47c3,5.19,3,8.46-.06,11.54-2.81,2.87-6.36,3.08-11,.62a1.19,1.19,0,0,0-.24.25C6.81,74.42,6,81.19,8.6,88.17c2,5.51,5.84,9.74,10.22,13.49,1.73,1.48,3.53,2.85,5.42,4.37.28-.6.44-1,.62-1.33,1.13-2.28,2.12-4.63,3.41-6.81a153.16,153.16,0,0,1,16.28-22.1,2,2,0,0,0,.57-2A100.58,100.58,0,0,1,43,51.95c0-2.56.12-5.12.18-7.69C38.46,45.13,25.13,52,21.48,55.47ZM50.16,128.4c1.09,3.57,2.09,7.3,3.39,10.93a28.11,28.11,0,0,0,6.62,11.06c3.72,3.61,7.86,4.44,12.61,2.33C78,150.39,82,146.57,85.42,142a2.57,2.57,0,0,0,.23-.58C76.86,137,70.4,130.05,65,122.21Zm35.41-121c1,2.62.63,4.61-1.13,6-2.38,1.82-4.65,1.29-6.79-.71l-3.41,3.88a39.88,39.88,0,0,1,11.66,8.65c3.32,3.47,6.32,7.23,9.46,10.86l12.94-5.92c-.34-1.42-.63-3-1.11-4.48-.83-2.58-1.68-5.15-2.7-7.65a23.19,23.19,0,0,0-6-8.66A11.41,11.41,0,0,0,85.57,7.38ZM111,41.74a125,125,0,0,1-.1,23.14,15.41,15.41,0,0,0,.92,7.44,34.2,34.2,0,0,1,1.12,3.84c.4,1.46.77,2.92,1.21,4.59,8-9.17,15.35-18.39,19.8-29.68A75,75,0,0,0,111,41.74Zm-63.66,63c.33-4.5.64-8.9,1-13.29.1-1.37.55-2.81.27-4.09-.76-3.4-1.83-6.72-2.82-10.2-.34.35-.64.61-.89.92-2.81,3.56-5.69,7.06-8.4,10.7a78.48,78.48,0,0,0-9.62,15.74c-1.17,2.74-1.6,2.23,1.28,3.78A94.26,94.26,0,0,0,44.23,115c1.13.36,2.28.67,3.54,1l-.28-5.44c-2-.5-2.86-1.44-2.87-2.91S45.47,105.3,47.31,104.7ZM72,17.44c-.68-.25-1.26-.48-1.85-.68-7.41-2.52-13.94-.44-18.49,5.9a33.81,33.81,0,0,0-5,11.36C46,36.61,45.55,39.27,45,42c.49-.09.65-.11.81-.14,4.77-1.17,9.55-2.31,14.32-3.53a2.14,2.14,0,0,0,1.18-1c2.13-4.2,4.12-8.46,6.31-12.63C68.9,22.26,70.48,20,72,17.44Zm42.92,98.39-.91.2c-4.7,1.11-9.39,2.25-14.1,3.29a2,2,0,0,0-1.67,1.38,117.08,117.08,0,0,1-9.58,18.5c-.26.4-.5.81-.75,1.23a2.71,2.71,0,0,0,.43.29c.67.24,1.33.5,2,.68,6.15,1.58,11.65.64,16.08-4.26,3.38-3.74,5.3-8.25,6.67-13C113.87,121.48,114.3,118.74,114.93,115.83Zm-24.24-77c-.27-.19-.33-.27-.4-.27a128.26,128.26,0,0,0-27.9,1,1.79,1.79,0,0,0-1.21,1c-2,5.78-4,11.56-5.88,17.4-.87,2.74-1.36,5.6-2,8.41C64.79,55.81,76.79,46.16,90.69,38.81Zm43.76,10.84a29,29,0,0,0,1.88-10.48c-.24-5.13-2.23-7.91-6.88-9.46A16.29,16.29,0,0,0,125.3,29c-4.3-.25-8.44.76-12.56,1.82-1,.27-2.05.59-3,.88.35,2.69.71,5.21,1,7.73.08.66.36.86,1,1a80.29,80.29,0,0,1,19.47,7.37C132.21,48.36,133.24,49,134.45,49.65ZM25.26,108.41c-1.5,4.22-2.47,8.38-1.58,12.74a8.71,8.71,0,0,0,5.93,7c6.68,2.32,13,.53,19.37-1.39-.34-2.92-.64-5.7-1-8.46a1.43,1.43,0,0,0-.87-.92,108.41,108.41,0,0,1-17.16-6.53C28.39,110.07,26.9,109.26,25.26,108.41ZM62,38.11a140.64,140.64,0,0,1,31.43-.89A36.8,36.8,0,0,0,91,33.49,54.73,54.73,0,0,0,74.56,18.55c-1.07-.62-1.7-.54-2.29.54-2.87,5.21-5.79,10.41-8.66,15.62C63.06,35.72,62.63,36.79,62,38.11Zm4.33,83c5.57,8,11.83,14.72,20.49,19a113.71,113.71,0,0,0,10.61-20.2,2.38,2.38,0,0,0-.46-.08,126.49,126.49,0,0,1-28.77,1A8.64,8.64,0,0,0,66.36,121.11Zm39.73-29.35L91.71,104.42c1.54,3.49,1.22,6.1-1.21,7.88a7.64,7.64,0,0,1-3.31,1.26c-2,.29-3.57-.78-4.9-2.11l-12.3,8c.39.05.59.1.79.11a129.06,129.06,0,0,0,26-1.09,2,2,0,0,0,1.89-1.6c1.83-5.8,3.75-11.57,5.53-17.39C105,97,105.42,94.55,106.09,91.76Zm-6.6,26c.14.07.22.14.29.13,4.82-1.14,9.64-2.28,14.45-3.49a1.54,1.54,0,0,0,.76-1.15,102.78,102.78,0,0,0-.65-21.33c-.28-2.42-.72-4.82-1.13-7.45-1.85,1.89-3.53,3.54-5.14,5.27a4.21,4.21,0,0,0-.89,1.7c-1.79,6.46-3.5,12.94-5.33,19.39C101.19,113.2,100.28,115.48,99.49,117.78ZM46.71,73.29c1.63-1.66,3.08-3.07,4.44-4.56A3.85,3.85,0,0,0,52.06,67,143.79,143.79,0,0,1,58,46c.77-2,1.49-4,2.28-6.14-.55.09-.92.13-1.28.21-4.28,1.07-8.55,2.16-12.84,3.19a1.37,1.37,0,0,0-1.24,1.5,112.41,112.41,0,0,0,.66,21.31C45.85,68.41,46.29,70.73,46.71,73.29Zm2.9,17.16c-.13.15-.22.2-.22.27-.3,4.53-.6,9.05-.85,13.58a1.45,1.45,0,0,0,.54,1,2.85,2.85,0,0,1,0,4.69,1.51,1.51,0,0,0-.5,1c0,1.5.15,3,.19,4.49a.94.94,0,0,0,.92,1.06c1.64.3,3.25.75,4.89,1,2.6.45,5.21.81,8.13,1.26A124.22,124.22,0,0,1,49.61,90.44ZM97.4,39.1l-.13.43c5.32,8.19,9,17.16,12.45,26.27a71,71,0,0,0,.53-7.58c0-5.24-.15-10.47-.28-15.71,0-.41-.32-1.11-.59-1.16C105.4,40.55,101.4,39.83,97.4,39.1ZM50,126.6l13.88-5.79-.11-.31L49,118Zm58.64-94.77L96.18,37.53l13.57,2.23ZM108,87.37a17,17,0,0,1,1.68-1.7c2.74-2,3.33-4.51,2-7.65a35.5,35.5,0,0,1-1.34-4.82l-.2,0ZM51.11,71.24a23.23,23.23,0,0,1-2,2.08,3.73,3.73,0,0,0-1.29,4.78A44,44,0,0,1,49,82.64l.18-.06Z"/><path class="cls-3" d="M67.85,155.05c-3.39,0-6.49-1.57-9.39-4.72-3.45-3.76-5.35-8.43-6.74-12.51-.7-2.06-1.27-4.12-1.87-6.31-.25-.93-.51-1.86-.78-2.8l-.17,0L48,129c-5,1.43-9.58,2.56-14.45,1.91-3.45-.46-7-1.32-9.45-4.46a13.2,13.2,0,0,1-2.6-8.16,25.93,25.93,0,0,1,1.71-9.6,1.46,1.46,0,0,0-.62-2.06A51.21,51.21,0,0,1,11.18,96C4.6,87.2,3.72,77.65,8.59,67.61a2.13,2.13,0,0,0-.08-2.34,8,8,0,0,1,1.2-9.55,8.19,8.19,0,0,1,9.59-1.77,1.24,1.24,0,0,0,1.51,0c7.9-5.54,14.84-9.14,21.82-11.31.29-.09.63-.73.68-1.16A44.28,44.28,0,0,1,47.59,26,29.15,29.15,0,0,1,52,19.39c5.12-5.55,11.64-7,19.39-4.19l.06,0c1.77.63,1.77.63,3-.82l.25-.3a7.47,7.47,0,0,1,.76-.83,3.31,3.31,0,0,0,1.28-3.38c-.31-1.76.59-3.35,2.46-4.34a4.72,4.72,0,0,1,4.91.2,1.88,1.88,0,0,0,1.4.23C91,3.89,96,5,100.23,9.3c4,4,5.94,9,7.32,13.3.53,1.66,1,3.33,1.39,4.94.17.65.34,1.28.5,1.89l3.76-.71c3.17-.61,6.17-1.18,9.26-1.55a19,19,0,0,1,6.6.51c5.76,1.39,8.66,4.87,9.11,11a27.9,27.9,0,0,1-1.68,10.73,1.43,1.43,0,0,0,.67,2c1.8,1.32,3.5,2.69,5.31,4.13l2,1.62c4.06-2.09,7-1.71,8.92,1.19s1.22,5.9-2,8.58l.45,1.2c.36.93.72,1.9,1,2.87,2.23,6.7,1.39,13.3-2.57,20.2-4.15,7.22-10.45,13.05-19.27,17.83a109,109,0,0,1-10,4.56l-3.37,1.42a1.63,1.63,0,0,0-1.24,1.52A43.47,43.47,0,0,1,110.42,135c-5.22,8.29-13.13,11-22.3,7.62a1.52,1.52,0,0,0-2.14.67,34.21,34.21,0,0,1-11.24,9.85A14.68,14.68,0,0,1,67.85,155.05ZM49.28,128.32l0,.15c.29,1,.56,2,.82,3,.6,2.18,1.16,4.24,1.86,6.29,1.39,4,3.26,8.68,6.68,12.4,4.65,5.06,9.85,5.94,15.91,2.71a33.92,33.92,0,0,0,11.14-9.76,1.81,1.81,0,0,1,2.5-.77c9.14,3.37,16.72.78,21.92-7.49a43.16,43.16,0,0,0,6.09-18.41,1.93,1.93,0,0,1,1.42-1.77l3.38-1.42a108.86,108.86,0,0,0,9.95-4.54c8.77-4.75,15-10.54,19.15-17.71,3.91-6.81,4.75-13.33,2.54-19.94-.32-1-.69-1.93-1-2.86l-.49-1.3,0-.1.09-.07c3.12-2.59,3.82-5.51,2-8.24s-4.61-3.13-8.6-1l-.09,0-.08-.06-2.13-1.69c-1.81-1.44-3.51-2.8-5.3-4.12a1.73,1.73,0,0,1-.78-2.3,27.6,27.6,0,0,0,1.66-10.61c-.44-5.93-3.26-9.32-8.87-10.67a18.7,18.7,0,0,0-6.49-.5c-3.08.37-6.07.94-9.24,1.55-1.29.25-2.59.5-3.91.73l-.14,0,0-.14c-.18-.66-.36-1.34-.54-2-.42-1.61-.86-3.28-1.39-4.93-1.37-4.3-3.3-9.22-7.24-13.17-4.18-4.19-9-5.29-14.35-3.26A2.17,2.17,0,0,1,84,6a4.42,4.42,0,0,0-4.6-.19,3.76,3.76,0,0,0-2.3,4A3.63,3.63,0,0,1,75.7,13.5a7.22,7.22,0,0,0-.72.8l-.26.31c-1.36,1.59-1.42,1.6-3.36.91l-.06,0c-7.62-2.72-14-1.34-19.06,4.11a28.83,28.83,0,0,0-4.37,6.59,44,44,0,0,0-4.26,15.28c-.06.48-.43,1.28-.89,1.42-7,2.16-13.86,5.74-21.73,11.27a1.54,1.54,0,0,1-1.83.07,7.88,7.88,0,0,0-9.22,1.71,7.7,7.7,0,0,0-1.16,9.17,2.42,2.42,0,0,1,.09,2.64c-4.81,9.93-3.94,19.36,2.57,28a50.92,50.92,0,0,0,11.31,10.6,1.76,1.76,0,0,1,.73,2.42,25.63,25.63,0,0,0-1.69,9.49,12.9,12.9,0,0,0,2.53,8c2.39,3.05,5.86,3.89,9.24,4.34,4.82.64,9.34-.48,14.32-1.9l.93-.26ZM67.82,154a11,11,0,0,1-7.77-3.52c-2.8-2.72-4.92-6.25-6.66-11.12-.9-2.53-1.67-5.13-2.41-7.65-.33-1.11-.65-2.2-1-3.29l0-.14L65.07,122l.07.11c6.25,9.11,12.79,15.21,20.57,19.19l.13.06-.05.13c0,.07,0,.14-.07.21a1.32,1.32,0,0,1-.18.41c-3.82,5.12-8,8.64-12.71,10.74A12.32,12.32,0,0,1,67.82,154ZM50.35,128.49c.32,1,.63,2.09.94,3.15.74,2.51,1.5,5.11,2.4,7.63,1.73,4.82,3.82,8.32,6.58,11,3.72,3.61,7.79,4.36,12.43,2.3s8.8-5.56,12.58-10.64a1.08,1.08,0,0,0,.13-.31l0-.09c-7.75-4-14.26-10.07-20.49-19.12Zm45.2,13.77a21.1,21.1,0,0,1-5.23-.71,15.84,15.84,0,0,1-1.51-.5l-.52-.19a1,1,0,0,1-.27-.16l-.2-.14-.12-.08L88,140c.17-.28.34-.57.52-.84a116.22,116.22,0,0,0,9.57-18.48,2.2,2.2,0,0,1,1.78-1.47c3.49-.77,7-1.61,10.44-2.43l3.65-.87.42-.09.74-.16-.05.24c-.2.92-.38,1.82-.55,2.7-.39,1.95-.75,3.79-1.28,5.61-1.62,5.66-3.75,9.81-6.7,13.06A14.25,14.25,0,0,1,95.55,142.26Zm-7.42-1.87.09.06a.83.83,0,0,0,.19.12l.52.19c.48.18,1,.36,1.48.49,6.61,1.7,11.82.32,15.93-4.21,2.92-3.22,5-7.33,6.63-12.94.52-1.81.88-3.64,1.27-5.59.16-.81.32-1.63.5-2.47l-.26.06-.41.09-3.65.87c-3.42.81-7,1.65-10.45,2.43a1.9,1.9,0,0,0-1.56,1.28,116.5,116.5,0,0,1-9.59,18.53c-.18.27-.34.55-.51.83Zm-1.22-.09-.12-.06c-7.69-3.78-14-9.65-20.55-19l-.14-.2.24,0,.73-.16a3.92,3.92,0,0,1,1.18-.17,125.51,125.51,0,0,0,28.73-1,.68.68,0,0,1,.25,0l.26.05.19,0-.07.18A113.38,113.38,0,0,1,87,140.18ZM66.62,121.22c6.41,9.17,12.65,14.94,20.17,18.67A113.09,113.09,0,0,0,97.24,120l-.09,0L97,120a125.84,125.84,0,0,1-28.8,1,3.62,3.62,0,0,0-1.09.16Zm-30.31,8.16a20.37,20.37,0,0,1-6.75-1.11,8.89,8.89,0,0,1-6-7.09c-1-4.68.27-9.11,1.59-12.82l.06-.17.16.08,1.54.81c1.07.56,2.08,1.1,3.11,1.6a107.82,107.82,0,0,0,17.14,6.52,1.57,1.57,0,0,1,1,1.05c.3,2.11.54,4.2.79,6.42q.12,1,.24,2l0,.13-.13,0C45.09,128.07,40.8,129.38,36.31,129.38Zm-11-20.75c-1.28,3.64-2.44,8-1.52,12.48A8.59,8.59,0,0,0,29.66,128c6.81,2.36,13.36.4,19.14-1.36q-.11-1-.22-1.91c-.25-2.21-.5-4.3-.79-6.41a1.29,1.29,0,0,0-.76-.79A108.14,108.14,0,0,1,29.85,111c-1-.51-2-1-3.12-1.61Zm24.54,18.2-1.11-9,15.14,2.54.18.54Zm-.75-8.63,1,8.18,13.56-5.66,0-.09Zm29.54,1.69q-3.86,0-7.91-.21l-.45-.06-.36-.05-.42-.06,12.76-8.26.09.09c1,1,2.65,2.38,4.77,2.07a7.5,7.5,0,0,0,3.24-1.23c2.31-1.69,2.69-4.21,1.15-7.69l0-.11,14.83-13.06-.11.48c-.21.9-.4,1.76-.59,2.6-.39,1.77-.76,3.45-1.26,5.08-1.08,3.55-2.24,7.13-3.36,10.6-.73,2.26-1.46,4.52-2.17,6.79a2.18,2.18,0,0,1-2,1.71A121.31,121.31,0,0,1,78.69,119.89Zm-8.26-.57.37,0a128.17,128.17,0,0,0,26-1.09,1.87,1.87,0,0,0,1.76-1.49q1.07-3.4,2.17-6.79c1.12-3.47,2.27-7.06,3.36-10.6.5-1.62.86-3.29,1.25-5.05.15-.69.31-1.4.48-2.13L91.9,104.46c1.55,3.58,1.12,6.19-1.3,8a7.71,7.71,0,0,1-3.38,1.29,5.88,5.88,0,0,1-4.95-2.07Zm-4.39.07c-.75,0-1.36-.49-2-1.5A123,123,0,0,1,50,86.44a3.84,3.84,0,0,1-.12-1.66c.82-5.15,1.6-9.82,2.37-14.29A2.64,2.64,0,0,1,53,69.15c13.17-12.84,26.3-22.66,40.13-30a1.58,1.58,0,0,1,2.45.64c5.47,8.35,9.22,17.36,13.16,28.3a8.88,8.88,0,0,1,.51,4.58c-.44,2.69-.85,5.43-1.25,8.08-.35,2.33-.72,4.74-1.1,7.1a2.81,2.81,0,0,1-.81,1.56c-5,4.51-10,9-14.74,13.13-.85.75-1,.7-2.33.06l-.07,0a5.37,5.37,0,0,0-5.46.81,5.3,5.3,0,0,0-2.1,5.48c.1.59.2,1.14-.56,1.62-2,1.28-4.12,2.6-6.12,3.88-2.28,1.45-4.64,3-7,4.41A3.37,3.37,0,0,1,66,119.39ZM94.22,39.13a2,2,0,0,0-.92.29C79.5,46.75,66.39,56.55,53.24,69.37a2.35,2.35,0,0,0-.66,1.17C51.8,75,51,79.68,50.21,84.83a3.52,3.52,0,0,0,.11,1.52,122.72,122.72,0,0,0,14,31.37c1,1.55,1.77,1.73,3.29.77,2.33-1.45,4.69-3,7-4.41,2-1.28,4.08-2.59,6.12-3.88.56-.35.53-.68.42-1.3a6,6,0,0,1,8-6.63l.08,0c1.29.6,1.29.6,2,0,4.71-4.17,9.72-8.61,14.74-13.12a2.52,2.52,0,0,0,.71-1.38c.38-2.37.74-4.77,1.1-7.1.4-2.65.82-5.39,1.25-8.08a8.59,8.59,0,0,0-.49-4.43C104.53,57.27,100.79,48.28,95.34,40,95,39.39,94.64,39.13,94.22,39.13ZM63,119l-.34-.05-2.6-.39c-1.92-.29-3.73-.56-5.54-.87-.85-.15-1.71-.34-2.54-.53s-1.56-.36-2.35-.5a1.09,1.09,0,0,1-1-1.21c0-.63-.05-1.26-.09-1.89,0-.85-.1-1.74-.11-2.61a1.66,1.66,0,0,1,.56-1.11,3,3,0,0,0,1.17-2.28A2.92,2.92,0,0,0,49,105.4a1.59,1.59,0,0,1-.59-1.12c.23-4.14.51-8.34.77-12.4l.08-1.18a.38.38,0,0,1,.14-.24l.12-.12.18-.21.09.27a124.17,124.17,0,0,0,13.11,28.34ZM49.54,90.74h0l-.07,1.15c-.27,4.06-.54,8.26-.77,12.4a1.31,1.31,0,0,0,.48.86,3.22,3.22,0,0,1,1.3,2.41,3.32,3.32,0,0,1-1.27,2.52,1.36,1.36,0,0,0-.45.88c0,.86.06,1.74.1,2.59,0,.63.07,1.27.09,1.9s.21.81.79.91c.79.14,1.59.33,2.37.5s1.68.38,2.52.53c1.8.31,3.61.58,5.53.87l2.26.34A124.49,124.49,0,0,1,49.54,90.74Zm50.21,27.32a.44.44,0,0,1-.22-.08l-.12-.06-.13-.06,0-.13c.25-.72.51-1.44.77-2.15.56-1.55,1.14-3.15,1.6-4.76,1.08-3.8,2.13-7.68,3.15-11.42q1.08-4,2.18-8a4.32,4.32,0,0,1,.93-1.77c1.16-1.25,2.36-2.46,3.63-3.74l1.51-1.53.22-.22,0,.31c.13.84.26,1.65.39,2.45.28,1.72.55,3.35.74,5a103.19,103.19,0,0,1,.65,21.36,1.67,1.67,0,0,1-.88,1.29c-4.17,1.05-8.43,2.06-12.54,3l-1.91.45Zm-.08-.36h0l.07,0,1.87-.45c4.11-1,8.37-2,12.54-3a1.42,1.42,0,0,0,.65-1A102.92,102.92,0,0,0,114.18,92c-.19-1.64-.45-3.27-.73-5-.11-.7-.23-1.42-.34-2.15l-1.29,1.31c-1.27,1.28-2.47,2.49-3.62,3.73a4.06,4.06,0,0,0-.86,1.64q-1.1,4-2.18,8c-1,3.75-2.07,7.62-3.15,11.43-.46,1.62-1,3.23-1.6,4.78C100.16,116.36,99.91,117,99.68,117.7Zm-51.73-1.49-.21-.06-1.19-.34c-.82-.23-1.59-.45-2.36-.7A94.19,94.19,0,0,1,28,108.41l-.61-.33c-1.88-1-1.93-1.1-1.22-2.59.14-.29.3-.63.48-1.06a79.07,79.07,0,0,1,9.64-15.77c1.93-2.6,4-5.18,6-7.67l2.42-3a6.62,6.62,0,0,1,.58-.62l.32-.32.19-.19.07.26c.28,1,.57,2,.86,3,.73,2.48,1.42,4.82,2,7.25a7.71,7.71,0,0,1-.09,2.8c-.07.44-.14.89-.17,1.33-.23,3.17-.46,6.34-.69,9.55l-.28,3.84-.1,0c-1.77.57-2.59,1.46-2.58,2.8s.89,2.28,2.75,2.76l.11,0Zm-2.3-38.78-.13.13a6.36,6.36,0,0,0-.55.59l-2.42,3c-2,2.49-4,5.06-6,7.66A78.81,78.81,0,0,0,27,104.55c-.18.43-.35.78-.49,1.07-.61,1.28-.61,1.28,1.09,2.18l.61.33a93.88,93.88,0,0,0,16.11,6.68c.76.24,1.54.47,2.35.7l1,.28-.27-5.1c-1.92-.52-2.86-1.51-2.88-3s.84-2.44,2.69-3.07l.26-3.63c.23-3.21.46-6.38.69-9.55,0-.45.1-.91.17-1.35a7.47,7.47,0,0,0,.1-2.69c-.54-2.42-1.23-4.75-2-7.23C46.17,79.24,45.91,78.34,45.65,77.43Zm71.14,36.33v-.22c0-1.27,0-2.55,0-3.78,0-2.81.08-5.47-.14-8.16-.41-5.08-1.09-10.22-1.76-15.2l-.3-2.28a2.77,2.77,0,0,1,.67-2.34q1.66-2.1,3.34-4.17c3.21-4,6.54-8.13,9.52-12.38A66.77,66.77,0,0,0,132.79,57c.62-1.22,1.26-2.49,1.92-3.71.13-.25.25-.51.41-.86l.32-.71.09-.19,1.78,1.52c2,1.72,3.93,3.35,5.84,5a1.42,1.42,0,0,1,.16,1.25,6.05,6.05,0,0,0,.81,5.75,6.37,6.37,0,0,0,5.77,2H150l0,.1c2.68,6.08,3.33,11,2.08,15.8a33,33,0,0,1-9,15.26c-6.46,6.51-14.51,11.27-26.11,15.43Zm18.86-61.69-.24.52c-.16.36-.28.63-.42.89-.66,1.22-1.3,2.48-1.92,3.7a67,67,0,0,1-4.67,8.22c-3,4.27-6.32,8.4-9.53,12.4q-1.68,2.08-3.34,4.17a2.46,2.46,0,0,0-.6,2.1l.3,2.28c.66,5,1.34,10.13,1.76,15.21.22,2.71.18,5.37.14,8.19,0,1.16,0,2.36,0,3.55,11.44-4.12,19.4-8.84,25.78-15.28a32.72,32.72,0,0,0,8.95-15.12c1.22-4.75.59-9.54-2-15.5a6.64,6.64,0,0,1-5.93-2.11,6.36,6.36,0,0,1-.86-6,1.19,1.19,0,0,0-.07-.92c-1.9-1.68-3.81-3.31-5.83-5ZM24.3,106.27l-.16-.13-1.76-1.4c-1.27-1-2.48-2-3.66-3C13.4,97.22,10.23,93,8.46,88.22,6,81.5,6.52,74.63,10.07,67.81a.77.77,0,0,1,.2-.22l.07-.06.08-.08.1.05c4.52,2.4,8,2.21,10.79-.6,3-3,3-6.22,0-11.36l-.06-.11.09-.08C25.05,51.91,38.45,45,43.1,44.1l.19,0v.19q0,1.22-.07,2.43c0,1.73-.1,3.51-.11,5.26a101,101,0,0,0,2.16,21.81,2.18,2.18,0,0,1-.6,2.13A152.49,152.49,0,0,0,28.41,98c-.89,1.49-1.65,3.11-2.38,4.66-.34.71-.67,1.43-1,2.14-.12.24-.23.48-.37.78ZM10.47,67.83h0a.54.54,0,0,0-.12.13c-3.51,6.73-4,13.51-1.6,20.16,1.76,4.76,4.89,8.9,10.18,13.42,1.18,1,2.38,2,3.65,3l1.61,1.27.17-.36c.14-.31.25-.55.37-.79.35-.7.68-1.42,1-2.13.74-1.56,1.5-3.18,2.4-4.69A152.81,152.81,0,0,1,44.43,75.68,1.89,1.89,0,0,0,45,73.82a101.3,101.3,0,0,1-2.17-21.87c0-1.76.06-3.54.11-5.27,0-.74,0-1.49.06-2.23-4.74,1-17.56,7.66-21.29,11.06,2.93,5.15,2.89,8.53-.14,11.62C18.7,70,15.08,70.25,10.47,67.83Zm97.3,20L110,73.13l.45-.11,0,.15c.14.51.26,1,.37,1.53a19.31,19.31,0,0,0,1,3.27c1.39,3.23.73,5.8-2,7.84a7.35,7.35,0,0,0-1,1c-.19.21-.4.44-.65.69Zm2.47-14.32-2,13.39.3-.32a7.67,7.67,0,0,1,1.06-1c2.66-2,3.28-4.34,1.93-7.46a19.57,19.57,0,0,1-1-3.32C110.45,74.35,110.35,73.93,110.24,73.51ZM48.91,82.84l0-.16c-.12-.47-.23-.94-.35-1.42a24.46,24.46,0,0,0-.88-3.11,3.88,3.88,0,0,1,1.34-5,10.73,10.73,0,0,0,1.28-1.27c.23-.25.47-.52.74-.8l.35-.37-2,11.93Zm2-11.11-.38.42a11,11,0,0,1-1.32,1.3A3.57,3.57,0,0,0,47.94,78a24.56,24.56,0,0,1,.89,3.15c.09.36.17.73.26,1.09ZM114,81.08l-.47-1.81c-.28-1.07-.54-2.07-.81-3.07-.09-.34-.18-.68-.27-1a22,22,0,0,0-.85-2.8,15.51,15.51,0,0,1-.93-7.51,124.29,124.29,0,0,0,.1-23.11l0-.22.21.05a75.21,75.21,0,0,1,23,9.35l.11.07,0,.12c-4.58,11.62-12.3,21.05-19.83,29.72Zm-2.89-39.14a124.66,124.66,0,0,1-.12,23,15.22,15.22,0,0,0,.91,7.36,22.1,22.1,0,0,1,.86,2.84c.09.34.17.68.26,1,.27,1,.53,2,.81,3.07l.32,1.24c7.42-8.56,15-17.87,19.53-29.29A74.83,74.83,0,0,0,111.15,41.95ZM46.6,73.62l0-.31c-.13-.82-.27-1.62-.4-2.4-.28-1.66-.55-3.22-.76-4.81a113.22,113.22,0,0,1-.66-21.34,1.52,1.52,0,0,1,1.36-1.64C49,42.42,52,41.67,54.9,40.95l4-1a7.9,7.9,0,0,1,.78-.14l.51-.08.27,0-.09.25-.74,2c-.52,1.42-1,2.77-1.54,4.13a144.74,144.74,0,0,0-5.9,21,4,4,0,0,1-.94,1.77c-1,1.06-2,2.1-3.09,3.2L46.82,73.4ZM60,40.07l-.25,0c-.29,0-.52.08-.75.13l-4,1c-2.89.73-5.88,1.48-8.82,2.18A1.22,1.22,0,0,0,45,44.79a112.9,112.9,0,0,0,.66,21.28c.21,1.58.47,3.14.76,4.8.12.68.24,1.38.36,2.1L48,71.81C49,70.71,50.06,69.68,51,68.62A3.7,3.7,0,0,0,51.91,67a145,145,0,0,1,5.91-21c.52-1.35,1-2.7,1.54-4.12Zm-7,26.7.12-.5c.21-.87.4-1.75.59-2.63.41-1.91.84-3.89,1.44-5.79,1.75-5.52,3.69-11.09,5.56-16.47l.33-.94a2,2,0,0,1,1.34-1.07,127.49,127.49,0,0,1,27.93-1,.46.46,0,0,1,.25.13l.23.17.21.15-.23.12c-15.3,8.08-28,18.93-37.39,27.48ZM81.16,38.34A134.86,134.86,0,0,0,62.42,39.7a1.63,1.63,0,0,0-1.09.86L61,41.5C59.14,46.88,57.2,52.44,55.45,58c-.59,1.88-1,3.85-1.43,5.76-.16.72-.31,1.43-.47,2.15,9.3-8.47,21.82-19.09,36.86-27.07l0,0-.09-.07C87.27,38.46,84.23,38.34,81.16,38.34Zm28.65,28.13-.23-.62c-3.11-8.23-6.89-17.72-12.43-26.24l0-.06.19-.63,2.42.44c3.18.58,6.47,1.18,9.7,1.83.39.08.7.91.71,1.31l0,.91c.12,4.85.25,9.87.26,14.81a71.62,71.62,0,0,1-.53,7.6Zm-12.37-27c5.4,8.32,9.13,17.55,12.19,25.62a65.55,65.55,0,0,0,.46-6.91c0-4.93-.14-9.95-.26-14.8l0-.91a1.45,1.45,0,0,0-.46-1c-3.22-.65-6.51-1.25-9.69-1.83l-2.15-.39Zm37.1,10.38-.17-.09-1.13-.65c-.75-.43-1.45-.83-2.16-1.22a79.55,79.55,0,0,0-19.43-7.35c-.65-.16-1-.39-1.1-1.15-.21-1.83-.45-3.64-.71-5.56l-.29-2.17,0-.13.13,0,.93-.28c.69-.21,1.4-.42,2.11-.6,4.43-1.14,8.44-2.07,12.61-1.83a16.39,16.39,0,0,1,4.2.75c4.71,1.57,6.74,4.35,7,9.6.16,3.46-.64,6.71-1.89,10.53Zm-24.67-18.1.27,2c.26,1.92.5,3.73.71,5.56.07.58.29.74.87.88a79.86,79.86,0,0,1,19.51,7.38c.71.39,1.42.79,2.17,1.22l1,.55a28.23,28.23,0,0,0,1.82-10.24c-.24-5.1-2.2-7.8-6.77-9.32a16.1,16.1,0,0,0-4.12-.74c-4.12-.24-8.11.68-12.51,1.82-.71.18-1.41.39-2.1.6ZM44.79,42.24l0-.23c.17-.87.34-1.73.49-2.58.35-1.89.68-3.67,1.15-5.45a33.49,33.49,0,0,1,5.07-11.42c4.58-6.38,11.21-8.5,18.67-6l1.21.44.64.24.18.07-.1.16c-.48.79-1,1.56-1.45,2.32-1.06,1.68-2.07,3.27-3,4.95-1.31,2.49-2.58,5.07-3.8,7.56-.82,1.66-1.66,3.39-2.51,5.07a2.3,2.3,0,0,1-1.28,1.12c-3.79,1-7.66,1.91-11.4,2.82l-2.92.71-.38.07L45,42.2ZM64.28,15.89c-4.91,0-9.22,2.34-12.47,6.87a33.19,33.19,0,0,0-5,11.31c-.46,1.77-.79,3.55-1.15,5.43-.14.78-.29,1.56-.45,2.36l.22,0,.35-.07L48.68,41c3.74-.91,7.6-1.85,11.39-2.82a2,2,0,0,0,1.08-1c.85-1.68,1.7-3.4,2.51-5.06,1.22-2.49,2.49-5.07,3.8-7.56.89-1.69,1.9-3.28,3-5,.45-.71.9-1.42,1.35-2.15l-.46-.17-1.2-.44A18.15,18.15,0,0,0,64.28,15.89Zm45.65,24.06L95.65,37.6l13.13-6ZM96.72,37.46l12.85,2.11-1-7.51Zm-35,.84.12-.26c.2-.44.38-.85.56-1.23.36-.8.66-1.49,1-2.17q2.24-4.07,4.5-8.13,2.08-3.74,4.15-7.49a1.78,1.78,0,0,1,1-1,2,2,0,0,1,1.5.37,54.48,54.48,0,0,1,16.46,15,37.4,37.4,0,0,1,2.49,3.74l.15.26-.3,0a140.37,140.37,0,0,0-31.4.89Zm11.69-20a.83.83,0,0,0-.22,0c-.3.08-.56.34-.82.82q-2.07,3.75-4.16,7.5-2.26,4.06-4.5,8.13c-.36.66-.67,1.35-1,2.14l-.44,1A140.65,140.65,0,0,1,93.17,37a37.93,37.93,0,0,0-2.32-3.45,54.17,54.17,0,0,0-16.37-14.9A2.16,2.16,0,0,0,73.45,18.32ZM95.32,36.21l-.08-.09c-1-1.11-1.92-2.24-2.84-3.34-2.12-2.51-4.31-5.1-6.61-7.51a39.74,39.74,0,0,0-11.61-8.62L74,16.56l3.65-4.16.12.11c2.27,2.12,4.43,2.35,6.59.7,1.68-1.28,2-3.17,1.07-5.77l0-.13.12-.06A11.52,11.52,0,0,1,98.62,9.18a23.42,23.42,0,0,1,6,8.72c1.06,2.6,2,5.32,2.71,7.67.34,1,.57,2.12.81,3.16.1.45.2.9.3,1.33l0,.13ZM74.5,16.45A40.13,40.13,0,0,1,86,25c2.31,2.41,4.5,5,6.62,7.53.9,1.07,1.83,2.17,2.76,3.25L108.12,30c-.09-.4-.18-.8-.28-1.21-.23-1-.47-2.1-.8-3.13-.75-2.34-1.64-5.05-2.7-7.64a23.11,23.11,0,0,0-5.94-8.61,11.21,11.21,0,0,0-12.64-2c.94,2.64.53,4.66-1.23,6-2.23,1.7-4.54,1.5-6.87-.61Z"/></g></svg>