<svg xmlns="http://www.w3.org/2000/svg" viewBox="10709 2629.148 261.474 73.08"><defs><style>.a{fill:#fff;}</style></defs><g transform="translate(9880 288)"><g transform="translate(891.668 2363.344)"><path class="a" d="M194.949,90.108h-11.9l-2.08,6.716H171.7L184.912,60.8h9.344l12.117,36.024H197.03Zm-9.818-6.716h7.738L188.964,70.91Z" transform="translate(-171.7 -60.8)"/></g><g transform="translate(918.932 2372.579)"><path class="a" d="M259.539,101.247l4.453-15.074H272.9l-10.913,31.243-.474,1.131c-1.533,3.467-4.27,5.183-8.212,5.183a11.68,11.68,0,0,1-3.431-.511V117.27h1.095a5.915,5.915,0,0,0,2.7-.511,3.191,3.191,0,0,0,1.387-1.825l.657-1.788L246.4,86.1h8.906Z" transform="translate(-246.4 -86.1)"/></g><g transform="translate(946.415 2372.615)"><path class="a" d="M329.511,112.953H321.7V86.2h8.395v18.76A4.3,4.3,0,0,0,334.182,107c2.226,0,3.358-1.131,3.358-3.431V86.2h8.322v17.337c0,3.212-.766,5.657-2.263,7.373s-3.723,2.555-6.679,2.555a8.593,8.593,0,0,1-7.154-3.394Z" transform="translate(-321.7 -86.2)"/></g><g transform="translate(971.416 2361.374)"><path class="a" d="M390.2,79.817c0-4.234.912-7.592,2.737-10.037a9,9,0,0,1,7.665-3.65,7.645,7.645,0,0,1,6.022,2.81V55.4h8.358V93.395H407.5l-.438-2.883a7.949,7.949,0,0,1-6.533,3.358,8.98,8.98,0,0,1-7.555-3.65C391.149,87.81,390.2,84.343,390.2,79.817Zm8.358.547q0,7.117,4.161,7.117a4.023,4.023,0,0,0,3.942-2.336V74.963a4,4,0,0,0-3.905-2.372c-2.555,0-3.978,2.08-4.2,6.241Z" transform="translate(-390.2 -55.4)"/></g><g transform="translate(997.44 2372.615)"><path class="a" d="M469.858,112.953H461.5V86.2h8.358Z" transform="translate(-461.5 -86.2)"/></g><g transform="translate(1006.856 2372.141)"><path class="a" d="M511.389,85.374v26.753h-8.322V93.222a4.021,4.021,0,0,0-3.65-1.934,3.821,3.821,0,0,0-2.956.949,4.515,4.515,0,0,0-.8,2.993v16.9H487.3V94.9c.036-3.358.766-5.84,2.153-7.519s3.467-2.482,6.241-2.482a8.978,8.978,0,0,1,7.628,3.65l.255-3.139h7.811Z" transform="translate(-487.3 -84.9)"/></g><g transform="translate(1031.931 2372.104)"><path class="a" d="M556,98.487a17.8,17.8,0,0,1,1.35-7.19,10.582,10.582,0,0,1,3.832-4.818,10.126,10.126,0,0,1,5.8-1.679,8.113,8.113,0,0,1,6.533,2.81l.292-2.336h7.555v25.768a11.154,11.154,0,0,1-1.642,6.132,10.728,10.728,0,0,1-4.745,4.015,17.256,17.256,0,0,1-7.227,1.387,14.544,14.544,0,0,1-5.694-1.131,10.593,10.593,0,0,1-4.234-2.883l3.5-4.891a7.653,7.653,0,0,0,6.132,2.737c3.686,0,5.548-1.9,5.548-5.694v-.839a7.884,7.884,0,0,1-6.059,2.664,9.653,9.653,0,0,1-7.92-3.759C557.022,106.3,556,102.94,556,98.742v-.255Zm8.358.547a9.443,9.443,0,0,0,1.241,5.219,3.929,3.929,0,0,0,3.467,1.934,4.459,4.459,0,0,0,3.942-1.788V93.158a4.349,4.349,0,0,0-3.869-1.825,3.908,3.908,0,0,0-3.5,2.007C564.76,94.582,564.358,96.479,564.358,99.034Z" transform="translate(-556 -84.8)"/></g><g transform="translate(1058.173 2371.958)"><path class="a" d="M644.215,111.7a10.778,10.778,0,0,1-.8-2.409,7.735,7.735,0,0,1-6.424,2.883,9.434,9.434,0,0,1-6.424-2.3,7.962,7.962,0,0,1,.547-12.336c2.153-1.5,5.256-2.226,9.344-2.226h2.555V93.89c0-2.482-1.058-3.686-3.175-3.686-1.971,0-2.956.985-2.956,2.92h-8.322a7.537,7.537,0,0,1,3.285-6.314,13.9,13.9,0,0,1,8.431-2.409,12.349,12.349,0,0,1,8.1,2.482c1.971,1.679,2.993,3.942,3.029,3.686V102.43c.036,5.621.4,7.519,1.131,8.8v.438h-8.322ZM639,106.262a4.794,4.794,0,0,0,2.591-.657,4.052,4.052,0,0,0,1.46-1.5v-4.27h-2.409c-2.92,0-4.343,1.314-4.343,3.905a2.292,2.292,0,0,0,.766,1.825A2.846,2.846,0,0,0,639,106.262Z" transform="translate(-627.9 -84.4)"/></g><g transform="translate(938.239 2401.011)"><path class="a" d="M304.519,171.446a2.562,2.562,0,0,1-1.058.8,3.475,3.475,0,0,1-1.387.255,2.56,2.56,0,0,1-2.007-.839,3.835,3.835,0,0,1-.766-2.372v-2.007a3.753,3.753,0,0,1,.693-2.445,2.483,2.483,0,0,1,1.971-.839,2.533,2.533,0,0,1,1.788.62,2.616,2.616,0,0,1,.73,1.825h-.657a2.223,2.223,0,0,0-.547-1.387,1.785,1.785,0,0,0-1.314-.438,1.765,1.765,0,0,0-1.533.693,3.261,3.261,0,0,0-.511,1.971v1.934a3.206,3.206,0,0,0,.547,2.007,1.86,1.86,0,0,0,1.569.73,2.392,2.392,0,0,0,1.788-.693V169.11H302v-.62h2.482v2.956Z" transform="translate(-299.3 -164)"/></g><g transform="translate(944.371 2403.091)"><path class="a" d="M318.436,176.124a2.2,2.2,0,0,1-1.715-.73,2.918,2.918,0,0,1-.62-2.044v-.766a3.32,3.32,0,0,1,.584-2.117,1.976,1.976,0,0,1,1.642-.766,1.885,1.885,0,0,1,1.533.657,3.067,3.067,0,0,1,.547,2.007v.584H316.72v.365a2.741,2.741,0,0,0,.438,1.642,1.482,1.482,0,0,0,1.277.584,1.912,1.912,0,0,0,1.5-.657l.328.438A2.118,2.118,0,0,1,318.436,176.124Zm-.109-5.8a1.464,1.464,0,0,0-1.168.511,2.938,2.938,0,0,0-.438,1.533h3.029v-.182Q319.7,170.32,318.326,170.32Z" transform="translate(-316.1 -169.7)"/></g><g transform="translate(949.481 2403.128)"><path class="a" d="M330.72,169.91v.985a2.458,2.458,0,0,1,.693-.8,1.836,1.836,0,0,1,.985-.292c1.095,0,1.642.73,1.642,2.153v4.124h-.62V171.99a2.084,2.084,0,0,0-.292-1.2,1.038,1.038,0,0,0-.912-.4,1.186,1.186,0,0,0-.876.365,2.556,2.556,0,0,0-.62,1.022v4.307h-.62V169.91Z" transform="translate(-330.1 -169.8)"/></g><g transform="translate(953.97 2401.668)"><path class="a" d="M343.969,165.8v1.569h1.058v.584h-1.058v4.088a1.51,1.51,0,0,0,.146.766.517.517,0,0,0,.511.255,3.833,3.833,0,0,0,.474-.073v.584a1.454,1.454,0,0,1-.62.109c-.73,0-1.131-.511-1.131-1.533v-4.2H342.4v-.584h.949V165.8Z" transform="translate(-342.4 -165.8)"/></g><g transform="translate(957.146 2403.091)"><path class="a" d="M353.436,176.124a2.152,2.152,0,0,1-1.715-.73,3.106,3.106,0,0,1-.62-2.044v-.766a3.32,3.32,0,0,1,.584-2.117,1.976,1.976,0,0,1,1.642-.766,1.885,1.885,0,0,1,1.533.657,3.067,3.067,0,0,1,.547,2.007v.584H351.72v.365a2.74,2.74,0,0,0,.438,1.642,1.482,1.482,0,0,0,1.277.584,1.912,1.912,0,0,0,1.5-.657l.328.438A2.075,2.075,0,0,1,353.436,176.124Zm-.109-5.8a1.464,1.464,0,0,0-1.168.511,2.938,2.938,0,0,0-.438,1.533h3.029v-.182Q354.75,170.32,353.326,170.32Z" transform="translate(-351.1 -169.7)"/></g><g transform="translate(963.788 2401.084)"><path class="a" d="M373.789,170.186h-3.1l-.693,2.336H369.3l2.664-8.322h.62l2.664,8.322h-.693Zm-2.92-.584h2.737l-1.387-4.453Z" transform="translate(-369.3 -164.2)"/></g><g transform="translate(969.628 2403.164)"><path class="a" d="M387.563,175.083l1.46-5.146h.693l-2.19,7.154-.109.328c-.292.766-.73,1.168-1.35,1.168a2.513,2.513,0,0,1-.474-.073v-.584a.711.711,0,0,0,.292.037.781.781,0,0,0,.657-.255,1.656,1.656,0,0,0,.438-.8l.255-.876L385.3,169.9h.693Z" transform="translate(-385.3 -169.9)"/></g><g transform="translate(974.592 2403.237)"><path class="a" d="M402.258,175.538a1.744,1.744,0,0,1-1.642.839,1.482,1.482,0,0,1-1.277-.584,2.832,2.832,0,0,1-.438-1.715V170.1h.62v3.978a2.448,2.448,0,0,0,.292,1.277.935.935,0,0,0,.839.438,1.465,1.465,0,0,0,1.533-1.168V170.1h.657v6.168h-.62Z" transform="translate(-398.9 -170.1)"/></g><g transform="translate(979.482 2400.646)"><path class="a" d="M412.3,168.4a4.044,4.044,0,0,1,.511-2.19,1.725,1.725,0,0,1,1.5-.73,1.692,1.692,0,0,1,1.569.949V163h.62v8.76h-.584l-.036-.8a1.661,1.661,0,0,1-1.569.912,1.77,1.77,0,0,1-1.5-.73,3.858,3.858,0,0,1-.511-2.117Zm.657.547a3.133,3.133,0,0,0,.365,1.752,1.278,1.278,0,0,0,1.131.547,1.576,1.576,0,0,0,1.46-.949v-3.212a1.475,1.475,0,0,0-1.46-1.022,1.237,1.237,0,0,0-1.131.547,3.075,3.075,0,0,0-.365,1.715Z" transform="translate(-412.3 -163)"/></g><g transform="translate(984.665 2403.164)"><path class="a" d="M430,176.141a2.45,2.45,0,0,1-.109-.839,2.323,2.323,0,0,1-.73.73,1.808,1.808,0,0,1-.985.255,1.659,1.659,0,0,1-1.241-.438,2,2,0,0,1,.182-2.7,2.483,2.483,0,0,1,1.715-.547h1.058v-.876a1.2,1.2,0,0,0-.328-.949,1.472,1.472,0,0,0-.949-.292,1.3,1.3,0,0,0-.949.328,1.082,1.082,0,0,0-.365.876h-.62a1.574,1.574,0,0,1,.584-1.277,1.957,1.957,0,0,1,1.423-.511,1.921,1.921,0,0,1,1.423.474,1.8,1.8,0,0,1,.474,1.35v3.029a3.971,3.971,0,0,0,.182,1.35v.073H430Zm-1.752-.511a1.836,1.836,0,0,0,.985-.292,1.431,1.431,0,0,0,.62-.766v-1.5h-.985a1.948,1.948,0,0,0-1.314.4,1.273,1.273,0,0,0-.438,1.022A1,1,0,0,0,428.252,175.63Z" transform="translate(-426.5 -169.9)"/></g><g transform="translate(989.921 2403.128)"><path class="a" d="M441.484,169.91v.985a2.458,2.458,0,0,1,.693-.8,1.836,1.836,0,0,1,.985-.292c1.095,0,1.642.73,1.642,2.153v4.124h-.62V171.99a2.084,2.084,0,0,0-.292-1.2,1.038,1.038,0,0,0-.912-.4,1.186,1.186,0,0,0-.876.365,2.16,2.16,0,0,0-.584,1.022v4.307h-.62V169.91Z" transform="translate(-440.9 -169.8)"/></g><g transform="translate(994.775 2400.646)"><path class="a" d="M454.2,168.4a4.044,4.044,0,0,1,.511-2.19,1.725,1.725,0,0,1,1.5-.73,1.693,1.693,0,0,1,1.569.949V163h.62v8.76h-.584l-.037-.8a1.661,1.661,0,0,1-1.569.912,1.77,1.77,0,0,1-1.5-.73,3.858,3.858,0,0,1-.511-2.117Zm.62.547a3.133,3.133,0,0,0,.365,1.752,1.278,1.278,0,0,0,1.131.547,1.576,1.576,0,0,0,1.46-.949v-3.212a1.475,1.475,0,0,0-1.46-1.022,1.237,1.237,0,0,0-1.131.547,3.075,3.075,0,0,0-.365,1.715Z" transform="translate(-454.2 -163)"/></g><g transform="translate(999.922 2403.128)"><path class="a" d="M468.3,172.683a3.4,3.4,0,0,1,.62-2.117,2.143,2.143,0,0,1,3.285,0,3.323,3.323,0,0,1,.62,2.117v.657a3.323,3.323,0,0,1-.62,2.117,1.976,1.976,0,0,1-1.642.766,2.052,2.052,0,0,1-1.642-.73,3.175,3.175,0,0,1-.62-2.044Zm.657.62a2.862,2.862,0,0,0,.438,1.679,1.424,1.424,0,0,0,1.2.62,1.393,1.393,0,0,0,1.2-.584,2.792,2.792,0,0,0,.4-1.679v-.657a2.862,2.862,0,0,0-.438-1.679,1.424,1.424,0,0,0-1.2-.62,1.372,1.372,0,0,0-1.168.584,2.741,2.741,0,0,0-.438,1.642Z" transform="translate(-468.3 -169.8)"/></g><g transform="translate(1007.44 2401.011)"><path class="a" d="M494.119,171.446a2.562,2.562,0,0,1-1.058.8,3.475,3.475,0,0,1-1.387.255,2.56,2.56,0,0,1-2.007-.839,3.835,3.835,0,0,1-.766-2.372v-2.007a3.753,3.753,0,0,1,.693-2.445,2.483,2.483,0,0,1,1.971-.839,2.533,2.533,0,0,1,1.788.62,2.616,2.616,0,0,1,.73,1.825h-.657a2.223,2.223,0,0,0-.547-1.387,1.785,1.785,0,0,0-1.314-.438,1.765,1.765,0,0,0-1.533.693,3.261,3.261,0,0,0-.511,1.971v1.934a3.206,3.206,0,0,0,.547,2.007,1.86,1.86,0,0,0,1.569.73,2.392,2.392,0,0,0,1.788-.693V169.11H491.6v-.62h2.482v2.956Z" transform="translate(-488.9 -164)"/></g><g transform="translate(1013.572 2403.091)"><path class="a" d="M508.036,176.124a2.2,2.2,0,0,1-1.715-.73,2.918,2.918,0,0,1-.62-2.044v-.766a3.32,3.32,0,0,1,.584-2.117,1.976,1.976,0,0,1,1.642-.766,1.885,1.885,0,0,1,1.533.657,3.067,3.067,0,0,1,.547,2.007v.584H506.32v.365a2.741,2.741,0,0,0,.438,1.642,1.482,1.482,0,0,0,1.277.584,1.912,1.912,0,0,0,1.5-.657l.329.438A2.033,2.033,0,0,1,508.036,176.124Zm-.109-5.8a1.465,1.465,0,0,0-1.168.511,2.938,2.938,0,0,0-.438,1.533h3.029v-.182Q509.35,170.32,507.926,170.32Z" transform="translate(-505.7 -169.7)"/></g><g transform="translate(1018.682 2403.128)"><path class="a" d="M520.32,169.91v.985a2.458,2.458,0,0,1,.693-.8A1.836,1.836,0,0,1,522,169.8c1.095,0,1.642.73,1.642,2.153v4.124h-.62V171.99a2.084,2.084,0,0,0-.292-1.2,1.038,1.038,0,0,0-.912-.4,1.186,1.186,0,0,0-.876.365,2.556,2.556,0,0,0-.62,1.022v4.307h-.62V169.91Z" transform="translate(-519.7 -169.8)"/></g><g transform="translate(1023.171 2401.668)"><path class="a" d="M533.606,165.8v1.569h1.058v.584h-1.058v4.088a1.51,1.51,0,0,0,.146.766.517.517,0,0,0,.511.255,3.833,3.833,0,0,0,.474-.073v.584a1.454,1.454,0,0,1-.62.109c-.73,0-1.131-.511-1.131-1.533v-4.2H532v-.584h.949V165.8Z" transform="translate(-532 -165.8)"/></g><g transform="translate(1026.383 2403.091)"><path class="a" d="M543.136,176.124a2.152,2.152,0,0,1-1.715-.73,3.106,3.106,0,0,1-.62-2.044v-.766a3.32,3.32,0,0,1,.584-2.117,1.976,1.976,0,0,1,1.642-.766,1.885,1.885,0,0,1,1.533.657,3.066,3.066,0,0,1,.548,2.007v.584H541.42v.365a2.741,2.741,0,0,0,.438,1.642,1.482,1.482,0,0,0,1.277.584,1.912,1.912,0,0,0,1.5-.657l.328.438A2.118,2.118,0,0,1,543.136,176.124Zm-.109-5.8a1.464,1.464,0,0,0-1.168.511,2.937,2.937,0,0,0-.438,1.533h3.029v-.182C544.45,170.941,543.939,170.32,543.026,170.32Z" transform="translate(-540.8 -169.7)"/></g><g transform="translate(1081.38 2362.797)"><path class="a" d="M695.066,96.2a.27.27,0,0,1-.255-.255c-1.5-13.395-2.993-27.009-3.321-32.082-.073-1.825.474-3.248,3.8-3.942a40.134,40.134,0,0,1,4.818-.62c.328,0,.474.146.474.474-.328,5.292-2.628,22.556-4.051,35.7-.073.328-1.022.73-1.424.73Zm.876,2.007a4.08,4.08,0,0,1,4.051,4.124,4.022,4.022,0,0,1-4.2,3.869,3.9,3.9,0,0,1-4.051-3.8,4.152,4.152,0,0,1,4.124-4.2h.073Z" transform="translate(-691.483 -59.3)"/></g><g transform="translate(829 2341.148)"><path class="a" d="M42.7-.01H4.38A4.063,4.063,0,0,0,1.2,1.6,4.13,4.13,0,0,0,0,4.443v39.09C0,47.328,1.752,59.3,16.935,59.3c1.241,0,2.226.073,3.066.073H36.133c12.3,0,18.651,8.358,21.315,13.249a.834.834,0,0,0,1.569-.4V14.188C57.7-.74,42.7-.01,42.7-.01Zm4.891,47.229a.859.859,0,0,1-.766.8c-4.416.365-27.447,1.788-32.41-6.533-4.891-8.212-3.394-25.22-3.029-28.907a.8.8,0,0,1,.8-.73c4.343-.182,27.191-.912,31.79,5.183C48.506,23.057,47.776,43.167,47.594,47.219Z" transform="translate(0 0.016)"/><g transform="translate(21.899 18.802)"><path class="a" d="M60.219,60.588c.4,2.08,1.277,3.54,2.263,3.54,1.387,0,2.518-2.81,2.518-6.314a11.679,11.679,0,0,0-.8-4.6v-.036c-.438-1.022-1.022-1.679-1.679-1.679h-.109c-.547.073-1.022.511-1.423,1.277v.036a11.665,11.665,0,0,0-.985,5,12.924,12.924,0,0,0,.255,2.737Z" transform="translate(-60 -51.5)"/></g><g transform="translate(21.678 34.44)"><path class="a" d="M73.7,94.73c-.037,0-.037-.036-.073-.036-1.277-.876-4.051.219-6.862.073-2.993.146-5.949-1.095-7.081.109-.912.839.328,3.942,3.321,5.548a.036.036,0,0,1,.036.036,8.018,8.018,0,0,0,3.723.912c5.621-.036,8.322-5.365,7.081-6.5C73.813,94.839,73.74,94.8,73.7,94.73Z" transform="translate(-59.395 -94.344)"/></g><g transform="translate(31.425 18.839)"><ellipse class="a" cx="2.445" cy="6.314" rx="2.445" ry="6.314"/></g></g></g></svg>